<svg width="15" height="18" viewBox="0 0 15 18" fill="none" xmlns="http://www.w3.org/2000/svg">
<path fill-rule="evenodd" clip-rule="evenodd" d="M7.50006 1.50001C5.90875 1.50001 4.38262 2.13215 3.25739 3.25738C2.13217 4.38261 1.50001 5.90875 1.50001 7.50006C1.50001 9.82363 3.01183 12.0783 4.6695 13.8281C5.483 14.6868 6.29905 15.3897 6.91256 15.8783C7.14089 16.0601 7.34033 16.2115 7.50006 16.3296C7.6598 16.2115 7.85923 16.0601 8.08756 15.8783C8.70107 15.3897 9.51712 14.6868 10.3306 13.8281C11.9883 12.0783 13.5001 9.82363 13.5001 7.50006C13.5001 5.90875 12.868 4.38261 11.7427 3.25738C10.6175 2.13215 9.09138 1.50001 7.50006 1.50001ZM7.50006 17.2501C7.08403 17.8742 7.08363 17.8739 7.08363 17.8739L7.08149 17.8725L7.07649 17.8691L7.0593 17.8575C7.0447 17.8476 7.02387 17.8333 6.99723 17.8149C6.94396 17.778 6.86741 17.7242 6.77091 17.6545C6.57797 17.5152 6.30482 17.3118 5.97817 17.0517C5.32605 16.5324 4.45458 15.7823 3.58057 14.8597C1.86321 13.0469 0 10.4265 0 7.50006C4.47039e-08 5.51092 0.790189 3.60327 2.19672 2.19673C3.60326 0.7902 5.51092 0 7.50006 0C9.4892 0 11.3969 0.7902 12.8034 2.19673C14.2099 3.60327 15.0001 5.51092 15.0001 7.50006C15.0001 10.4265 13.1369 13.0469 11.4196 14.8597C10.5455 15.7823 9.67408 16.5324 9.02196 17.0517C8.6953 17.3118 8.42216 17.5152 8.22923 17.6545C8.13272 17.7242 8.05617 17.778 8.0029 17.8149C7.97626 17.8333 7.95544 17.8476 7.94084 17.8575L7.92365 17.8691L7.91865 17.8725L7.91706 17.8735C7.91706 17.8735 7.91609 17.8742 7.50006 17.2501ZM7.50006 17.2501L7.91609 17.8742C7.66417 18.0421 7.33556 18.0418 7.08363 17.8739L7.50006 17.2501Z" fill="white"/>
<path fill-rule="evenodd" clip-rule="evenodd" d="M7.50006 6.00005C6.67163 6.00005 6.00005 6.67163 6.00005 7.50006C6.00005 8.3285 6.67163 9.00008 7.50006 9.00008C8.3285 9.00008 9.00008 8.3285 9.00008 7.50006C9.00008 6.67163 8.3285 6.00005 7.50006 6.00005ZM4.50004 7.50006C4.50004 5.84319 5.84319 4.50004 7.50006 4.50004C9.15693 4.50004 10.5001 5.84319 10.5001 7.50006C10.5001 9.15693 9.15693 10.5001 7.50006 10.5001C5.84319 10.5001 4.50004 9.15693 4.50004 7.50006Z" fill="white"/>
</svg>
