<svg width="32" height="34" viewBox="0 0 32 34" fill="none" xmlns="http://www.w3.org/2000/svg">
<path d="M32 6.72035C32.0007 7.08913 31.6989 7.38965 31.3262 7.39098H31.3249C30.9536 7.39098 30.6505 7.09114 30.6498 6.7237C30.6484 6.35425 30.9509 6.05307 31.3229 6.0524H31.3249C31.6962 6.0524 31.9993 6.35157 32 6.72035ZM31.3613 9.91354C30.5039 12.0754 27.871 14.9921 23.6739 14.9921H21.5359V16.3307H23.2236C24.3404 16.3307 25.2489 17.2314 25.2489 18.3386V20.3465C25.2489 21.2191 24.6846 21.9634 23.8987 22.2397V33.3307C23.8987 33.7004 23.5964 34 23.2236 34H0.675105C0.302312 34 0 33.7004 0 33.3307C0 31.3017 1.02535 29.4018 2.74275 28.2484C3.67284 27.6238 4.7306 27.2651 5.80591 27.1845V22.2396C5.02002 21.9634 4.4557 21.2191 4.4557 20.3465V18.3386C4.4557 17.2314 5.36425 16.3307 6.48101 16.3307H8.16878V14.3228C8.16878 13.9532 8.47109 13.6535 8.84388 13.6535H10.2905L12.9013 11.5306C14.8926 9.9282 17.519 8.76772 20.6933 8.76772H20.9863C20.563 8.34673 19.6321 7.23698 19.6321 5.52366C19.6321 2.45048 22.1609 0 25.2037 0C28.4001 0 30.4352 2.1007 31.173 3.51378C31.5904 4.31331 30.4184 4.9379 29.9874 4.15563C29.0303 2.41808 27.1972 1.33858 25.2044 1.33858C22.9188 1.33858 20.9823 3.14353 20.9823 5.52366C20.9823 6.38504 21.3205 7.19823 21.9342 7.81398C22.5492 8.42839 23.3627 8.76772 24.2249 8.76772C25.1247 8.76772 25.1247 10.1063 24.2249 10.1063H20.6933C18.1705 10.1063 15.7077 10.9797 13.7574 12.5659L12.4194 13.6535H23.6759C26.4992 13.6535 29.0274 11.9835 30.1151 9.39819C30.4603 8.57784 31.6895 9.0863 31.3613 9.91354ZM9.51899 16.3307H20.1857V14.9921H9.51899V16.3307ZM17.6863 32.6614L8.04233 28.8422C6.55521 28.2533 4.85684 28.4454 3.50002 29.3567C2.32635 30.1448 1.58258 31.325 1.39639 32.6614H17.6863ZM7.15612 26.2362V27.2303C7.62707 27.2981 8.09256 27.4207 8.54326 27.5992L11.5238 28.7795H14.1772V26.2362H7.15612ZM9.85654 24.8976V22.3543H7.15612V24.8976H9.85654ZM18.4979 24.8976V22.3543H11.2067V24.8976H18.4979ZM18.4979 30.1181H14.9039L18.4979 31.5414V30.1181ZM22.5485 30.1181H19.8481V32.0761L21.3262 32.6614H22.5485V30.1181ZM22.5485 26.2362H15.5274V28.7795H22.5485V26.2362ZM22.5485 22.3543H19.8481V24.8976H22.5485V22.3543ZM6.48101 17.6693C6.10876 17.6693 5.80591 17.9695 5.80591 18.3386V20.3465C5.80591 20.7155 6.10876 21.0157 6.48101 21.0157H23.2236C23.5959 21.0157 23.8987 20.7155 23.8987 20.3465V18.3386C23.8987 17.9695 23.5959 17.6693 23.2236 17.6693H6.48101Z" fill="white"/>
</svg>
