<svg width="12" height="10" viewBox="0 0 12 10" fill="none" xmlns="http://www.w3.org/2000/svg">
<path fill-rule="evenodd" clip-rule="evenodd" d="M1.53924 1.02613C1.25822 1.02613 1.02617 1.25818 1.02617 1.53919V7.69597C1.02617 7.97698 1.25822 8.20903 1.53924 8.20903H9.74827C10.0293 8.20903 10.2613 7.97698 10.2613 7.69597V1.53919C10.2613 1.25818 10.0293 1.02613 9.74827 1.02613H1.53924ZM4.1977e-05 1.53919C4.1977e-05 0.691465 0.691507 0 1.53924 0H9.74827C10.596 0 11.2875 0.691465 11.2875 1.53919V7.69597C11.2875 8.5437 10.596 9.23516 9.74827 9.23516H1.53924C0.691507 9.23516 4.1977e-05 8.5437 4.1977e-05 7.69597V1.53919Z" fill="#292929"/>
<path fill-rule="evenodd" clip-rule="evenodd" d="M0.0927891 1.24496C0.255284 1.01282 0.575198 0.956389 0.807334 1.11888L5.64375 4.50438L10.4802 1.11888C10.7123 0.956389 11.0322 1.01282 11.1947 1.24496C11.3572 1.47709 11.3008 1.79701 11.0686 1.9595L5.93798 5.55096C5.76132 5.67462 5.52619 5.67462 5.34953 5.55096L0.218887 1.9595C-0.013249 1.79701 -0.0697059 1.47709 0.0927891 1.24496Z" fill="#292929"/>
</svg>
