<svg width="34" height="34" viewBox="0 0 34 34" fill="none" xmlns="http://www.w3.org/2000/svg">
<path d="M32.0935 28.8818C33.2571 27.9216 34 26.4691 34 24.8462C34 21.9619 31.6535 19.6154 28.7692 19.6154H24.1623C24.1818 19.4 24.1923 19.182 24.1923 18.9616C24.1923 14.9957 20.9658 11.7692 17 11.7692C13.0342 11.7692 9.80767 14.9957 9.80767 18.9616C9.80767 19.182 9.81823 19.4 9.83769 19.6154H5.23075C2.34653 19.6154 0 21.9619 0 24.8462C0 26.4691 0.742887 27.9216 1.90646 28.8818C1.17679 29.1459 0.653836 29.8456 0.653836 30.6653V32.1038C0.653836 33.1493 1.50443 34 2.55 34H31.45C32.4956 34 33.3462 33.1493 33.3462 32.1038V30.6653C33.3462 29.8456 32.8232 29.1459 32.0935 28.8818ZM23.6829 21.6201C23.6878 21.6077 23.6928 21.5954 23.6977 21.583C23.7563 21.4336 23.8102 21.2819 23.8588 21.1275C23.87 21.0921 23.8808 21.0566 23.8914 21.021C23.9012 20.9883 23.912 20.956 23.9213 20.9231H28.7692C30.9324 20.9231 32.6923 22.683 32.6923 24.8462C32.6923 27.0093 30.9324 28.7692 28.7692 28.7692H20.5962C19.6948 28.7692 18.9616 28.036 18.9616 27.1347C18.9616 26.2333 19.6948 25.5001 20.5962 25.5001H28.7692C29.1304 25.5001 29.4231 25.2073 29.4231 24.8462C29.4231 24.4852 29.1304 24.1924 28.7692 24.1924H21.9311C22.0888 24.0436 22.2397 23.8877 22.3836 23.7253C22.3909 23.7171 22.3982 23.709 22.4054 23.7008C22.4596 23.639 22.5128 23.5765 22.5649 23.5129C22.5806 23.4937 22.5961 23.4742 22.6117 23.4548C22.6479 23.4096 22.6837 23.3638 22.719 23.3178C22.7459 23.2826 22.7724 23.2472 22.7987 23.2116H26.1539C26.515 23.2116 26.8077 22.9188 26.8077 22.5577C26.8077 22.1967 26.515 21.9039 26.1539 21.9039H23.5626C23.6046 21.8103 23.6447 21.7157 23.6829 21.6201ZM17 13.0769C20.2448 13.0769 22.8846 15.7168 22.8846 18.9615C22.8846 19.3841 22.8394 19.7964 22.7544 20.1939C22.7447 20.2394 22.7344 20.2848 22.7236 20.3298C22.7131 20.3739 22.7021 20.4177 22.6906 20.4614C22.6801 20.5012 22.6694 20.5407 22.6582 20.5801C22.6461 20.6224 22.6336 20.6646 22.6206 20.7065C22.6184 20.7134 22.616 20.7205 22.6139 20.7274C22.5871 20.8124 22.5586 20.8965 22.5281 20.9798C22.5271 20.9825 22.5261 20.9852 22.5251 20.988C22.3458 21.4754 22.1035 21.9328 21.8085 22.3502C21.8032 22.3575 21.7981 22.365 21.7929 22.3723C21.759 22.4198 21.7242 22.4666 21.6889 22.5131C21.6672 22.5415 21.6457 22.57 21.6236 22.5979C21.6022 22.6251 21.5804 22.6519 21.5585 22.6787C21.5219 22.7234 21.4849 22.768 21.4469 22.8117C21.4339 22.8266 21.4206 22.8413 21.4074 22.8561C21.3635 22.9056 21.3191 22.9547 21.2736 23.0027C21.2705 23.006 21.2675 23.0094 21.2643 23.0126C20.2966 24.0276 18.9757 24.692 17.5261 24.8225C17.5209 24.8229 17.5157 24.8235 17.5106 24.8239C17.4312 24.8308 17.3512 24.8361 17.271 24.8397C17.2611 24.8402 17.2512 24.8405 17.2413 24.8409C17.1612 24.8442 17.0808 24.8463 17.0001 24.8463C16.9193 24.8463 16.8389 24.8442 16.7588 24.8409C16.7489 24.8405 16.739 24.8402 16.7291 24.8397C16.6489 24.836 16.5691 24.8308 16.4895 24.8239C16.4844 24.8234 16.4792 24.8229 16.4741 24.8225C15.0243 24.6919 13.7032 24.0275 12.7355 23.0123C12.7328 23.0096 12.7302 23.0066 12.7276 23.0039C12.6815 22.9552 12.6365 22.9056 12.5921 22.8554C12.5793 22.8409 12.5663 22.8267 12.5537 22.8121C12.5155 22.7681 12.4782 22.7232 12.4411 22.6781C12.4196 22.6518 12.3982 22.6253 12.3772 22.5987C12.3524 22.5674 12.3283 22.5356 12.304 22.5037C12.2715 22.4607 12.2394 22.4173 12.2081 22.3734C12.202 22.365 12.1962 22.3565 12.1902 22.3481C12.1403 22.2774 12.0916 22.2056 12.0448 22.1327C12.0442 22.1317 12.0436 22.1307 12.0429 22.1298C11.815 21.7744 11.6243 21.393 11.4762 20.9911C11.4746 20.9869 11.473 20.9826 11.4714 20.9783C11.4422 20.8984 11.4148 20.8175 11.3889 20.7359C11.3857 20.7257 11.3823 20.7156 11.3791 20.7053C11.3664 20.6644 11.3541 20.623 11.3423 20.5816C11.3295 20.5369 11.3172 20.4919 11.3054 20.4467C11.2954 20.4086 11.286 20.3702 11.2768 20.3317C11.2657 20.2847 11.2549 20.2376 11.2448 20.19C11.1602 19.7937 11.1153 19.3829 11.1153 18.9616C11.1154 15.7168 13.7552 13.0769 17 13.0769ZM16.1596 26.1045C16.2372 26.1136 16.315 26.1214 16.3933 26.128C16.397 26.1283 16.4007 26.1287 16.4043 26.129C16.4958 26.1365 16.5879 26.1423 16.6804 26.1464C16.6953 26.1471 16.7103 26.1476 16.7253 26.1481C16.8165 26.1516 16.908 26.1539 16.9999 26.1539C17.0919 26.1539 17.1834 26.1516 17.2746 26.1481C17.2895 26.1475 17.3045 26.1471 17.3195 26.1464C17.4119 26.1423 17.504 26.1366 17.5955 26.129C17.5992 26.1287 17.6029 26.1283 17.6066 26.128C17.6849 26.1214 17.7627 26.1135 17.8402 26.1045C17.7199 26.4253 17.6537 26.7723 17.6537 27.1347C17.6537 27.7392 17.8371 28.3014 18.1509 28.7692H15.8488C16.1626 28.3014 16.346 27.7391 16.346 27.1347C16.3462 26.7723 16.2799 26.4252 16.1596 26.1045ZM1.30767 24.8462C1.30767 22.683 3.06757 20.9231 5.23075 20.9231H10.0787C10.0876 20.9546 10.098 20.9854 10.1074 21.0168C10.1186 21.0544 10.1299 21.0919 10.1418 21.1293C10.1562 21.1748 10.1708 21.2204 10.1861 21.2655C10.1874 21.2693 10.1888 21.273 10.1902 21.2769C10.2251 21.3796 10.2624 21.4809 10.3018 21.5812C10.3073 21.5953 10.313 21.6093 10.3185 21.6233C10.3563 21.7179 10.396 21.8114 10.4376 21.9039H7.84616C7.48505 21.9039 7.19233 22.1967 7.19233 22.5577C7.19233 22.9188 7.48505 23.2116 7.84616 23.2116H11.2014C11.2272 23.2466 11.2532 23.2813 11.2796 23.3157C11.3156 23.3629 11.3522 23.4097 11.3893 23.456C11.4044 23.4748 11.4194 23.4936 11.4346 23.5122C11.4871 23.5763 11.5407 23.6393 11.5953 23.7015C11.602 23.7092 11.6088 23.7167 11.6154 23.7243C11.7596 23.8871 11.9108 24.0432 12.0688 24.1924H5.23075C4.86964 24.1924 4.57692 24.4852 4.57692 24.8462C4.57692 25.2073 4.86964 25.5001 5.23075 25.5001H13.4038C14.3052 25.5001 15.0384 26.2333 15.0384 27.1347C15.0384 28.036 14.3052 28.7692 13.4038 28.7692H5.23075C3.06757 28.7692 1.30767 27.0093 1.30767 24.8462ZM32.0385 32.1038C32.0385 32.4284 31.7745 32.6923 31.45 32.6923H2.55C2.22554 32.6923 1.96151 32.4284 1.96151 32.1038V30.6653C1.96151 30.3408 2.22554 30.0769 2.55 30.0769H31.45C31.7745 30.0769 32.0385 30.3408 32.0385 30.6653V32.1038Z" fill="white"/>
<path d="M28.5777 22.0954C28.4561 21.9738 28.2873 21.9038 28.1154 21.9038C27.9434 21.9038 27.7747 21.9738 27.6532 22.0954C27.5316 22.217 27.4616 22.3857 27.4616 22.5577C27.4616 22.7296 27.5316 22.8983 27.6532 23.0199C27.7747 23.1415 27.9435 23.2115 28.1154 23.2115C28.2874 23.2115 28.4561 23.1415 28.5777 23.0199C28.6993 22.8983 28.7692 22.7296 28.7692 22.5577C28.7692 22.3857 28.6993 22.2171 28.5777 22.0954Z" fill="white"/>
<path d="M6.34691 22.0954C6.22532 21.9738 6.05658 21.9038 5.88466 21.9038C5.71273 21.9038 5.54399 21.9738 5.4224 22.0954C5.30081 22.217 5.23082 22.3857 5.23082 22.5577C5.23082 22.7296 5.30081 22.8983 5.4224 23.0199C5.54399 23.1415 5.71273 23.2115 5.88466 23.2115C6.05665 23.2115 6.22532 23.1415 6.34691 23.0199C6.4685 22.8983 6.53849 22.7296 6.53849 22.5577C6.53849 22.3857 6.4685 22.2171 6.34691 22.0954Z" fill="white"/>
<path d="M17.6538 2.074V0.653836C17.6538 0.292785 17.3611 0 17 0C16.6389 0 16.3462 0.292785 16.3462 0.653836V2.074C15.5851 2.34394 15.0385 3.07069 15.0385 3.92308C15.0385 5.00471 15.9184 5.88459 17 5.88459C18.0816 5.88459 18.9615 5.00464 18.9615 3.92308C18.9615 3.07069 18.4149 2.34394 17.6538 2.074ZM17 4.57692C16.6395 4.57692 16.3462 4.2836 16.3462 3.92308C16.3462 3.56256 16.6395 3.26925 17 3.26925C17.3605 3.26925 17.6538 3.56256 17.6538 3.92308C17.6538 4.2836 17.3605 4.57692 17 4.57692Z" fill="white"/>
<path d="M21.4459 8.76157C21.2291 8.47284 20.8192 8.4146 20.5304 8.63148C19.506 9.40093 18.2852 9.80767 17 9.80767C15.7147 9.80767 14.4939 9.40093 13.4694 8.63142C13.1806 8.41454 12.7708 8.47271 12.5539 8.76144C12.337 9.05018 12.3952 9.4601 12.6839 9.67692C13.9367 10.618 15.4292 11.1154 16.9999 11.1154C18.5706 11.1154 20.063 10.6181 21.3157 9.67712C21.6045 9.46023 21.6628 9.05037 21.4459 8.76157Z" fill="white"/>
<path d="M20.36 6.0514C20.0909 5.81061 19.6776 5.83339 19.4367 6.10254C18.8169 6.79509 17.9287 7.19233 16.9999 7.19233C16.0712 7.19233 15.1829 6.79509 14.563 6.1024C14.3222 5.83332 13.9089 5.81041 13.6397 6.05127C13.3706 6.29206 13.3477 6.70544 13.5886 6.97452C14.4563 7.94398 15.6998 8.5 17 8.5C18.3002 8.5 19.5436 7.94405 20.4112 6.97465C20.6521 6.70557 20.6291 6.29219 20.36 6.0514Z" fill="white"/>
</svg>
