<svg width="164" height="135" viewBox="0 0 164 135" fill="none" xmlns="http://www.w3.org/2000/svg">
<path d="M82.0001 0C44.644 0 14.3608 30.8058 14.3608 68.8063C14.3608 76.062 15.4648 83.0553 17.5112 89.6218H146.489C148.535 83.0553 149.639 76.062 149.639 68.8063C149.639 30.8058 119.356 0 82.0001 0Z" fill="#62331B"/>
<path d="M21.2646 70.3363C21.2646 75.3208 21.8604 80.1653 22.9839 84.8006H139.889C141.012 80.1653 141.608 75.3208 141.608 70.3363C141.608 60.3764 139.23 50.9769 135.014 42.684L125.093 50.4834L132.545 38.288C121.922 21.0893 103.005 9.64307 81.4364 9.64307C63.5251 9.64307 47.4419 17.5367 36.4191 30.0632L46.2525 42.684L31.0459 37.1536C24.8607 46.6901 21.2646 58.0896 21.2646 70.3363Z" fill="#E3B060"/>
<path opacity="0.5" d="M29.8677 86.7859C27.8307 81.152 26.7217 75.0846 26.7217 68.7623C26.7217 57.6923 30.1219 47.4042 35.9497 38.8553M132.718 86.7859C134.754 81.152 135.864 75.0846 135.864 68.7623C135.864 60.6045 134.017 52.8712 130.713 45.9456M39.6511 34.0338C49.6611 22.4096 64.6018 15.0317 81.2927 15.0317C102.113 15.0317 120.209 26.5116 129.41 43.3931" stroke="white" stroke-width="0.981118"/>
<path opacity="0.5" d="M38.5286 83.9494C36.8348 79.2508 35.9126 74.1905 35.9126 68.9179C35.9126 58.8941 39.2454 49.6392 44.8766 42.1745M124.056 83.9494C125.75 79.2508 126.673 74.1905 126.673 68.9179C126.673 44.1695 106.355 24.1069 81.2926 24.1069C66.6662 24.1069 53.6562 30.9397 45.3571 41.5492" stroke="white" stroke-width="0.981118"/>
<path d="M96.43 23.9017C96.43 25.4439 98.1286 26.0046 98.9779 26.0923C100.434 26.0923 100.616 24.6903 100.616 23.6389C100.616 22.7977 101.162 22.4706 101.435 22.4122C102.284 22.0909 103.983 21.0628 103.983 19.5207C103.983 17.5931 101.799 15.3149 99.3418 15.3149C94.9738 15.3149 94.792 18.4693 94.792 19.8712C94.792 21.2731 96.43 22.3246 96.43 23.9017Z" fill="#E3B060" stroke="#62331B" stroke-width="1.47168"/>
<path d="M93.6431 35.4517L58.4592 25.9507C58.4592 25.9507 73.6009 38.9149 83.3034 47.2217L125.811 54.4538L104.845 38.7133M93.6431 35.4517V29.7795H99.2438M93.6431 35.4517V40.8404L99.2438 45.8178M104.845 38.7133V29.7795H99.2438M104.845 38.7133L102.116 42.3294L99.3874 45.9454L99.2438 45.8178M99.2438 29.7795V45.8178M41.0827 85.2259V57.0064H36.6309L59.3209 30.9139L61.475 33.041L41.2263 57.0064H44.6729V85.2259H41.0827Z" stroke="#62331B" stroke-width="1.71696" stroke-linejoin="round"/>
<path d="M121.647 84.8002V56.8643L79.4262 50.9084M79.4262 48.0723V61.3423V72.1794V84.8002V48.0723ZM55.8745 80.2624V62.1111L65.7834 61.7878V72.1794V80.2624H55.8745ZM90.6276 60.9767V72.1794H82.4419V61.2626L90.6276 60.9767ZM76.2668 61.4361V72.1794H68.9428V61.7314L76.2668 61.4361Z" stroke="#62331B" stroke-width="1.71696" stroke-linejoin="round"/>
<path d="M142.746 84.2332H81.5693V132.731C84.7287 132.731 108.28 133.015 120.343 134.716C129.994 136.078 131.832 127.91 131.545 123.655C134.8 123.75 137.749 124.336 146.48 125.924C155.211 127.513 158.543 124.128 159.117 122.237C160.075 118.645 162.334 108.851 163.713 98.4138C164.172 84.5735 149.927 83.1931 142.746 84.2332Z" fill="#62331B"/>
<path d="M20.9776 84.2332H82.1545V132.731C78.9952 132.731 55.4435 133.015 43.3804 134.716C33.73 136.078 31.8918 127.91 32.179 123.655C28.9237 123.75 25.9751 124.336 17.2437 125.924C8.51238 127.513 5.18068 124.128 4.60625 122.237C3.64887 118.645 1.38944 108.851 0.0108552 98.4138C-0.448691 84.5735 13.7972 83.1931 20.9776 84.2332Z" fill="#62331B"/>
<path d="M144.67 88.3456L81.77 87.0693V117.841C112.358 117.841 129.304 119.827 142.516 121.67C153.086 123.145 155.632 119.732 155.584 117.841C156.302 114.674 157.94 106.525 158.744 98.1303C159.548 89.7353 149.696 88.1093 144.67 88.3456Z" fill="#E3B060"/>
<path d="M19.0135 88.3456L81.9137 87.0693V117.841C51.3252 117.841 34.3795 119.827 21.1676 121.67C10.5981 123.145 8.05149 119.732 8.09934 117.841C7.3813 114.674 5.74415 106.525 4.93994 98.1303C4.13574 89.7353 13.9872 88.1093 19.0135 88.3456Z" fill="#E3B060"/>
<path d="M24.1406 111.209C24.6288 110.982 25.0596 110.699 25.433 110.358C25.7777 110.046 26.0649 109.706 26.3234 109.309C26.5532 108.912 26.7829 108.487 26.9553 108.004C26.6968 107.891 26.467 107.806 26.2085 107.692C25.8351 108.543 25.3756 109.196 24.8586 109.678C24.3416 110.132 23.7097 110.415 22.963 110.529C22.446 110.585 21.9864 110.585 21.5269 110.444C21.0961 110.33 20.6653 110.075 20.3206 109.734C19.9759 109.394 19.66 108.94 19.4015 108.345C19.143 107.749 18.942 107.04 18.7984 106.161C18.5686 104.629 18.6547 103.41 19.0568 102.474C19.4589 101.538 20.177 101.028 21.1822 100.857C21.9864 100.744 22.7332 100.942 23.3651 101.425C23.997 101.907 24.6288 102.758 25.1745 103.92C25.4043 103.892 25.6341 103.864 25.8926 103.835C25.6915 102.502 25.4905 101.198 25.2894 99.8647C25.0596 99.8931 24.8299 99.9215 24.5714 99.9498C24.4278 100.12 24.2842 100.29 24.1118 100.432C23.7385 100.29 23.2502 100.177 22.7045 100.12C22.1588 100.035 21.5556 100.063 20.9237 100.148C20.0334 100.262 19.2292 100.545 18.5111 100.942C17.7931 101.34 17.1899 101.85 16.7017 102.446C16.2134 103.07 15.8975 103.75 15.6964 104.516C15.4954 105.282 15.4667 106.076 15.6103 106.927C15.7539 107.778 16.0124 108.543 16.4432 109.196C16.8453 109.848 17.3623 110.387 17.9654 110.784C18.5686 111.181 19.2579 111.465 20.0047 111.635C20.7514 111.777 21.5556 111.805 22.3598 111.691C23.0779 111.606 23.6523 111.436 24.1406 111.209Z" fill="#62331B"/>
<path d="M35.3991 102.02C32.4695 102.332 29.5399 102.672 26.6104 103.069C26.7252 103.977 26.8401 104.885 26.955 105.764C27.1273 105.735 27.2997 105.707 27.472 105.707C27.5007 105.594 27.5582 105.423 27.6156 105.196C27.673 104.97 27.7879 104.743 27.9028 104.487C28.0177 104.261 28.1613 104.062 28.3049 103.864C28.4485 103.665 28.6209 103.552 28.8219 103.523C28.9655 103.495 29.1091 103.466 29.224 103.438C29.3389 103.41 29.5112 103.381 29.7697 103.353C29.9995 105.196 30.2292 107.04 30.459 108.883C30.4877 109.082 30.459 109.224 30.4303 109.366C30.3728 109.479 30.2867 109.593 30.1143 109.678C30.0282 109.706 29.9133 109.763 29.741 109.791C29.5974 109.819 29.4538 109.876 29.3101 109.876C29.3389 110.075 29.3676 110.245 29.3676 110.443C31.0622 110.245 32.7567 110.018 34.4513 109.848C34.4226 109.649 34.3939 109.479 34.3939 109.281C34.2215 109.281 34.0779 109.281 33.963 109.281C33.8481 109.281 33.7333 109.252 33.5897 109.252C33.4173 109.224 33.3024 109.139 33.2163 109.025C33.1301 108.912 33.0727 108.742 33.0727 108.571C32.8429 106.728 32.6418 104.885 32.4121 103.041C32.6131 103.013 32.7855 103.013 32.9291 102.984C33.0727 102.984 33.2163 102.956 33.3599 102.956C33.5609 102.956 33.7333 103.041 33.9343 103.183C34.1354 103.325 34.3077 103.495 34.48 103.693C34.6524 103.892 34.796 104.09 34.9108 104.289C35.0257 104.487 35.1119 104.629 35.1693 104.771C35.3417 104.743 35.514 104.743 35.6863 104.714C35.6002 103.835 35.514 102.928 35.3991 102.02Z" fill="#62331B"/>
<path d="M44.9347 102.02C44.2167 101.311 43.2976 101.027 42.2061 101.112C41.7753 101.141 41.3732 101.282 40.9424 101.509C40.5403 101.736 40.1669 102.048 39.851 102.417C39.8223 102.417 39.7935 102.417 39.7935 102.417C39.7648 102.133 39.7361 101.85 39.7074 101.566C39.6499 101.538 39.6212 101.509 39.5638 101.481C38.2426 101.68 36.9501 101.878 35.6289 102.077C35.6576 102.275 35.6576 102.445 35.6863 102.644C35.8587 102.644 36.031 102.644 36.2321 102.672C36.4044 102.701 36.5767 102.729 36.6916 102.786C36.8352 102.871 36.9788 102.984 37.0363 103.098C37.1224 103.211 37.1799 103.353 37.2086 103.523C37.4958 106.161 37.783 108.77 38.0415 111.407C38.0702 111.578 38.0415 111.748 38.0128 111.89C37.9554 112.031 37.8692 112.145 37.6969 112.202C37.6107 112.23 37.4671 112.287 37.266 112.343C37.065 112.4 36.8927 112.428 36.7778 112.457C36.8065 112.655 36.8065 112.826 36.8352 113.024C38.7308 112.826 40.6265 112.627 42.5221 112.457C42.4934 112.258 42.4934 112.088 42.4646 111.89C42.2923 111.89 42.0625 111.89 41.804 111.861C41.5455 111.833 41.3445 111.805 41.1722 111.776C41.0286 111.719 40.885 111.634 40.7988 111.521C40.7126 111.407 40.6552 111.237 40.6265 111.067C40.5403 110.358 40.4828 109.621 40.3967 108.912C40.4254 108.912 40.4254 108.912 40.4541 108.912C40.6839 109.025 40.9424 109.139 41.2871 109.195C41.603 109.252 42.0338 109.28 42.5508 109.224C43.6997 109.11 44.59 108.656 45.2793 107.806C45.9687 106.955 46.2559 105.99 46.1697 104.913C46.0548 103.693 45.6527 102.729 44.9347 102.02ZM43.0391 107.664C42.7806 108.231 42.3785 108.543 41.8615 108.6C41.6604 108.628 41.4594 108.6 41.2871 108.543C41.1147 108.486 40.9424 108.401 40.7988 108.288C40.7126 108.203 40.5977 108.089 40.4828 107.919C40.368 107.777 40.3105 107.635 40.2531 107.55C40.1095 106.104 39.9659 104.629 39.8223 103.183C39.9659 102.984 40.1382 102.814 40.3105 102.672C40.5116 102.53 40.7701 102.445 41.1434 102.417C41.4881 102.389 41.7753 102.445 42.0338 102.587C42.2923 102.729 42.4934 102.927 42.6657 103.211C42.838 103.466 42.9816 103.778 43.0678 104.119C43.154 104.459 43.2114 104.828 43.2688 105.225C43.3837 106.274 43.2976 107.097 43.0391 107.664Z" fill="#62331B"/>
<path d="M53.6663 100.517C53.0918 100.346 52.4025 100.29 51.6558 100.346C50.9377 100.403 50.2771 100.545 49.7027 100.8C49.1283 101.056 48.6687 101.367 48.2953 101.765C47.922 102.162 47.6348 102.615 47.4624 103.126C47.2901 103.636 47.2327 104.175 47.2901 104.799C47.3475 105.423 47.5199 105.99 47.7784 106.473C48.0656 106.955 48.4102 107.352 48.8411 107.664C49.3006 108.004 49.7889 108.231 50.3633 108.373C50.909 108.515 51.5122 108.571 52.1728 108.515C52.9195 108.458 53.5801 108.316 54.1545 108.061C54.729 107.806 55.1885 107.494 55.5906 107.068C55.964 106.671 56.2225 106.217 56.3948 105.707C56.5672 105.196 56.6246 104.629 56.5959 104.062C56.5672 103.495 56.4235 102.956 56.1938 102.474C55.964 101.991 55.6193 101.594 55.1885 101.254C54.7577 100.914 54.2407 100.658 53.6663 100.517ZM53.0057 107.55C52.7759 107.749 52.5174 107.834 52.2015 107.862C51.8568 107.891 51.5409 107.806 51.3111 107.635C51.0813 107.465 50.8803 107.238 50.7367 106.926C50.5644 106.558 50.4495 106.189 50.392 105.849C50.3346 105.48 50.2771 105.026 50.2197 104.459C50.191 104.033 50.191 103.608 50.191 103.211C50.191 102.814 50.2484 102.474 50.3346 102.162C50.4207 101.821 50.5931 101.566 50.7941 101.339C50.9952 101.112 51.3111 100.999 51.6845 100.97C52.0291 100.942 52.3451 101.027 52.5749 101.197C52.8046 101.367 53.0057 101.623 53.178 101.935C53.2929 102.19 53.4078 102.559 53.4939 103.012C53.5801 103.466 53.6376 103.892 53.6663 104.232C53.695 104.771 53.695 105.253 53.695 105.678C53.6663 106.104 53.6088 106.444 53.4939 106.756C53.3791 107.096 53.2355 107.352 53.0057 107.55Z" fill="#62331B"/>
<path d="M68.6016 106.841C68.4292 106.841 68.2856 106.841 68.1995 106.813C68.1133 106.813 67.9984 106.785 67.8548 106.756C67.6825 106.728 67.5676 106.643 67.5102 106.501C67.4527 106.388 67.3953 106.217 67.3953 106.047C67.3378 104.431 67.2804 102.814 67.2229 101.169C67.2229 100.971 67.2517 100.8 67.3091 100.687C67.3665 100.574 67.4814 100.488 67.6538 100.432C67.7687 100.403 67.9123 100.375 67.9984 100.347C68.1133 100.318 68.2282 100.318 68.4005 100.29C68.4005 100.091 68.4005 99.9213 68.3718 99.7227C66.7347 99.7795 65.0975 99.8362 63.4604 99.9213C63.4604 100.12 63.4891 100.29 63.4891 100.488C63.5753 100.488 63.7189 100.517 63.8625 100.517C64.0061 100.517 64.121 100.574 64.2359 100.602C64.3795 100.659 64.4657 100.744 64.5231 100.857C64.5806 100.971 64.6093 101.112 64.6093 101.311V101.339C63.5753 102.616 62.57 103.863 61.5648 105.14C61.5074 103.92 61.4499 102.701 61.3925 101.481C61.3925 101.311 61.3925 101.169 61.4499 101.027C61.5073 100.914 61.5935 100.8 61.7084 100.715C61.8233 100.659 61.9382 100.602 62.0531 100.574C62.1679 100.545 62.2828 100.517 62.3977 100.488C62.3977 100.29 62.369 100.12 62.369 99.9213C60.7319 100.006 59.0947 100.091 57.4863 100.177C57.4863 100.375 57.5151 100.545 57.5151 100.744C57.6587 100.744 57.7735 100.744 57.8884 100.744C58.0033 100.744 58.1469 100.772 58.2905 100.8C58.4629 100.829 58.5777 100.914 58.6639 101.056C58.7501 101.169 58.7788 101.339 58.7788 101.509C58.865 103.126 58.9511 104.743 59.066 106.359C59.066 106.558 59.066 106.7 59.0086 106.841C58.9511 106.955 58.8362 107.068 58.6639 107.125C58.5777 107.153 58.4629 107.182 58.3193 107.21C58.1756 107.238 58.0608 107.267 57.9172 107.267C57.9172 107.465 57.9459 107.636 57.9459 107.834C59.5543 107.749 61.1627 107.664 62.7424 107.579C62.7424 107.38 62.7137 107.21 62.7137 107.012C62.57 107.012 62.4552 106.983 62.3116 106.983C62.1679 106.955 62.0818 106.927 61.9956 106.898C61.852 106.841 61.7658 106.756 61.7084 106.643C61.651 106.529 61.6222 106.388 61.6222 106.189V106.161C62.6275 104.884 63.6327 103.608 64.6667 102.36C64.7242 103.58 64.7816 104.799 64.8103 106.019C64.8103 106.217 64.8103 106.388 64.7529 106.473C64.6954 106.586 64.6093 106.671 64.4944 106.756C64.3795 106.813 64.2646 106.87 64.1497 106.898C64.0061 106.927 63.92 106.955 63.8051 106.983C63.8051 107.182 63.8338 107.352 63.8338 107.55C65.4422 107.494 67.0506 107.409 68.6303 107.352C68.6016 107.21 68.6016 107.012 68.6016 106.841ZM65.7007 95.8372C65.4996 95.6671 65.2699 95.5536 64.9827 95.582C64.638 95.582 64.3795 95.6954 64.1785 95.8939C63.9774 96.0925 63.8912 96.291 63.8912 96.5179C63.8912 96.7164 63.9487 96.8866 64.0348 97.0851C64.121 97.2837 64.2072 97.4255 64.2933 97.5673C64.0923 97.7374 63.8338 97.8792 63.5466 97.9643C63.2594 98.0494 63.0009 98.1061 62.7998 98.1061C62.57 98.1061 62.3403 98.0778 62.0531 98.021C61.7658 97.9643 61.5074 97.8509 61.2776 97.6807C61.335 97.5673 61.3925 97.3971 61.4786 97.1702C61.5648 96.915 61.5935 96.7448 61.5935 96.603C61.5935 96.3194 61.4499 96.1208 61.2201 95.979C60.9904 95.8372 60.7031 95.7805 60.4159 95.7805C60.1287 95.7805 59.8989 95.894 59.7266 96.0925C59.5543 96.291 59.4681 96.5463 59.4968 96.8015C59.4968 96.9717 59.583 97.1986 59.6979 97.4255C59.8128 97.6524 60.0138 97.8509 60.2723 98.0494C60.5308 98.2479 60.8755 98.3897 61.3063 98.5032C61.7371 98.6166 62.2541 98.6734 62.8573 98.645C63.4317 98.6166 63.9487 98.5316 64.3508 98.3898C64.7529 98.2479 65.0975 98.0494 65.3848 97.8225C65.6433 97.624 65.8156 97.3971 65.9017 97.1419C65.9879 96.8866 66.0454 96.6881 66.0454 96.5179C65.9879 96.2343 65.9017 96.0074 65.7007 95.8372Z" fill="#62331B"/>
<path d="M82.3306 106.558C82.2157 106.558 82.0721 106.529 81.8998 106.501C81.7274 106.473 81.5838 106.444 81.4402 106.416C81.3253 106.388 81.2104 106.331 81.0381 106.217C80.8945 106.104 80.7222 105.877 80.5499 105.565C80.435 105.338 80.3201 105.083 80.1765 104.771C80.0329 104.459 79.8893 104.175 79.7456 103.892C79.4297 103.268 79.0276 102.729 78.5393 102.304C78.0511 101.878 77.4192 101.566 76.6437 101.368C76.6437 101.311 76.6437 101.283 76.6437 101.226C76.9022 101.056 77.132 100.829 77.333 100.545C77.5341 100.29 77.7351 99.8929 77.9362 99.3824C78.0224 99.1271 78.1372 98.8435 78.2521 98.5032C78.367 98.1628 78.5106 97.9076 78.683 97.7658C79.0276 98.1628 79.3148 98.4464 79.5733 98.5882C79.8318 98.73 80.0616 98.8151 80.3488 98.7868C80.7509 98.7868 81.0956 98.645 81.3541 98.4181C81.6125 98.1628 81.7562 97.8225 81.7562 97.3687C81.7562 96.9716 81.5838 96.6313 81.2679 96.3761C80.952 96.1208 80.5211 95.979 79.9754 95.979C79.6308 95.979 79.3435 96.0357 79.0563 96.1492C78.7691 96.2626 78.5393 96.4044 78.367 96.5746C77.9936 96.9433 77.7351 97.2553 77.5915 97.5672C77.4766 97.8792 77.333 98.2479 77.1607 98.6733C77.0171 99.0704 76.8735 99.4675 76.6725 99.8361C76.4714 100.205 76.1842 100.602 75.8108 100.971C75.6385 101.141 75.4087 101.283 75.1789 101.339C74.9492 101.396 74.7194 101.424 74.5183 101.453C74.346 101.453 74.1737 101.453 74.0013 101.453C73.9726 100.233 73.9439 99.0137 73.9152 97.7941C73.9152 97.624 73.9439 97.4821 74.0013 97.312C74.0588 97.1702 74.2024 97.0567 74.4034 96.9717C74.5183 96.9433 74.7194 96.8866 74.9492 96.8582C75.1789 96.8015 75.38 96.7731 75.5523 96.7731C75.5523 96.5746 75.5523 96.3761 75.5523 96.1775C73.4556 96.2059 71.359 96.2626 69.291 96.3193C69.291 96.5179 69.291 96.7164 69.3197 96.9149C69.4346 96.9149 69.607 96.9433 69.8654 97C70.1239 97.0567 70.325 97.1135 70.4973 97.1702C70.6984 97.2553 70.842 97.3687 70.9281 97.4822C70.9856 97.5956 71.043 97.7658 71.043 97.9359C71.1005 100.517 71.1866 103.126 71.2441 105.707C71.2441 105.905 71.2154 106.047 71.1579 106.189C71.1005 106.331 70.9569 106.444 70.7558 106.501C70.6409 106.558 70.4399 106.586 70.2101 106.615C69.9516 106.643 69.7506 106.671 69.6357 106.671C69.6357 106.87 69.6357 107.068 69.6644 107.267C71.7036 107.21 73.7429 107.153 75.7821 107.125C75.7821 106.926 75.7821 106.728 75.7821 106.529C75.6385 106.529 75.4374 106.501 75.1789 106.444C74.9204 106.416 74.7481 106.359 74.6619 106.331C74.4609 106.246 74.346 106.161 74.2598 106.019C74.1737 105.877 74.145 105.735 74.145 105.537C74.1162 104.402 74.0875 103.268 74.0875 102.133C74.4896 102.133 74.8343 102.162 75.1215 102.247C75.4087 102.332 75.6672 102.445 75.8682 102.616C76.098 102.786 76.2703 102.984 76.4139 103.211C76.5576 103.438 76.7299 103.722 76.8735 104.062C77.0745 104.516 77.3043 104.998 77.4766 105.537C77.6777 106.076 77.85 106.586 78.0511 107.125C79.4872 107.097 80.952 107.097 82.388 107.097C82.3306 106.955 82.3306 106.756 82.3306 106.558Z" fill="#62331B"/>
<path d="M89.396 99.6093C88.8216 99.4108 88.161 99.2974 87.3855 99.2974C86.6675 99.2974 86.0069 99.3824 85.4038 99.581C84.8293 99.7795 84.3123 100.063 83.9102 100.403C83.4794 100.772 83.1922 101.198 82.9624 101.68C82.7614 102.162 82.6465 102.701 82.6465 103.325C82.6465 103.949 82.7614 104.516 82.9911 105.026C83.2209 105.537 83.5369 105.962 83.939 106.303C84.3698 106.671 84.8293 106.927 85.375 107.125C85.9207 107.295 86.5239 107.409 87.1558 107.409C87.9025 107.409 88.5631 107.324 89.1663 107.125C89.7407 106.927 90.2577 106.643 90.6885 106.246C91.0906 105.906 91.4066 105.452 91.6076 104.97C91.8374 104.459 91.9523 103.92 91.9523 103.353C91.9523 102.786 91.8661 102.247 91.665 101.736C91.464 101.226 91.1768 100.801 90.7747 100.432C90.4587 100.091 89.9705 99.8079 89.396 99.6093ZM88.161 106.558C87.9313 106.728 87.644 106.813 87.3281 106.813C86.9834 106.813 86.6962 106.7 86.4664 106.53C86.2367 106.331 86.0643 106.076 85.9495 105.764C85.8059 105.395 85.7197 105.026 85.691 104.658C85.6622 104.289 85.6335 103.835 85.6335 103.268C85.6335 102.843 85.6623 102.417 85.7197 102.02C85.7771 101.623 85.8346 101.283 85.9495 100.999C86.0643 100.687 86.2654 100.432 86.4952 100.233C86.7249 100.035 87.0409 99.9497 87.4143 99.9497C87.7589 99.9497 88.0461 100.063 88.2759 100.233C88.5057 100.432 88.678 100.687 88.7929 100.999C88.9078 101.283 88.9652 101.651 89.0227 102.105C89.0801 102.559 89.0801 102.984 89.0801 103.353C89.0801 103.892 89.0227 104.374 88.9652 104.799C88.9078 105.225 88.8216 105.565 88.678 105.849C88.5918 106.132 88.3908 106.388 88.161 106.558Z" fill="#62331B"/>
<path d="M105.135 107.182C104.963 107.154 104.819 107.153 104.733 107.125C104.647 107.097 104.532 107.068 104.388 107.04C104.216 106.983 104.101 106.898 104.044 106.756C103.986 106.615 103.958 106.473 103.958 106.274C104.044 104.658 104.13 103.041 104.187 101.425C104.187 101.226 104.245 101.084 104.331 100.942C104.417 100.829 104.532 100.744 104.676 100.715C104.819 100.687 104.934 100.659 105.049 100.659C105.164 100.659 105.308 100.63 105.451 100.63C105.451 100.432 105.48 100.262 105.48 100.063C103.958 99.9781 102.464 99.9213 100.942 99.8646C100.942 99.9213 100.913 100.063 100.856 100.262C100.798 100.46 100.741 100.659 100.655 100.857C100.166 102.02 99.6781 103.183 99.1899 104.346C98.7303 102.814 98.2421 101.283 97.7538 99.7512C96.2028 99.6945 94.6806 99.6661 93.1296 99.6094C93.1296 99.8079 93.1296 99.9781 93.1296 100.177C93.2445 100.205 93.3594 100.205 93.503 100.233C93.6179 100.262 93.7615 100.29 93.9051 100.375C94.0487 100.432 94.1636 100.545 94.2498 100.659C94.3359 100.801 94.3646 100.942 94.3359 101.141C94.3072 102.672 94.2498 104.204 94.221 105.735C94.221 105.991 94.1636 106.218 94.1061 106.359C94.0487 106.501 93.9338 106.615 93.7615 106.643C93.6753 106.671 93.5604 106.7 93.4168 106.7C93.2732 106.7 93.1583 106.728 93.0435 106.728C93.0435 106.927 93.0435 107.097 93.0435 107.295C94.1062 107.324 95.1688 107.352 96.2315 107.38C96.2315 107.182 96.2315 107.012 96.2603 106.813C96.1167 106.785 95.973 106.785 95.8582 106.756C95.7146 106.728 95.5997 106.671 95.4848 106.643C95.3412 106.586 95.2263 106.473 95.1688 106.303C95.1114 106.161 95.0827 105.934 95.0827 105.679C95.1401 104.034 95.1688 102.389 95.2263 100.744C95.3125 100.744 95.3986 100.744 95.4848 100.744C96.2028 102.928 96.9209 105.111 97.6102 107.295C97.9836 107.295 98.3282 107.324 98.7016 107.324C99.592 105.197 100.482 103.069 101.401 100.971C101.488 100.971 101.545 100.971 101.631 100.971C101.545 102.701 101.488 104.402 101.401 106.132C101.401 106.331 101.344 106.473 101.287 106.586C101.229 106.7 101.085 106.785 100.913 106.842C100.827 106.87 100.712 106.898 100.568 106.898C100.425 106.898 100.31 106.927 100.166 106.927C100.166 107.125 100.138 107.295 100.138 107.494C101.804 107.551 103.441 107.636 105.106 107.721C105.135 107.551 105.135 107.352 105.135 107.182Z" fill="#62331B"/>
<path d="M118.836 101.878C118.204 101.113 117.313 100.687 116.136 100.602C115.877 100.574 115.619 100.602 115.303 100.659C115.016 100.716 114.786 100.772 114.614 100.829C114.585 100.829 114.585 100.829 114.556 100.829C114.642 99.5811 114.728 98.3048 114.843 97.0569C114.815 97.0002 114.757 96.9718 114.728 96.9151C113.379 96.8868 112.029 96.8584 110.707 96.8584C110.707 97.0569 110.679 97.2271 110.679 97.4256C110.851 97.454 111.023 97.4823 111.224 97.5391C111.425 97.5958 111.569 97.6525 111.684 97.7376C111.828 97.851 111.942 97.9928 112 98.163C112.057 98.3332 112.086 98.5317 112.086 98.7019C112.029 99.3542 112 100.007 111.942 100.659C111.914 100.659 111.914 100.659 111.885 100.659C111.684 100.574 111.483 100.46 111.253 100.375C111.023 100.29 110.736 100.233 110.42 100.205C109.271 100.12 108.324 100.46 107.577 101.141C106.83 101.85 106.428 102.786 106.37 103.977C106.313 105.14 106.6 106.133 107.261 106.898C107.921 107.664 108.812 108.089 109.932 108.146C110.277 108.175 110.564 108.146 110.765 108.089C110.966 108.033 111.196 107.976 111.425 107.891C111.454 107.891 111.454 107.891 111.483 107.891C111.425 108.628 111.397 109.337 111.339 110.075C111.339 110.245 111.282 110.415 111.224 110.529C111.167 110.67 111.023 110.755 110.851 110.784C110.736 110.812 110.593 110.841 110.363 110.841C110.162 110.869 109.961 110.869 109.846 110.869C109.846 111.067 109.817 111.238 109.817 111.436C111.626 111.55 113.436 111.663 115.245 111.805C115.274 111.606 115.274 111.436 115.303 111.238C115.131 111.209 114.929 111.181 114.757 111.153C114.585 111.124 114.441 111.067 114.298 111.039C114.125 110.982 114.039 110.869 113.982 110.755C113.924 110.614 113.895 110.443 113.924 110.273C113.982 109.536 114.039 108.827 114.097 108.089C114.125 108.089 114.125 108.089 114.154 108.089C114.298 108.175 114.499 108.26 114.757 108.345C115.016 108.458 115.274 108.515 115.59 108.543C116.71 108.628 117.658 108.316 118.405 107.636C119.152 106.927 119.582 106.019 119.697 104.828C119.726 103.637 119.467 102.644 118.836 101.878ZM116.193 107.097C115.877 107.579 115.475 107.806 114.958 107.778C114.728 107.749 114.556 107.721 114.441 107.636C114.298 107.551 114.183 107.466 114.097 107.352C114.24 105.424 114.384 103.495 114.527 101.595C114.671 101.481 114.815 101.396 114.929 101.339C115.044 101.283 115.245 101.254 115.446 101.283C115.963 101.311 116.337 101.595 116.567 102.105C116.796 102.616 116.854 103.438 116.768 104.629C116.71 105.764 116.509 106.615 116.193 107.097ZM111.109 107.409C110.966 107.466 110.794 107.494 110.593 107.494C110.076 107.466 109.702 107.182 109.472 106.671C109.243 106.161 109.156 105.31 109.243 104.176C109.329 102.984 109.501 102.162 109.817 101.651C110.104 101.169 110.535 100.942 111.052 100.971C111.253 100.971 111.425 101.028 111.569 101.113C111.713 101.198 111.828 101.283 111.942 101.425C111.799 103.353 111.684 105.282 111.54 107.182C111.397 107.239 111.282 107.324 111.109 107.409Z" fill="#62331B"/>
<path d="M127.768 101.85C127.222 101.595 126.562 101.424 125.815 101.339C125.097 101.283 124.436 101.311 123.833 101.453C123.23 101.595 122.713 101.822 122.282 102.162C121.823 102.502 121.478 102.899 121.248 103.353C120.99 103.807 120.846 104.346 120.789 104.97C120.731 105.594 120.789 106.189 120.99 106.7C121.191 107.239 121.449 107.692 121.823 108.061C122.196 108.458 122.656 108.77 123.201 108.997C123.718 109.224 124.321 109.366 124.953 109.451C125.7 109.536 126.361 109.479 126.964 109.337C127.567 109.195 128.084 108.94 128.544 108.6C128.974 108.288 129.319 107.891 129.577 107.409C129.836 106.927 130.008 106.388 130.066 105.82C130.123 105.253 130.094 104.686 129.922 104.176C129.779 103.665 129.52 103.211 129.147 102.814C128.802 102.445 128.342 102.105 127.768 101.85ZM125.93 108.685C125.671 108.827 125.413 108.884 125.097 108.855C124.752 108.827 124.465 108.713 124.264 108.486C124.063 108.288 123.891 108.004 123.804 107.692C123.69 107.295 123.632 106.927 123.632 106.558C123.632 106.189 123.661 105.707 123.718 105.168C123.747 104.743 123.833 104.346 123.891 103.949C123.977 103.552 124.092 103.211 124.235 102.928C124.379 102.616 124.58 102.389 124.838 102.19C125.097 102.02 125.413 101.935 125.786 101.992C126.131 102.02 126.418 102.134 126.619 102.36C126.82 102.559 126.993 102.843 127.079 103.183C127.165 103.467 127.194 103.835 127.194 104.289C127.194 104.771 127.194 105.168 127.136 105.537C127.079 106.076 126.993 106.558 126.906 106.955C126.82 107.352 126.677 107.692 126.533 107.976C126.361 108.288 126.16 108.515 125.93 108.685Z" fill="#62331B"/>
<path d="M140.262 104.176C139.716 103.353 138.883 102.843 137.792 102.701C137.361 102.644 136.93 102.701 136.47 102.814C136.011 102.956 135.58 103.183 135.178 103.467C135.149 103.467 135.149 103.438 135.12 103.438C135.149 103.155 135.178 102.871 135.235 102.587C135.207 102.559 135.149 102.502 135.12 102.474C133.799 102.389 132.478 102.304 131.157 102.219C131.128 102.417 131.128 102.587 131.099 102.786C131.272 102.814 131.444 102.871 131.616 102.928C131.789 102.985 131.932 103.07 132.019 103.155C132.162 103.268 132.248 103.382 132.306 103.523C132.363 103.665 132.392 103.807 132.392 103.977C132.076 106.615 131.789 109.224 131.473 111.862C131.444 112.032 131.415 112.202 131.329 112.315C131.243 112.457 131.128 112.514 130.956 112.571C130.841 112.599 130.697 112.599 130.496 112.599C130.295 112.599 130.123 112.599 129.979 112.599C129.951 112.798 129.951 112.968 129.922 113.166C131.817 113.365 133.713 113.592 135.609 113.819C135.637 113.62 135.666 113.45 135.695 113.251C135.523 113.223 135.322 113.166 135.063 113.081C134.805 112.996 134.603 112.939 134.489 112.854C134.345 112.769 134.259 112.656 134.173 112.514C134.115 112.372 134.087 112.202 134.115 112.032C134.201 111.323 134.288 110.585 134.374 109.876C134.402 109.876 134.402 109.876 134.431 109.876C134.632 110.046 134.862 110.188 135.178 110.33C135.494 110.472 135.896 110.557 136.384 110.642C137.533 110.784 138.51 110.529 139.371 109.848C140.233 109.167 140.721 108.288 140.865 107.21C140.98 106.048 140.807 104.998 140.262 104.176ZM137.16 109.252C136.786 109.763 136.327 109.99 135.81 109.905C135.609 109.876 135.436 109.82 135.264 109.735C135.092 109.649 134.977 109.536 134.862 109.366C134.776 109.252 134.718 109.111 134.632 108.94C134.575 108.77 134.517 108.628 134.489 108.515C134.661 107.069 134.833 105.594 135.034 104.147C135.207 103.977 135.408 103.864 135.637 103.75C135.867 103.665 136.154 103.637 136.499 103.665C136.844 103.694 137.131 103.835 137.332 104.006C137.562 104.204 137.705 104.431 137.82 104.743C137.935 105.027 137.993 105.367 138.021 105.736C138.021 106.104 138.021 106.473 137.964 106.842C137.82 107.976 137.562 108.742 137.16 109.252Z" fill="#62331B"/>
<path d="M150.802 104.743C147.873 104.289 144.972 103.863 142.042 103.466C141.927 104.374 141.784 105.281 141.669 106.161C141.841 106.189 142.014 106.217 142.186 106.217C142.243 106.132 142.33 105.962 142.473 105.764C142.617 105.565 142.76 105.367 142.933 105.168C143.105 104.969 143.277 104.828 143.478 104.686C143.679 104.544 143.881 104.487 144.053 104.487C144.196 104.487 144.34 104.516 144.455 104.516C144.57 104.516 144.742 104.544 145.001 104.572C144.742 106.416 144.455 108.259 144.196 110.103C144.168 110.301 144.11 110.443 144.024 110.557C143.938 110.67 143.823 110.727 143.651 110.755C143.565 110.784 143.421 110.784 143.277 110.784C143.134 110.784 142.99 110.784 142.847 110.784C142.818 110.982 142.789 111.152 142.76 111.351C144.455 111.578 146.15 111.833 147.844 112.088C147.873 111.89 147.902 111.719 147.93 111.521C147.758 111.493 147.614 111.436 147.499 111.407C147.385 111.379 147.27 111.322 147.155 111.266C147.011 111.209 146.896 111.096 146.839 110.954C146.781 110.812 146.781 110.67 146.81 110.472C147.097 108.628 147.385 106.785 147.643 104.969C147.844 104.998 148.016 105.026 148.16 105.055C148.304 105.083 148.447 105.111 148.591 105.14C148.763 105.196 148.936 105.31 149.079 105.508C149.223 105.707 149.366 105.905 149.452 106.132C149.567 106.388 149.654 106.614 149.711 106.813C149.768 107.04 149.826 107.21 149.855 107.352C150.027 107.38 150.199 107.409 150.372 107.437C150.515 106.558 150.659 105.65 150.802 104.743Z" fill="#62331B"/>
<path d="M44.2997 126.01C44.0986 125.953 43.8976 125.924 43.7252 125.924C43.7252 125.896 43.7252 125.868 43.7252 125.868C43.8976 125.811 44.0699 125.754 44.2422 125.669C44.3858 125.584 44.5294 125.499 44.6443 125.414C44.7592 125.301 44.8454 125.187 44.9028 125.074C44.9602 124.932 44.989 124.79 44.989 124.62C44.9602 124.251 44.7879 123.996 44.472 123.826C44.156 123.656 43.6391 123.599 42.9497 123.656C42.0306 123.712 41.1116 123.797 40.2212 123.854C40.2212 123.939 40.2212 124.024 40.2499 124.109C40.3361 124.109 40.4222 124.138 40.5084 124.138C40.5946 124.138 40.6807 124.166 40.7669 124.194C40.8818 124.223 40.9392 124.279 40.968 124.336C40.9967 124.393 41.0254 124.45 41.0254 124.535C41.1116 125.698 41.1977 126.832 41.2839 127.995C41.2839 128.08 41.2839 128.165 41.2552 128.222C41.2264 128.278 41.169 128.335 41.0828 128.364C41.0254 128.392 40.968 128.42 40.8531 128.42C40.7382 128.449 40.652 128.449 40.5946 128.477C40.5946 128.562 40.5946 128.647 40.6233 128.732C41.4849 128.675 42.3466 128.59 43.2082 128.534C43.5816 128.505 43.8975 128.449 44.1848 128.392C44.4433 128.335 44.7018 128.25 44.9028 128.108C45.1039 127.995 45.2475 127.853 45.3336 127.683C45.4198 127.513 45.4772 127.286 45.4485 127.031C45.4198 126.832 45.3623 126.633 45.2762 126.492C45.1613 126.35 45.0464 126.236 44.8741 126.123C44.7018 126.123 44.5007 126.066 44.2997 126.01ZM43.3806 125.556C43.2082 125.754 42.9497 125.839 42.5476 125.868C42.4902 125.868 42.4327 125.868 42.3753 125.868C42.3179 125.272 42.2891 124.648 42.2317 124.053C42.2891 124.053 42.3466 124.053 42.404 124.024C42.4902 124.024 42.5476 123.996 42.5764 123.996C42.8923 123.968 43.1221 124.024 43.2944 124.166C43.4667 124.308 43.5529 124.506 43.5816 124.79C43.6103 125.102 43.5529 125.357 43.3806 125.556ZM43.8114 127.938C43.6391 128.137 43.438 128.25 43.1508 128.25C43.0072 128.25 42.8636 128.25 42.7487 128.193C42.6338 128.137 42.5764 128.08 42.5476 127.995C42.4902 127.399 42.4615 126.804 42.404 126.208C42.4328 126.208 42.4902 126.208 42.5764 126.18C42.6625 126.18 42.72 126.151 42.7487 126.151C43.1508 126.123 43.438 126.18 43.6678 126.35C43.8975 126.52 44.0124 126.775 44.0412 127.116C44.0412 127.484 43.9837 127.74 43.8114 127.938Z" fill="#E3B060"/>
<path d="M48.5505 128.278C48.6941 128.222 48.8377 128.137 48.9813 128.023C49.1249 127.938 49.2398 127.825 49.326 127.683C49.4121 127.569 49.4983 127.428 49.5557 127.286C49.4696 127.229 49.3834 127.172 49.2685 127.116C49.1536 127.342 49.0387 127.513 48.8951 127.626C48.7515 127.74 48.5505 127.825 48.292 127.825C48.0335 127.853 47.775 127.74 47.5739 127.484C47.3729 127.257 47.2293 126.917 47.2006 126.52C47.1718 126.236 47.2006 126.009 47.2293 125.811C47.258 125.612 47.3154 125.471 47.3729 125.329C47.4303 125.215 47.5165 125.102 47.6027 125.045C47.6888 124.988 47.775 124.96 47.8899 124.96C47.976 124.96 48.0335 124.96 48.0909 124.988C48.1196 125.017 48.1771 125.045 48.2058 125.074C48.2058 125.13 48.1771 125.215 48.1484 125.329C48.1196 125.442 48.1196 125.556 48.1196 125.669C48.1196 125.811 48.2058 125.896 48.3207 125.981C48.4356 126.066 48.6079 126.095 48.7802 126.066C49.01 126.066 49.1536 125.981 49.2398 125.896C49.326 125.783 49.3547 125.641 49.3547 125.499C49.326 125.215 49.2111 125.017 48.9238 124.875C48.6654 124.733 48.3207 124.676 47.8899 124.705C47.5739 124.733 47.3154 124.79 47.057 124.903C46.7985 125.017 46.5974 125.159 46.4538 125.357C46.3102 125.527 46.1666 125.726 46.1091 125.953C46.023 126.18 45.9943 126.407 46.023 126.633C46.0517 126.889 46.1091 127.144 46.1953 127.342C46.2815 127.569 46.4251 127.74 46.5974 127.91C46.7697 128.051 46.9708 128.165 47.2293 128.25C47.4878 128.335 47.775 128.363 48.0909 128.335C48.2345 128.363 48.4069 128.335 48.5505 128.278Z" fill="#E3B060"/>
<path d="M53.2892 126.945C53.1743 127.144 53.0307 127.286 52.8584 127.428C52.6861 127.569 52.485 127.626 52.284 127.626C51.8819 127.654 51.5659 127.541 51.3649 127.314C51.1638 127.087 51.0489 126.719 51.0202 126.265C51.8244 126.208 52.5999 126.18 53.4041 126.123C53.4041 126.038 53.4041 125.981 53.4041 125.896C53.4041 125.698 53.3466 125.527 53.2892 125.329C53.2318 125.159 53.1169 125.017 52.9733 124.875C52.8297 124.733 52.6573 124.648 52.4276 124.591C52.1978 124.535 51.9393 124.506 51.5946 124.506C51.2787 124.535 51.0202 124.591 50.7904 124.705C50.5607 124.818 50.3596 124.96 50.216 125.13C50.0724 125.3 49.9575 125.499 49.8713 125.726C49.7852 125.953 49.7565 126.18 49.7852 126.407C49.8139 126.662 49.8426 126.917 49.9575 127.116C50.0437 127.342 50.1873 127.513 50.3596 127.683C50.5319 127.825 50.7617 127.966 51.0202 128.023C51.2787 128.108 51.5946 128.137 51.9393 128.108C52.1403 128.108 52.3414 128.052 52.485 128.023C52.6573 127.966 52.8009 127.881 52.9445 127.796C53.0882 127.711 53.203 127.598 53.3179 127.484C53.4328 127.371 53.519 127.229 53.6051 127.087C53.4903 127.059 53.4041 127.002 53.2892 126.945ZM51.0202 125.953C51.0202 125.556 51.0489 125.272 51.1351 125.102C51.2213 124.903 51.3649 124.818 51.5659 124.818C51.6808 124.818 51.767 124.847 51.8244 124.875C51.9106 124.932 51.968 125.017 51.9967 125.102C52.0255 125.187 52.0829 125.3 52.0829 125.442C52.1116 125.584 52.1116 125.726 52.1403 125.868C51.767 125.896 51.3936 125.924 51.0202 125.953Z" fill="#E3B060"/>
<path d="M55.5869 127.513C55.6156 127.995 55.6444 128.477 55.6731 128.959C55.7592 128.959 55.8167 128.959 55.9029 128.959C55.9316 128.902 55.9603 128.789 56.0177 128.675C56.0752 128.562 56.1326 128.42 56.2188 128.307C56.305 128.193 56.3911 128.08 56.506 127.966C56.6209 127.881 56.7358 127.825 56.8794 127.796C56.9655 127.796 57.0517 127.768 57.1666 127.768C57.2528 127.768 57.3676 127.768 57.4538 127.739C57.6836 127.739 57.8846 127.711 58.1144 127.711C58.1719 127.711 58.258 127.711 58.3729 127.711C58.4878 127.711 58.574 127.711 58.6601 127.711C58.8037 127.711 58.9473 127.768 59.0622 127.853C59.1771 127.938 59.292 128.051 59.3782 128.165C59.493 128.307 59.5505 128.42 59.6079 128.505C59.6654 128.619 59.6941 128.704 59.7515 128.76C59.8377 128.76 59.8951 128.76 59.9813 128.76C59.9526 128.278 59.9526 127.825 59.9239 127.342C59.8377 127.342 59.7228 127.342 59.6367 127.342C59.493 127.342 59.3782 127.314 59.3494 127.286C59.3207 127.229 59.292 127.144 59.292 127.03C59.2633 126.321 59.2345 125.612 59.2058 124.875C59.2058 124.79 59.2058 124.705 59.2346 124.648C59.2633 124.591 59.3207 124.563 59.3782 124.535C59.4356 124.506 59.493 124.506 59.5218 124.506C59.5792 124.506 59.6366 124.478 59.6941 124.478C59.6941 124.393 59.6941 124.308 59.6941 124.223C58.5165 124.279 57.3102 124.336 56.1326 124.393C56.1326 124.478 56.1326 124.563 56.1326 124.648C56.1901 124.648 56.2762 124.648 56.3911 124.676C56.506 124.705 56.5634 124.705 56.6209 124.733C56.6783 124.762 56.7358 124.79 56.7645 124.847C56.7932 124.903 56.8219 124.988 56.8219 125.102C56.8219 125.414 56.7645 125.811 56.6209 126.293C56.4773 126.775 56.305 127.201 56.0752 127.513C55.8741 127.484 55.7305 127.513 55.5869 127.513ZM56.9943 126.123C57.1092 125.612 57.1666 125.13 57.1379 124.648C57.3964 124.648 57.6836 124.62 57.9421 124.62C57.9708 125.471 58.0282 126.293 58.057 127.144C58.057 127.229 58.057 127.314 57.9995 127.342C57.9708 127.371 57.8846 127.399 57.7698 127.399C57.3389 127.427 56.8794 127.427 56.4486 127.456C56.7071 127.087 56.8794 126.633 56.9943 126.123Z" fill="#E3B060"/>
<path d="M64.5195 127.229C64.4333 127.229 64.3759 127.229 64.3472 127.229C64.2897 127.229 64.261 127.201 64.2036 127.201C64.1174 127.172 64.0887 127.144 64.06 127.087C64.0312 127.031 64.0025 126.974 64.0025 126.889C63.9738 126.151 63.9451 125.442 63.9163 124.705C63.9163 124.62 63.9164 124.535 63.9451 124.478C63.9738 124.421 64.0312 124.393 64.0887 124.365C64.1461 124.336 64.2036 124.336 64.2323 124.336C64.2897 124.336 64.3472 124.308 64.4046 124.308C64.4046 124.223 64.4046 124.138 64.4046 124.053C63.227 124.081 62.0494 124.138 60.8431 124.166C60.8431 124.251 60.8431 124.336 60.8431 124.421C60.9006 124.421 60.9868 124.421 61.0729 124.45C61.1591 124.45 61.2452 124.478 61.3027 124.535C61.3601 124.563 61.4176 124.62 61.4463 124.677C61.475 124.733 61.5037 124.818 61.5037 124.904C61.5325 125.301 61.475 125.669 61.3889 126.038C61.3027 126.407 61.1878 126.69 61.0729 126.917C60.9868 126.804 60.8719 126.719 60.757 126.662C60.6421 126.605 60.5272 126.549 60.3836 126.577C60.2113 126.577 60.0964 126.634 59.9815 126.747C59.8953 126.861 59.8379 127.002 59.8379 127.172C59.8379 127.229 59.8666 127.286 59.8666 127.371C59.8953 127.456 59.9241 127.513 59.9815 127.57C60.0389 127.626 60.0964 127.683 60.1825 127.711C60.2687 127.74 60.3836 127.768 60.4985 127.768C60.6708 127.768 60.8144 127.683 60.9868 127.57C61.1591 127.456 61.3027 127.258 61.4176 127.002C61.5325 126.747 61.6473 126.407 61.7335 126.01C61.8197 125.584 61.8484 125.102 61.8197 124.535C62.0782 124.535 62.3367 124.507 62.6239 124.507C62.6526 125.329 62.6813 126.151 62.71 126.974C62.71 127.059 62.71 127.116 62.6813 127.172C62.6526 127.229 62.5952 127.258 62.5377 127.286C62.509 127.314 62.4516 127.314 62.3941 127.314C62.3367 127.314 62.2792 127.343 62.2218 127.343C62.2218 127.428 62.2218 127.513 62.2218 127.598C62.9685 127.57 63.6866 127.541 64.4333 127.513C64.5482 127.399 64.5195 127.314 64.5195 127.229Z" fill="#E3B060"/>
<path d="M69.1438 127.087C69.0577 127.087 69.0002 127.087 68.9715 127.087C68.914 127.087 68.8853 127.059 68.8279 127.059C68.7417 127.03 68.713 127.002 68.6843 126.945C68.6556 126.889 68.6268 126.832 68.6268 126.747C68.5981 126.009 68.5981 125.3 68.5694 124.563C68.5694 124.478 68.5694 124.393 68.5981 124.336C68.6268 124.279 68.6843 124.251 68.7417 124.223C68.7992 124.194 68.8566 124.194 68.8853 124.194C68.9428 124.194 69.0002 124.166 69.0577 124.166C69.0577 124.081 69.0577 123.996 69.0577 123.911C68.7704 123.911 68.4545 123.911 68.0524 123.939C67.679 123.939 67.2482 123.939 66.7887 123.967C66.2717 123.996 65.8696 124.081 65.6111 124.251C65.3239 124.421 65.209 124.648 65.209 124.932C65.209 125.073 65.2377 125.187 65.2951 125.3C65.3526 125.414 65.41 125.499 65.4962 125.556C65.5823 125.612 65.6685 125.669 65.7834 125.726C65.8983 125.754 66.0132 125.782 66.1281 125.811V125.839C66.0132 125.868 65.8983 125.953 65.7834 126.038C65.6685 126.151 65.5536 126.265 65.4962 126.378C65.4387 126.492 65.41 126.577 65.3813 126.633C65.3526 126.718 65.3239 126.775 65.2664 126.889C65.2377 126.974 65.1803 127.059 65.1228 127.087C65.0654 127.115 65.0366 127.144 65.0079 127.172C64.9505 127.172 64.9218 127.201 64.8643 127.201C64.8069 127.201 64.7494 127.229 64.7207 127.229C64.7207 127.314 64.7207 127.399 64.7207 127.484C65.2664 127.456 65.8121 127.456 66.3291 127.427C66.3866 127.229 66.4153 127.059 66.4727 126.917C66.5014 126.775 66.5589 126.633 66.6163 126.435C66.6738 126.236 66.7887 126.094 66.9035 126.009C67.0184 125.924 67.1908 125.868 67.4205 125.868C67.4205 126.151 67.4492 126.435 67.4492 126.718C67.4492 126.804 67.4493 126.889 67.4205 126.917C67.3918 126.974 67.3631 127.002 67.3056 127.03C67.2482 127.059 67.2195 127.087 67.162 127.087C67.1046 127.087 67.0471 127.115 67.0184 127.115C67.0184 127.201 67.0184 127.286 67.0184 127.371C67.7365 127.342 68.4545 127.342 69.1725 127.314C69.1438 127.257 69.1438 127.172 69.1438 127.087ZM67.2195 125.584C66.961 125.584 66.7599 125.527 66.645 125.442C66.5302 125.329 66.4727 125.159 66.444 124.932C66.444 124.733 66.5014 124.563 66.6163 124.45C66.7312 124.336 66.8748 124.251 67.0471 124.251C67.0759 124.251 67.1333 124.251 67.1908 124.251C67.2482 124.251 67.3056 124.251 67.3918 124.251C67.3918 124.705 67.4205 125.159 67.4205 125.612C67.3344 125.584 67.2769 125.584 67.2195 125.584Z" fill="#E3B060"/>
<path d="M73.7676 126.974C73.6814 127.059 73.5665 127.087 73.4517 127.087C73.3368 127.087 73.2219 127.059 73.107 126.974C73.0208 126.917 72.9347 126.803 72.8772 126.662C72.8198 126.548 72.7911 126.378 72.7336 126.208C72.7049 126.009 72.6762 125.811 72.6762 125.556C72.6762 125.385 72.6762 125.187 72.7049 125.017C72.7336 124.846 72.7623 124.705 72.8198 124.563C72.8772 124.421 72.9634 124.308 73.0495 124.223C73.1357 124.137 73.2506 124.081 73.3942 124.081C73.5378 124.081 73.6527 124.109 73.7389 124.194C73.825 124.279 73.9112 124.393 73.9686 124.506C74.0261 124.62 74.0548 124.79 74.0835 124.96C74.1122 125.158 74.1122 125.329 74.141 125.499C74.141 125.726 74.141 125.924 74.1122 126.094C74.0835 126.293 74.0548 126.435 73.9974 126.577C73.9399 126.775 73.8538 126.888 73.7676 126.974ZM71.872 124.421C71.9007 124.251 71.9581 124.109 72.0443 123.967C72.073 123.911 72.1305 123.825 72.1879 123.74C72.2453 123.655 72.3315 123.599 72.4177 123.513C72.5038 123.457 72.6474 123.372 72.7911 123.343C72.9347 123.287 73.107 123.258 73.308 123.258C73.4517 123.258 73.624 123.23 73.7676 123.23C73.9399 123.202 74.0548 123.202 74.1697 123.202C74.2846 123.202 74.3995 123.173 74.4569 123.145C74.5431 123.116 74.6005 123.088 74.658 123.031C74.7154 123.003 74.7728 122.946 74.8303 122.89C74.8877 122.833 74.9452 122.776 74.9739 122.719C75.0601 122.634 75.1175 122.521 75.1749 122.436C75.2324 122.351 75.3185 122.237 75.376 122.124C75.2898 122.067 75.2324 122.01 75.1462 121.954C75.0601 122.067 74.9739 122.124 74.9165 122.181C74.8303 122.209 74.7441 122.237 74.6292 122.237C74.5144 122.237 74.2846 122.266 74.0261 122.266C73.7389 122.294 73.5091 122.294 73.308 122.322C72.9347 122.351 72.59 122.464 72.3028 122.691C72.0156 122.918 71.8145 123.202 71.6996 123.485C71.5848 123.769 71.4986 124.024 71.4411 124.279C71.3837 124.534 71.355 124.846 71.355 125.215C71.355 125.584 71.4124 125.924 71.5273 126.208C71.6422 126.491 71.7858 126.718 71.9581 126.888C72.1305 127.059 72.3602 127.2 72.59 127.286C72.8198 127.371 73.0783 127.399 73.308 127.399C73.624 127.399 73.9112 127.342 74.1697 127.229C74.4282 127.115 74.6292 127.002 74.8303 126.803C75.0026 126.633 75.1462 126.435 75.2324 126.208C75.3185 125.981 75.376 125.754 75.3473 125.499C75.3473 125.244 75.2898 125.017 75.2324 124.79C75.1462 124.591 75.0313 124.393 74.859 124.251C74.6867 124.109 74.4856 123.996 74.2271 123.911C73.9686 123.825 73.7101 123.797 73.3655 123.797C72.9921 123.797 72.6474 123.911 72.389 124.081C72.1017 124.279 71.9007 124.506 71.7571 124.818H71.7284C71.8145 124.733 71.8432 124.591 71.872 124.421Z" fill="#E3B060"/>
<path d="M79.9429 126.888C79.8855 126.888 79.7993 126.888 79.7131 126.888C79.627 126.888 79.5695 126.888 79.5121 126.86C79.4546 126.832 79.3972 126.775 79.3685 126.718C79.3397 126.662 79.311 126.576 79.311 126.463C79.311 126.35 79.311 126.123 79.311 125.754C79.311 125.385 79.311 125.073 79.311 124.818C79.311 124.563 79.2536 124.364 79.1674 124.222C79.0812 124.081 78.9664 123.939 78.8228 123.882C78.6791 123.797 78.5068 123.74 78.3058 123.712C78.1047 123.684 77.9037 123.684 77.6739 123.684C77.5016 123.684 77.3292 123.712 77.1282 123.74C76.9271 123.769 76.7548 123.825 76.6112 123.91C76.4676 123.967 76.324 124.052 76.2378 124.166C76.1229 124.279 76.0942 124.393 76.0942 124.506C76.0942 124.648 76.1516 124.79 76.2378 124.875C76.3527 124.96 76.4963 125.017 76.6974 125.017C76.841 125.017 76.9271 124.988 77.0133 124.988C77.0707 124.96 77.1282 124.931 77.1856 124.875C77.2143 124.846 77.2431 124.79 77.2718 124.733C77.3005 124.676 77.3005 124.62 77.3005 124.591C77.3005 124.506 77.2718 124.421 77.2431 124.308C77.2143 124.222 77.1856 124.137 77.1856 124.109C77.2143 124.081 77.2718 124.052 77.358 124.024C77.4154 123.996 77.5016 123.967 77.6164 123.967C77.7313 123.967 77.8175 123.996 77.9037 124.052C77.9611 124.109 78.0186 124.166 78.0473 124.251C78.076 124.308 78.1047 124.393 78.1047 124.478C78.1047 124.563 78.1334 124.648 78.1334 124.705C78.1334 124.818 78.1334 124.931 78.1334 125.045C77.9898 125.102 77.7888 125.187 77.4728 125.272C77.1856 125.357 76.9271 125.442 76.6974 125.527C76.5825 125.584 76.4963 125.612 76.3814 125.669C76.2952 125.726 76.2091 125.782 76.1516 125.867C76.0655 125.952 76.008 126.038 75.9793 126.151C75.9506 126.264 75.9219 126.378 75.9219 126.548C75.9219 126.803 76.0368 127.03 76.2091 127.172C76.4101 127.342 76.6399 127.399 76.8984 127.399C77.0707 127.399 77.2143 127.371 77.3292 127.371C77.4441 127.342 77.5303 127.314 77.6452 127.257C77.7313 127.229 77.8175 127.172 77.8749 127.115C77.9611 127.059 78.0185 127.002 78.1047 126.917C78.1047 126.917 78.1047 126.917 78.1334 126.917C78.1909 127.087 78.277 127.2 78.4207 127.285C78.5643 127.371 78.7653 127.399 79.0525 127.399C79.1961 127.399 79.3685 127.371 79.5121 127.342C79.6557 127.314 79.7706 127.257 79.8855 127.229C79.9429 127.03 79.9429 126.945 79.9429 126.888ZM78.1622 126.52C78.1047 126.605 78.0186 126.662 77.9324 126.718C77.8462 126.775 77.7313 126.803 77.6164 126.803C77.5016 126.803 77.3867 126.775 77.3005 126.69C77.2143 126.605 77.1856 126.491 77.1856 126.293C77.1856 126.151 77.2143 126.038 77.2431 125.924C77.3005 125.811 77.358 125.754 77.4441 125.669C77.5303 125.612 77.6452 125.555 77.7601 125.499C77.9037 125.442 78.0185 125.385 78.1622 125.357C78.1622 125.726 78.1622 126.123 78.1622 126.52Z" fill="#E3B060"/>
<path d="M84.9119 126.946C84.8257 126.946 84.7683 126.946 84.7396 126.917C84.6821 126.917 84.6534 126.889 84.596 126.889C84.5098 126.86 84.4811 126.832 84.4524 126.775C84.4236 126.719 84.3949 126.662 84.4236 126.577C84.4236 125.839 84.4236 125.13 84.4236 124.393C84.4236 124.308 84.4524 124.223 84.4811 124.194C84.5098 124.138 84.5673 124.109 84.6247 124.081C84.6821 124.053 84.7396 124.053 84.7683 124.053C84.8257 124.053 84.8832 124.053 84.9406 124.024C84.9406 123.939 84.9406 123.854 84.9406 123.769C84.2226 123.769 83.5046 123.769 82.7865 123.769C82.7865 123.854 82.7865 123.939 82.7865 124.024C82.844 124.024 82.8727 124.053 82.9301 124.053C82.9876 124.053 83.045 124.081 83.0737 124.109C83.1312 124.138 83.1599 124.194 83.1886 124.251C83.2173 124.308 83.2173 124.365 83.2173 124.45C83.2173 124.705 83.2173 124.989 83.2173 125.244C82.7865 125.244 82.327 125.244 81.8961 125.244C81.8961 124.989 81.8961 124.705 81.8961 124.45C81.8961 124.365 81.8961 124.308 81.9249 124.251C81.9536 124.194 81.9823 124.166 82.0398 124.109C82.0972 124.081 82.1546 124.053 82.1834 124.053C82.2408 124.053 82.2982 124.024 82.327 124.024C82.327 123.939 82.327 123.854 82.327 123.769C81.6089 123.769 80.8909 123.769 80.1729 123.769C80.1729 123.854 80.1729 123.939 80.1729 124.024C80.2303 124.024 80.2877 124.024 80.3452 124.053C80.4026 124.053 80.4601 124.081 80.5175 124.081C80.6037 124.109 80.6324 124.138 80.6611 124.194C80.6898 124.251 80.7186 124.308 80.7186 124.393C80.7186 125.13 80.7186 125.839 80.7186 126.577C80.7186 126.662 80.7186 126.719 80.6898 126.775C80.6611 126.832 80.6037 126.86 80.5462 126.889C80.5175 126.889 80.4601 126.917 80.4026 126.917C80.3452 126.917 80.2877 126.946 80.2303 126.946C80.2303 127.031 80.2303 127.116 80.2303 127.201C80.9483 127.201 81.6664 127.201 82.3844 127.201C82.3844 127.116 82.3844 127.031 82.3844 126.946C82.327 126.946 82.2695 126.917 82.2121 126.917C82.1546 126.917 82.0972 126.889 82.0685 126.86C82.011 126.832 81.9823 126.775 81.9536 126.747C81.9249 126.69 81.9249 126.634 81.9249 126.548C81.9249 126.208 81.9249 125.896 81.9249 125.556C82.3557 125.556 82.8152 125.556 83.2461 125.556C83.2461 125.896 83.2461 126.208 83.2461 126.548C83.2461 126.634 83.2461 126.719 83.2173 126.747C83.1886 126.804 83.1599 126.832 83.1025 126.86C83.045 126.889 83.0163 126.917 82.9301 126.917C82.8727 126.917 82.8152 126.946 82.7865 126.946C82.7865 127.031 82.7865 127.116 82.7865 127.201C83.5046 127.201 84.2226 127.201 84.9406 127.201C84.9119 127.116 84.9119 127.031 84.9119 126.946Z" fill="#E3B060"/>
<path d="M90.0817 127.002C89.9956 127.002 89.9381 127.002 89.9094 126.974C89.852 126.974 89.8232 126.946 89.7658 126.946C89.6796 126.917 89.6509 126.889 89.6222 126.832C89.5935 126.775 89.5935 126.719 89.5935 126.634C89.5935 125.896 89.6222 125.187 89.6222 124.45C89.6222 124.365 89.6509 124.28 89.6796 124.251C89.7084 124.194 89.7658 124.166 89.8233 124.138C89.8807 124.109 89.9381 124.109 89.9669 124.109C90.0243 124.109 90.0817 124.109 90.1392 124.081C90.1392 123.996 90.1392 123.911 90.1392 123.826C89.4212 123.826 88.7031 123.797 87.9851 123.797C87.9851 123.882 87.9851 123.968 87.9851 124.053C88.0138 124.053 88.0712 124.081 88.1287 124.081C88.1861 124.081 88.2436 124.109 88.301 124.138C88.3584 124.166 88.3872 124.223 88.4159 124.251C88.4446 124.308 88.4446 124.365 88.4446 124.45C87.9563 124.989 87.4968 125.527 87.0085 126.066C87.0085 125.527 87.0085 124.989 87.0373 124.45C87.0373 124.365 87.0373 124.308 87.066 124.251C87.0947 124.194 87.1234 124.166 87.1809 124.138C87.2383 124.109 87.2958 124.081 87.3245 124.081C87.3819 124.081 87.4394 124.053 87.4968 124.053C87.4968 123.968 87.4968 123.882 87.4968 123.797C86.7788 123.797 86.0607 123.797 85.3427 123.769C85.3427 123.854 85.3427 123.939 85.3427 124.024C85.4001 124.024 85.4576 124.024 85.515 124.053C85.5725 124.053 85.6299 124.081 85.6874 124.081C85.7735 124.109 85.8022 124.138 85.831 124.194C85.8597 124.251 85.8884 124.308 85.8597 124.393C85.8597 125.13 85.8597 125.839 85.831 126.577C85.831 126.662 85.8022 126.719 85.7735 126.775C85.7448 126.832 85.6873 126.86 85.6299 126.889C85.6012 126.889 85.5437 126.917 85.4863 126.917C85.4289 126.917 85.3714 126.917 85.314 126.946C85.314 127.031 85.314 127.116 85.314 127.201C86.032 127.201 86.7213 127.201 87.4394 127.229C87.4394 127.144 87.4394 127.059 87.4394 126.974C87.3819 126.974 87.3245 126.946 87.267 126.946C87.2096 126.946 87.1521 126.917 87.1234 126.889C87.066 126.86 87.0373 126.832 87.0085 126.775C86.9798 126.719 86.9798 126.662 86.9798 126.577C87.4681 126.038 87.9276 125.499 88.4159 124.96C88.4159 125.499 88.4159 126.038 88.3872 126.577C88.3872 126.662 88.3872 126.747 88.3585 126.775C88.3297 126.832 88.301 126.86 88.2436 126.889C88.1861 126.917 88.1574 126.946 88.0712 126.946C88.0138 126.946 87.9563 126.974 87.9276 126.974C87.9276 127.059 87.9276 127.144 87.9276 127.229C88.6457 127.229 89.335 127.258 90.053 127.258C90.0817 127.172 90.0817 127.087 90.0817 127.002Z" fill="#E3B060"/>
<path d="M97.0895 127.172C97.0033 127.172 96.9459 127.144 96.9171 127.144C96.8597 127.144 96.831 127.116 96.7735 127.116C96.6874 127.087 96.6587 127.059 96.6299 127.002C96.6012 126.945 96.6012 126.889 96.6012 126.804C96.6299 126.066 96.6299 125.357 96.6587 124.62C96.6587 124.535 96.6874 124.45 96.7161 124.421C96.7448 124.364 96.8023 124.336 96.8597 124.308C96.9172 124.279 96.9746 124.279 97.0033 124.279C97.0608 124.279 97.1182 124.279 97.1757 124.279C97.1757 124.194 97.1757 124.109 97.1757 124.024C96.4576 123.996 95.7396 123.996 95.0215 123.967C95.0215 124.052 95.0215 124.138 95.0215 124.223C95.0502 124.223 95.1077 124.251 95.1651 124.251C95.2226 124.251 95.28 124.279 95.3375 124.308C95.3949 124.336 95.4236 124.393 95.4524 124.421C95.4811 124.478 95.4811 124.535 95.4811 124.62C94.9928 125.159 94.5045 125.697 94.0163 126.208C94.0163 125.669 94.045 125.13 94.045 124.591C94.045 124.506 94.0737 124.45 94.0737 124.393C94.1024 124.336 94.1311 124.308 94.1886 124.279C94.246 124.251 94.3035 124.223 94.3322 124.223C94.3896 124.223 94.4471 124.194 94.5045 124.194C94.5045 124.109 94.5045 124.024 94.5045 123.939C93.7865 123.911 93.0684 123.911 92.3504 123.882C92.3504 123.967 92.3504 124.052 92.3504 124.138C92.4079 124.138 92.4653 124.138 92.5227 124.166C92.5802 124.166 92.6376 124.194 92.6951 124.194C92.7812 124.223 92.81 124.251 92.8387 124.308C92.8674 124.364 92.8674 124.421 92.8674 124.506C92.8387 125.244 92.8387 125.953 92.81 126.69C92.81 126.775 92.7812 126.832 92.7525 126.889C92.7238 126.945 92.6663 126.974 92.6089 127.002C92.5802 127.002 92.5227 127.03 92.4653 127.03C92.4078 127.03 92.3504 127.03 92.293 127.059C92.293 127.144 92.293 127.229 92.293 127.314C93.011 127.314 93.7003 127.342 94.4184 127.371C94.4184 127.286 94.4184 127.201 94.4184 127.116C94.3609 127.116 94.3035 127.087 94.246 127.087C94.1886 127.087 94.1312 127.059 94.1024 127.03C94.045 127.002 94.0163 126.945 93.9875 126.917C93.9588 126.86 93.9588 126.804 93.9588 126.718C94.4471 126.18 94.9354 125.641 95.4236 125.13C95.4236 125.669 95.3949 126.208 95.3949 126.747C95.3949 126.832 95.3662 126.917 95.3662 126.945C95.3375 127.002 95.3087 127.03 95.2513 127.059C95.1939 127.087 95.1364 127.116 95.079 127.116C95.0215 127.116 94.9641 127.144 94.9354 127.144C94.9354 127.229 94.9354 127.314 94.9354 127.399C95.6534 127.427 96.3427 127.427 97.0608 127.456C97.0895 127.342 97.0895 127.257 97.0895 127.172Z" fill="#E3B060"/>
<path d="M101.886 127.626C102.03 127.57 102.202 127.513 102.346 127.428C102.489 127.343 102.604 127.258 102.719 127.144C102.834 127.031 102.92 126.917 103.006 126.775C102.92 126.719 102.834 126.662 102.748 126.577C102.633 126.775 102.489 126.946 102.317 127.059C102.144 127.172 101.943 127.229 101.685 127.201C101.426 127.201 101.197 127.059 100.996 126.804C100.795 126.549 100.708 126.208 100.737 125.811C100.737 125.528 100.766 125.301 100.823 125.102C100.881 124.904 100.938 124.762 101.024 124.648C101.111 124.535 101.197 124.45 101.283 124.393C101.369 124.336 101.484 124.336 101.57 124.336C101.656 124.336 101.714 124.365 101.742 124.365C101.771 124.393 101.8 124.421 101.829 124.45C101.829 124.507 101.8 124.592 101.742 124.705C101.714 124.818 101.685 124.932 101.685 125.045C101.685 125.187 101.742 125.301 101.857 125.386C101.972 125.471 102.116 125.528 102.288 125.528C102.518 125.528 102.661 125.499 102.748 125.386C102.834 125.301 102.891 125.159 102.891 124.989C102.891 124.705 102.776 124.507 102.547 124.336C102.288 124.166 101.972 124.081 101.513 124.053C101.197 124.053 100.909 124.081 100.651 124.166C100.392 124.251 100.163 124.393 99.9904 124.535C99.818 124.705 99.6744 124.875 99.5595 125.102C99.4447 125.329 99.3872 125.556 99.3872 125.783C99.3872 126.038 99.4159 126.293 99.4734 126.52C99.5595 126.747 99.6457 126.946 99.818 127.116C99.9616 127.286 100.163 127.428 100.421 127.513C100.68 127.626 100.967 127.683 101.283 127.683C101.541 127.683 101.742 127.655 101.886 127.626Z" fill="#E3B060"/>
<path d="M107.2 127.484C107.142 127.484 107.056 127.484 106.97 127.456C106.884 127.456 106.826 127.428 106.769 127.428C106.712 127.399 106.654 127.342 106.625 127.286C106.597 127.229 106.597 127.144 106.597 127.031C106.597 126.917 106.625 126.69 106.654 126.321C106.683 125.953 106.712 125.669 106.712 125.386C106.712 125.13 106.683 124.932 106.625 124.79C106.539 124.62 106.424 124.506 106.281 124.421C106.137 124.336 105.965 124.279 105.764 124.223C105.563 124.194 105.362 124.166 105.132 124.166C104.96 124.166 104.787 124.166 104.586 124.194C104.385 124.223 104.213 124.279 104.069 124.336C103.926 124.393 103.782 124.478 103.667 124.563C103.552 124.648 103.495 124.762 103.495 124.903C103.495 125.045 103.523 125.187 103.638 125.272C103.725 125.357 103.897 125.414 104.069 125.442C104.213 125.442 104.299 125.442 104.385 125.414C104.443 125.386 104.529 125.357 104.586 125.3C104.615 125.272 104.672 125.215 104.672 125.159C104.701 125.102 104.701 125.045 104.701 125.017C104.701 124.932 104.701 124.847 104.672 124.733C104.644 124.648 104.615 124.563 104.615 124.506C104.672 124.478 104.73 124.45 104.787 124.421C104.845 124.393 104.96 124.393 105.046 124.393C105.161 124.393 105.247 124.421 105.333 124.478C105.39 124.535 105.448 124.591 105.477 124.677C105.505 124.733 105.534 124.818 105.534 124.932C105.534 125.017 105.534 125.102 105.534 125.159C105.534 125.272 105.534 125.386 105.505 125.499C105.362 125.556 105.132 125.612 104.845 125.698C104.557 125.754 104.299 125.839 104.069 125.896C103.954 125.924 103.839 125.981 103.753 126.01C103.667 126.066 103.581 126.123 103.495 126.18C103.409 126.265 103.351 126.35 103.294 126.463C103.236 126.577 103.208 126.69 103.208 126.832C103.208 127.087 103.294 127.314 103.466 127.484C103.638 127.654 103.868 127.74 104.155 127.74C104.328 127.74 104.471 127.74 104.586 127.711C104.701 127.683 104.787 127.654 104.902 127.598C104.988 127.569 105.074 127.513 105.161 127.456C105.247 127.399 105.304 127.343 105.39 127.257C105.39 127.257 105.39 127.257 105.419 127.257C105.448 127.428 105.534 127.541 105.678 127.626C105.821 127.711 106.022 127.768 106.309 127.768C106.453 127.768 106.625 127.768 106.769 127.74C106.913 127.711 107.027 127.683 107.142 127.626C107.2 127.654 107.2 127.569 107.2 127.484ZM105.477 127.031C105.419 127.116 105.333 127.172 105.247 127.201C105.161 127.257 105.046 127.257 104.931 127.257C104.816 127.257 104.701 127.201 104.615 127.116C104.529 127.031 104.5 126.889 104.5 126.719C104.5 126.577 104.529 126.463 104.586 126.378C104.644 126.293 104.701 126.208 104.816 126.151C104.902 126.095 105.017 126.038 105.132 125.981C105.275 125.924 105.39 125.896 105.534 125.839C105.505 126.236 105.505 126.633 105.477 127.031Z" fill="#E3B060"/>
<path d="M111.651 124.592C111.163 124.563 110.675 124.535 110.187 124.507C110.187 124.592 110.187 124.677 110.187 124.762C110.215 124.762 110.273 124.79 110.33 124.79C110.388 124.818 110.445 124.818 110.503 124.847C110.56 124.875 110.618 124.904 110.646 124.932C110.675 124.96 110.704 124.989 110.704 125.045C110.704 125.045 110.704 125.074 110.704 125.102C110.704 125.13 110.675 125.187 110.646 125.244C110.531 125.471 110.416 125.698 110.302 125.925C110.187 126.151 110.043 126.435 109.871 126.747C109.698 126.35 109.555 126.01 109.411 125.726C109.268 125.442 109.181 125.216 109.095 125.045C109.067 125.017 109.067 124.96 109.067 124.96C109.067 124.932 109.067 124.904 109.067 124.904C109.067 124.847 109.124 124.818 109.239 124.79C109.354 124.762 109.44 124.762 109.526 124.762C109.526 124.677 109.526 124.592 109.526 124.507C108.808 124.478 108.09 124.421 107.372 124.393C107.372 124.478 107.372 124.563 107.372 124.648C107.487 124.677 107.573 124.705 107.688 124.762C107.774 124.818 107.86 124.904 107.918 125.017C108.147 125.556 108.377 126.038 108.578 126.463C108.779 126.889 108.98 127.399 109.239 127.995C109.181 128.165 109.095 128.307 108.952 128.449C108.837 128.591 108.722 128.704 108.636 128.789C108.521 128.619 108.406 128.505 108.291 128.392C108.176 128.307 108.061 128.25 107.918 128.25C107.832 128.25 107.717 128.25 107.659 128.279C107.573 128.307 107.516 128.364 107.487 128.392C107.429 128.449 107.401 128.505 107.372 128.562C107.343 128.619 107.343 128.676 107.343 128.732C107.343 128.874 107.401 129.016 107.516 129.158C107.659 129.3 107.832 129.356 108.033 129.356C108.147 129.356 108.262 129.356 108.377 129.3C108.492 129.271 108.607 129.215 108.722 129.129C108.837 129.044 108.98 128.903 109.124 128.732C109.268 128.562 109.411 128.307 109.584 128.023C109.871 127.484 110.129 126.974 110.388 126.52C110.618 126.066 110.847 125.613 111.077 125.216C111.163 125.074 111.249 124.989 111.336 124.932C111.422 124.875 111.537 124.847 111.651 124.818C111.623 124.762 111.623 124.677 111.651 124.592Z" fill="#E3B060"/>
<path d="M116.218 128.051C116.132 128.051 116.075 128.023 116.046 128.023C116.017 128.023 115.96 127.995 115.902 127.966C115.845 127.938 115.787 127.91 115.759 127.853C115.73 127.796 115.73 127.711 115.73 127.654C115.787 126.945 115.816 126.208 115.874 125.499C115.874 125.414 115.902 125.329 115.931 125.3C115.96 125.244 116.017 125.215 116.075 125.187C116.132 125.187 116.19 125.159 116.247 125.159C116.304 125.159 116.362 125.159 116.419 125.159C116.419 125.073 116.419 124.988 116.448 124.903C115.73 124.847 115.012 124.818 114.294 124.761C114.294 124.847 114.294 124.932 114.265 125.017C114.323 125.017 114.351 125.045 114.409 125.045C114.466 125.073 114.524 125.073 114.552 125.102C114.61 125.13 114.639 125.187 114.667 125.244C114.696 125.3 114.696 125.357 114.696 125.442C114.667 125.697 114.667 125.981 114.639 126.236C114.208 126.208 113.748 126.18 113.317 126.151C113.346 125.896 113.346 125.612 113.375 125.357C113.375 125.272 113.404 125.215 113.432 125.159C113.461 125.102 113.49 125.073 113.547 125.045C113.605 125.017 113.662 125.017 113.691 124.988C113.748 124.988 113.806 124.988 113.863 124.96C113.863 124.875 113.863 124.79 113.892 124.705C113.174 124.648 112.456 124.62 111.738 124.591C111.738 124.676 111.738 124.761 111.709 124.847C111.766 124.847 111.824 124.875 111.881 124.875C111.939 124.875 111.996 124.903 112.054 124.932C112.111 124.96 112.168 124.988 112.197 125.073C112.226 125.13 112.226 125.187 112.226 125.272C112.197 126.009 112.14 126.718 112.111 127.456C112.111 127.541 112.082 127.598 112.054 127.654C112.025 127.711 111.967 127.739 111.881 127.768C111.853 127.768 111.795 127.796 111.738 127.796C111.68 127.796 111.623 127.796 111.565 127.796C111.565 127.881 111.565 127.966 111.537 128.051C112.255 128.08 112.973 128.136 113.662 128.165C113.662 128.08 113.662 127.995 113.691 127.91C113.633 127.91 113.576 127.881 113.518 127.881C113.461 127.853 113.432 127.853 113.375 127.824C113.317 127.796 113.289 127.739 113.26 127.683C113.231 127.626 113.231 127.569 113.231 127.484C113.26 127.144 113.26 126.832 113.289 126.492C113.719 126.52 114.179 126.548 114.61 126.577C114.581 126.917 114.581 127.229 114.552 127.569C114.552 127.654 114.524 127.739 114.495 127.768C114.466 127.824 114.438 127.853 114.38 127.881C114.323 127.91 114.265 127.91 114.208 127.938C114.15 127.938 114.093 127.938 114.064 127.966C114.064 128.051 114.064 128.136 114.035 128.222C114.753 128.278 115.471 128.307 116.161 128.363C116.218 128.222 116.218 128.136 116.218 128.051Z" fill="#E3B060"/>
<path d="M119.349 127.739C119.32 127.825 119.291 127.91 119.234 127.995C119.177 128.08 119.119 128.136 119.033 128.193C118.947 128.25 118.861 128.25 118.717 128.25C118.573 128.25 118.487 128.193 118.43 128.136C118.372 128.08 118.372 127.995 118.372 127.91C118.401 127.513 118.43 127.115 118.459 126.69C118.487 126.69 118.545 126.69 118.573 126.69C118.602 126.69 118.688 126.69 118.774 126.69C118.976 126.718 119.148 126.775 119.263 126.945C119.378 127.087 119.406 127.257 119.406 127.456C119.378 127.569 119.378 127.654 119.349 127.739ZM120.555 127.059C120.469 126.917 120.383 126.803 120.239 126.718C120.096 126.633 119.923 126.548 119.722 126.52C119.521 126.463 119.291 126.435 119.062 126.406C118.918 126.406 118.803 126.378 118.746 126.406C118.688 126.406 118.602 126.406 118.487 126.406C118.516 126.151 118.516 125.924 118.545 125.669C118.545 125.584 118.573 125.527 118.602 125.471C118.631 125.414 118.688 125.385 118.774 125.357C118.832 125.357 118.889 125.329 118.947 125.329C119.004 125.329 119.062 125.329 119.119 125.329C119.119 125.244 119.119 125.159 119.148 125.073C118.401 125.017 117.654 124.96 116.936 124.932C116.936 125.017 116.936 125.102 116.908 125.187C116.965 125.187 117.022 125.215 117.08 125.215C117.137 125.215 117.195 125.244 117.252 125.272C117.31 125.3 117.367 125.357 117.396 125.414C117.425 125.471 117.425 125.556 117.425 125.612C117.367 126.321 117.338 127.059 117.281 127.768C117.281 127.853 117.252 127.91 117.224 127.966C117.195 128.023 117.137 128.051 117.051 128.08C116.994 128.08 116.965 128.108 116.908 128.108C116.85 128.108 116.793 128.108 116.735 128.108C116.735 128.193 116.735 128.278 116.707 128.363C116.965 128.392 117.281 128.392 117.654 128.448C118.028 128.477 118.43 128.505 118.832 128.534C119.119 128.562 119.378 128.562 119.607 128.534C119.808 128.505 120.01 128.477 120.182 128.392C120.354 128.307 120.469 128.222 120.555 128.08C120.641 127.938 120.699 127.768 120.699 127.569C120.641 127.342 120.613 127.201 120.555 127.059ZM122.824 128.534C122.738 128.534 122.681 128.505 122.652 128.505C122.623 128.505 122.566 128.477 122.508 128.448C122.451 128.42 122.393 128.392 122.365 128.335C122.336 128.278 122.336 128.193 122.336 128.136C122.393 127.427 122.451 126.69 122.508 125.981C122.508 125.896 122.537 125.811 122.566 125.782C122.594 125.726 122.652 125.697 122.738 125.669C122.796 125.669 122.853 125.641 122.91 125.641C122.968 125.641 123.025 125.641 123.083 125.641C123.083 125.556 123.083 125.471 123.111 125.385C122.365 125.329 121.618 125.272 120.9 125.215C120.9 125.3 120.9 125.385 120.871 125.471C120.929 125.471 120.986 125.499 121.043 125.499C121.101 125.499 121.158 125.527 121.216 125.556C121.273 125.584 121.331 125.641 121.359 125.697C121.388 125.754 121.388 125.839 121.388 125.896C121.331 126.605 121.273 127.314 121.216 128.023C121.216 128.108 121.187 128.193 121.158 128.222C121.13 128.278 121.101 128.307 121.043 128.335C120.986 128.363 120.929 128.363 120.871 128.392C120.814 128.392 120.756 128.392 120.728 128.42C120.728 128.505 120.728 128.59 120.699 128.675C121.417 128.732 122.135 128.789 122.824 128.846C122.795 128.704 122.824 128.619 122.824 128.534Z" fill="#E3B060"/>
<path d="M33.7758 29.8928C33.8312 29.7794 33.8588 29.6376 33.8588 29.5241C33.8588 29.4107 33.8588 29.2972 33.8312 29.1838C33.8033 29.0703 33.7758 28.9569 33.7206 28.8434L33.5549 28.9002C33.6376 29.1271 33.6652 29.2972 33.6652 29.4674C33.6652 29.6376 33.5825 29.8077 33.4719 29.9495C33.3892 30.0346 33.3062 30.1197 33.2231 30.1764C33.1129 30.2331 33.0299 30.2615 32.8917 30.2615C32.7811 30.2615 32.643 30.2331 32.5048 30.1764C32.3667 30.1197 32.2009 30.0063 32.0352 29.8928C31.7314 29.6659 31.5381 29.4107 31.455 29.1838C31.3723 28.9569 31.3999 28.73 31.5381 28.5598C31.6486 28.418 31.8144 28.3329 32.0077 28.3046C32.2009 28.2762 32.4497 28.3329 32.726 28.4464L32.8366 28.3046L32.0628 27.709L31.9525 27.8508V28.021C31.8695 28.0493 31.7589 28.106 31.6762 28.1911C31.5656 28.2762 31.4826 28.3613 31.3723 28.4747C31.2342 28.6449 31.1512 28.8151 31.096 29.0136C31.0406 29.2121 31.013 29.3823 31.0406 29.5808C31.0685 29.7794 31.1236 29.9495 31.2063 30.1197C31.2893 30.2899 31.4275 30.4317 31.5932 30.5735C31.7589 30.7153 31.9246 30.8004 32.1182 30.8571C32.3115 30.9138 32.4772 30.9138 32.643 30.9138C32.809 30.8855 32.9747 30.8287 33.1404 30.7436C33.3062 30.6586 33.4443 30.5168 33.5549 30.3466C33.6376 30.1481 33.7206 30.0063 33.7758 29.8928Z" fill="#E3B060"/>
<path d="M35.5996 23.5684L33.8315 25.5253L34.3839 26.0641L34.4944 25.9507C34.4393 25.8372 34.3839 25.6955 34.3563 25.5537C34.3287 25.3835 34.3287 25.2984 34.3563 25.2133C34.3839 25.185 34.4117 25.1282 34.4393 25.0998C34.4669 25.0431 34.522 25.0148 34.5496 24.9864L34.605 24.9297L36.1522 26.4045C36.1798 26.4328 36.2074 26.4612 36.235 26.5179C36.235 26.5463 36.235 26.603 36.235 26.6597C36.235 26.6881 36.2074 26.7164 36.1522 26.7732C36.1244 26.8299 36.0692 26.8582 36.0692 26.8866L36.1798 27.0001L37.202 25.8656L37.0914 25.7522C37.0639 25.7805 37.0084 25.8089 36.9533 25.8372C36.8981 25.8656 36.8706 25.894 36.8427 25.9223C36.7876 25.9507 36.76 25.9507 36.7046 25.9507C36.677 25.9507 36.6218 25.9223 36.5943 25.894L35.047 24.4192L35.1022 24.3625C35.1298 24.3341 35.1576 24.3058 35.2128 24.249C35.2679 24.2207 35.2958 24.1639 35.3233 24.1356C35.3785 24.0789 35.4891 24.0789 35.6548 24.1072C35.8205 24.1356 35.9311 24.1639 36.0417 24.2207L36.1522 24.1072L35.5996 23.5684Z" fill="#E3B060"/>
<path d="M39.3292 20.2218C39.1359 20.2502 38.8871 20.392 38.6384 20.6189L37.5332 21.6399L37.6438 21.7533C37.6714 21.725 37.6992 21.725 37.7544 21.6683C37.8095 21.6399 37.8374 21.6115 37.8925 21.6115C37.9477 21.5832 37.9755 21.5832 38.0307 21.6115C38.0582 21.6115 38.0858 21.6399 38.1134 21.6966L39.3843 23.1431C39.4119 23.1714 39.4397 23.2281 39.4397 23.2565C39.4397 23.2848 39.4397 23.3416 39.4119 23.3699C39.4119 23.3983 39.3843 23.4266 39.3292 23.4834C39.3016 23.5401 39.2462 23.5685 39.2186 23.5968L39.3292 23.7103L40.4065 22.7176L40.2962 22.6042C40.2684 22.6326 40.2132 22.6609 40.1856 22.6892C40.1302 22.7176 40.1026 22.746 40.0751 22.746C40.0199 22.7744 39.9921 22.7744 39.9369 22.746C39.9093 22.746 39.8818 22.7176 39.8263 22.6609L39.3292 22.0937L39.4949 21.9519C39.633 21.8384 39.7436 21.6966 39.8263 21.5832C39.9093 21.4697 39.9645 21.3279 40.0199 21.1861C40.0475 21.0727 40.0475 20.9309 40.0199 20.8174C39.9921 20.704 39.9369 20.5622 39.8263 20.4487C39.6882 20.2502 39.5225 20.1651 39.3292 20.2218ZM39.55 21.4414C39.5225 21.5832 39.4397 21.725 39.3016 21.8668L39.2462 21.9235L38.4451 21.0443L38.5557 20.9309C38.7214 20.7891 38.8596 20.7323 38.9699 20.7323C39.108 20.7607 39.2186 20.8458 39.3567 20.9876C39.4949 21.1578 39.55 21.2996 39.55 21.4414Z" fill="#E3B060"/>
<path d="M43.1416 16.8468C42.9483 16.9035 42.7823 16.9886 42.6442 17.1304C42.4784 17.2439 42.3403 17.414 42.2576 17.5558C42.147 17.726 42.0918 17.8962 42.064 18.0663C42.0364 18.2649 42.0364 18.435 42.0918 18.6336C42.147 18.8321 42.23 19.0023 42.3682 19.2008C42.506 19.371 42.6442 19.5128 42.8102 19.5978C42.9759 19.6829 43.1416 19.7397 43.3349 19.768C43.5285 19.7964 43.6942 19.768 43.8599 19.7113C44.0257 19.6545 44.1914 19.5695 44.3571 19.456C44.5507 19.3142 44.6888 19.1441 44.7991 18.9739C44.8821 18.8037 44.9649 18.6336 44.9649 18.435C44.9927 18.2649 44.9649 18.0663 44.9097 17.8962C44.8546 17.6976 44.7716 17.5275 44.661 17.3857C44.5228 17.2155 44.3847 17.0737 44.219 16.9886C44.0532 16.9035 43.8875 16.8468 43.6942 16.8184C43.5006 16.7901 43.3073 16.7901 43.1416 16.8468ZM44.4401 19.0023C44.4125 19.1157 44.3295 19.2008 44.2468 19.2858C44.1362 19.3709 44.0532 19.3993 43.9427 19.3993C43.8324 19.3993 43.7218 19.371 43.6112 19.3142C43.5006 19.2575 43.3904 19.1724 43.2798 19.059C43.1692 18.9455 43.0586 18.8321 42.9483 18.6903C42.6996 18.3783 42.5614 18.0947 42.5339 17.8394C42.506 17.5842 42.5614 17.3857 42.7547 17.2439C42.8653 17.1588 42.9759 17.1304 43.0862 17.1304C43.1968 17.1304 43.3073 17.1588 43.4179 17.2155C43.5285 17.2722 43.6388 17.3573 43.7494 17.4707C43.8599 17.5842 43.9705 17.6976 44.0532 17.8111C44.1638 17.9529 44.2468 18.0947 44.3295 18.2365C44.3847 18.3783 44.4401 18.4918 44.4677 18.6336C44.4677 18.7754 44.4677 18.8888 44.4401 19.0023Z" fill="#E3B060"/>
<path d="M50.3251 15.0032C50.2973 15.0316 50.2421 15.0316 50.187 15.06C50.1315 15.0883 50.0764 15.0883 50.0488 15.0883C49.9934 15.0883 49.9658 15.0883 49.9382 15.06C49.9107 15.0316 49.8828 15.0032 49.8552 14.9749L48.833 13.3299C48.8055 13.3016 48.8055 13.2448 48.8055 13.2165C48.8055 13.1881 48.8055 13.1314 48.833 13.103C48.8606 13.0747 48.8885 13.0463 48.9436 12.9896C48.9712 12.9612 49.0266 12.9329 49.0542 12.9045L48.9712 12.7627L47.7557 13.5568L47.8384 13.6986C47.8663 13.6986 47.9214 13.6703 47.949 13.6419C48.0041 13.6135 48.032 13.6135 48.0871 13.6135C48.1423 13.6135 48.1701 13.6135 48.1977 13.6135C48.2253 13.6135 48.2529 13.6703 48.3083 13.727L48.0871 15.6839L47.2582 14.3509C47.2307 14.3226 47.2307 14.2658 47.2307 14.2375C47.2307 14.2091 47.2307 14.1524 47.2582 14.124C47.2861 14.0957 47.3137 14.0673 47.3412 14.039C47.3688 14.0106 47.424 13.9822 47.4518 13.9539L47.3688 13.8121L46.1533 14.6062L46.236 14.748C46.2636 14.748 46.2915 14.7196 46.3466 14.6913C46.4018 14.6629 46.4572 14.6629 46.4848 14.6629C46.5399 14.6629 46.5678 14.6629 46.6229 14.6913C46.6505 14.7196 46.6781 14.748 46.7059 14.7763L47.7281 16.4213C47.7557 16.4497 47.7557 16.5064 47.7557 16.5348C47.7557 16.5631 47.7557 16.6198 47.7281 16.6482C47.7003 16.6766 47.6727 16.7049 47.6175 16.7333C47.5621 16.7616 47.5345 16.79 47.507 16.8184L47.59 16.9602L48.8055 16.1661L48.7225 16.0242C48.6949 16.0526 48.6397 16.0526 48.5843 16.081C48.5292 16.1093 48.5016 16.1093 48.474 16.1093C48.4186 16.1093 48.391 16.1093 48.3634 16.1093C48.3359 16.081 48.3083 16.0526 48.2529 15.9675L48.474 14.0106L49.3026 15.3719C49.3305 15.4003 49.3305 15.457 49.3305 15.4854C49.3305 15.5137 49.3305 15.5705 49.2751 15.5988C49.2475 15.6272 49.2199 15.6556 49.1923 15.6839C49.1369 15.7123 49.1093 15.7406 49.0818 15.769L49.1645 15.9108L50.3803 15.1167L50.3251 15.0032Z" fill="#E3B060"/>
<path d="M53.6679 10.2383L51.3472 11.4578L51.7062 12.1668L51.8443 12.1101C51.8168 11.9967 51.8168 11.8548 51.8443 11.6847C51.8719 11.5145 51.8998 11.4294 51.9549 11.3727C51.9825 11.3443 52.0379 11.316 52.0931 11.2876C52.1482 11.2593 52.1761 11.2309 52.2312 11.2025L52.3142 11.1742L53.281 13.1027C53.3086 13.1595 53.3086 13.1878 53.3086 13.2162C53.3086 13.2446 53.281 13.3013 53.2534 13.3296C53.2258 13.358 53.1983 13.3864 53.1428 13.4147C53.0877 13.4431 53.0323 13.4714 53.0047 13.4998L53.0601 13.6416L54.3862 12.9326L54.3308 12.7908C54.3032 12.8191 54.248 12.8191 54.1926 12.8475C54.1375 12.8759 54.0823 12.8759 54.0547 12.8759C53.9993 12.8759 53.9717 12.8759 53.9442 12.8475C53.9166 12.8191 53.8887 12.7908 53.8612 12.7624L52.8944 10.8339L52.9771 10.8055C53.0047 10.7771 53.0601 10.7771 53.1153 10.7488C53.1704 10.7204 53.2258 10.6921 53.2534 10.6921C53.3364 10.6637 53.4191 10.692 53.5573 10.7771C53.6954 10.8622 53.806 10.9473 53.8887 11.0324L54.0269 10.9757L53.6679 10.2383Z" fill="#E3B060"/>
<path d="M58.3371 8.16797L56.127 9.10389L56.1821 9.2457C56.2097 9.2457 56.2651 9.21734 56.3202 9.21734C56.3754 9.21734 56.4308 9.18898 56.4584 9.21734C56.5135 9.21734 56.569 9.2457 56.569 9.2457C56.5965 9.27406 56.6241 9.30242 56.6241 9.33078L57.3424 11.1175C57.37 11.1743 57.37 11.2026 57.37 11.231C57.37 11.2593 57.3424 11.3161 57.3149 11.3444C57.2873 11.3728 57.2594 11.4011 57.2043 11.4295C57.1492 11.4579 57.1216 11.4862 57.0661 11.4862L57.1216 11.628L59.4699 10.6637L59.1936 9.84129L59.0554 9.89801C59.0554 9.95473 59.0554 10.0682 59.0278 10.2383C59 10.3802 58.9724 10.4936 58.9448 10.5787C58.9448 10.607 58.9173 10.6354 58.8621 10.6637C58.8342 10.6921 58.7791 10.7205 58.724 10.7489C58.6961 10.7772 58.641 10.8056 58.5858 10.8339C58.5304 10.8623 58.4752 10.8907 58.4477 10.8907C58.3646 10.919 58.2819 10.9474 58.2265 10.9757C58.1714 10.9757 58.1159 11.0041 58.0883 10.9757C58.0608 10.9757 58.0056 10.9474 57.9778 10.8907C57.9502 10.8623 57.9226 10.8055 57.8951 10.7205L57.5912 9.98309L57.8396 9.86965C57.8951 9.84129 57.9778 9.81293 58.0332 9.81293C58.0883 9.81293 58.1438 9.81293 58.1989 9.84129C58.2265 9.86965 58.2819 9.89801 58.3371 9.95473C58.3922 10.0115 58.4477 10.0682 58.4752 10.1249L58.6134 10.0682L58.1989 9.01881L58.0608 9.07553C58.0608 9.13226 58.0883 9.18898 58.0883 9.27406C58.0883 9.35915 58.0883 9.41587 58.0608 9.44423C58.0332 9.50095 58.0056 9.55768 57.9502 9.58604C57.8951 9.6144 57.8396 9.64276 57.7845 9.67112L57.5357 9.78454L57.1492 8.79192L57.5082 8.65011C57.5357 8.62175 57.5912 8.62175 57.6739 8.59339C57.7293 8.56503 57.7845 8.56503 57.8396 8.53667C57.9226 8.5083 58.0332 8.53667 58.1438 8.62175C58.2541 8.67847 58.3646 8.76356 58.4477 8.84864L58.5858 8.79192L58.3371 8.16797Z" fill="#E3B060"/>
<path d="M62.039 7.06186C62.0942 7.06186 62.1493 7.09022 62.1769 7.14694C62.2047 7.20367 62.2323 7.26039 62.2599 7.34547C62.315 7.544 62.3705 7.71417 62.3705 7.88434C62.398 8.05451 62.398 8.22467 62.398 8.39484C62.398 8.53665 62.398 8.70682 62.3705 8.82026C62.3429 8.96207 62.3429 9.07551 62.315 9.16057C62.2323 9.10385 62.1493 9.07552 62.0666 9.04715C61.9836 9.01879 61.9284 9.01879 61.8454 9.04715C61.7627 9.07552 61.6797 9.13221 61.6246 9.21729C61.5691 9.30238 61.5691 9.41585 61.5967 9.52927C61.5967 9.55763 61.6246 9.61435 61.6521 9.64271C61.6797 9.67107 61.7073 9.7278 61.7349 9.7278C61.7627 9.75616 61.8179 9.75616 61.873 9.78452C61.9284 9.78452 62.0112 9.78455 62.0942 9.75619C62.2047 9.72783 62.2875 9.64271 62.3705 9.52927C62.4532 9.41585 62.5086 9.21732 62.5638 8.96207C62.5913 8.73518 62.6192 8.45157 62.5913 8.11123C62.5638 7.77089 62.481 7.37383 62.3705 6.92005L62.9782 6.72152L63.6135 8.79187C63.6414 8.8486 63.6414 8.87699 63.6135 8.90535C63.6135 8.93371 63.586 8.96207 63.5308 9.01876C63.5032 9.04715 63.4754 9.04713 63.4202 9.07549C63.3651 9.10385 63.3097 9.10388 63.2821 9.13224L63.3372 9.27404L64.7463 8.82026L64.6912 8.67846C64.6636 8.67846 64.6082 8.70682 64.553 8.70682C64.4979 8.70682 64.4424 8.70682 64.4149 8.70682C64.3597 8.70682 64.3319 8.67843 64.3043 8.65007C64.2767 8.62173 64.2491 8.59337 64.2491 8.53665L63.6965 6.6648C63.6965 6.63644 63.669 6.57972 63.6965 6.55136C63.6965 6.52299 63.7241 6.46627 63.7795 6.43791C63.8071 6.40955 63.8623 6.38119 63.8898 6.35283C63.9453 6.32447 63.9728 6.32446 64.028 6.2961L63.9728 6.1543L61.6797 6.89169L61.7349 7.0335C61.7627 7.0335 61.7903 7.0335 61.873 7.00514C61.9284 7.06186 61.9836 7.06186 62.039 7.06186Z" fill="#E3B060"/>
<path d="M68.9457 7.45881C68.8906 7.57225 68.78 7.65734 68.6143 7.6857C68.5313 7.71406 68.4485 7.71406 68.3931 7.6857C68.338 7.65734 68.2825 7.62898 68.255 7.60061L68.0341 6.57961C68.0617 6.57961 68.0892 6.57961 68.1168 6.55124C68.1444 6.55124 68.1722 6.52288 68.1998 6.52288C68.3931 6.46616 68.5588 6.49452 68.697 6.57961C68.8351 6.66469 68.9181 6.8065 68.9457 6.97666C69.0287 7.17519 69.0009 7.34536 68.9457 7.45881ZM69.5259 6.46616C69.4429 6.38108 69.3326 6.32435 69.222 6.29599C69.1114 6.26763 68.9733 6.23927 68.8351 6.23927C68.697 6.23927 68.5313 6.26763 68.3655 6.29599C68.3104 6.29599 68.2274 6.32435 68.1722 6.35272C68.1168 6.38108 68.0341 6.38108 67.9787 6.40944L67.8129 5.67204C67.8129 5.64368 67.8129 5.58696 67.8129 5.5586C67.8129 5.53024 67.8405 5.47351 67.8959 5.47351C67.9235 5.44515 67.9787 5.44515 68.0341 5.41679C68.0892 5.38843 68.1444 5.38843 68.1722 5.36007L68.1444 5.21826L66.708 5.53024L66.7356 5.67204C66.7632 5.67204 66.8183 5.67204 66.8737 5.67204C66.9289 5.67204 66.984 5.67204 67.0119 5.67204C67.067 5.67204 67.0946 5.7004 67.1222 5.72877C67.15 5.75713 67.15 5.78549 67.1776 5.84221L67.5642 7.74242C67.5642 7.79914 67.5642 7.82751 67.5642 7.85587C67.5642 7.88423 67.5366 7.91259 67.4815 7.94095C67.4539 7.96931 67.426 7.96931 67.3709 7.99767C67.3158 8.02603 67.2603 8.02604 67.2328 8.0544L67.2603 8.1962L68.8351 7.85587C68.9733 7.82751 69.0839 7.79914 69.1944 7.74242C69.3047 7.6857 69.3877 7.60062 69.4707 7.51553C69.5535 7.43045 69.6089 7.317 69.664 7.20356C69.6916 7.09011 69.6916 6.9483 69.664 6.83486C69.664 6.66469 69.6089 6.55124 69.5259 6.46616Z" fill="#E3B060"/>
<path d="M74.1948 6.94844C74.3054 6.89172 74.4159 6.83499 74.4987 6.74991C74.5817 6.66483 74.6647 6.57974 74.7198 6.49466C74.775 6.40957 74.8304 6.29613 74.858 6.15432L74.6922 6.06924C74.6092 6.26777 74.4987 6.43794 74.3605 6.55138C74.2227 6.66483 74.0845 6.74991 73.9185 6.74991C73.8082 6.77827 73.6976 6.74991 73.587 6.72155C73.4765 6.69319 73.3937 6.63646 73.3107 6.55138C73.228 6.4663 73.1726 6.35285 73.0899 6.21104C73.0344 6.06924 72.9793 5.87071 72.9517 5.67218C72.8963 5.27512 72.9241 4.99151 73.0344 4.76462C73.1174 4.53772 73.2832 4.39592 73.5319 4.36756C73.7252 4.3392 73.8909 4.39592 74.0291 4.50936C74.1672 4.62281 74.3329 4.8497 74.4435 5.13331L74.6092 5.10495L74.4711 4.1123L74.3054 4.14067L74.1948 4.25411C74.1121 4.22575 74.0015 4.19739 73.8633 4.16903C73.7252 4.14067 73.587 4.14067 73.4489 4.16903C73.2556 4.19739 73.0623 4.25411 72.8963 4.3392C72.7306 4.42428 72.5924 4.56609 72.4821 4.70789C72.3715 4.8497 72.2885 5.01987 72.2334 5.2184C72.178 5.41693 72.178 5.61546 72.2058 5.81399C72.2334 6.04088 72.2885 6.21104 72.3991 6.38121C72.4821 6.55138 72.62 6.69319 72.7581 6.77827C72.8963 6.89172 73.0623 6.94844 73.228 7.00516C73.3937 7.03352 73.587 7.06188 73.7806 7.03352C73.9463 7.03352 74.0845 7.00516 74.1948 6.94844Z" fill="#E3B060"/>
<path d="M79.8309 3.74365L77.2339 3.8571L77.2615 4.65122H77.3996C77.4275 4.53777 77.4826 4.39596 77.5656 4.25416C77.6483 4.11235 77.7313 4.02727 77.7865 4.02727C77.8141 4.02727 77.8695 4.02727 77.9246 3.9989C77.9798 3.9989 78.0352 3.9989 78.0904 3.9989H78.1734L78.2839 6.18273C78.2839 6.23945 78.2839 6.26781 78.2561 6.29617C78.2285 6.32453 78.2009 6.3529 78.1734 6.38126C78.1458 6.38126 78.1179 6.40962 78.0352 6.40962C77.9798 6.40962 77.9246 6.43798 77.8695 6.43798V6.57979L79.3613 6.52306V6.38126C79.3061 6.38126 79.2783 6.38126 79.1956 6.3529C79.1401 6.3529 79.085 6.32453 79.0574 6.32453C79.002 6.29617 78.9744 6.26781 78.9468 6.23945C78.9193 6.21109 78.9193 6.15437 78.9193 6.12601L78.8087 3.97054H78.8917C78.9468 3.97054 78.9744 3.97054 79.0574 3.97054C79.1126 3.97054 79.168 3.97054 79.1956 3.97054C79.2783 3.97054 79.3613 4.05563 79.4443 4.16907C79.527 4.31088 79.61 4.42432 79.6376 4.53777H79.7757L79.8309 3.74365Z" fill="#E3B060"/>
<path d="M84.6111 5.19016C84.5005 5.1618 84.4175 5.13344 84.3069 5.10508V5.07672C84.4175 5.04836 84.5005 5.01999 84.5832 4.99163C84.6662 4.96327 84.7489 4.93491 84.8044 4.87819C84.8871 4.82147 84.9425 4.76474 84.9701 4.70802C84.9976 4.6513 85.0252 4.56621 85.0252 4.45277C85.0252 4.25424 84.9701 4.08407 84.8044 3.97063C84.6386 3.85718 84.3899 3.80046 84.003 3.7721L82.5388 3.68701V3.82882C82.5664 3.82882 82.6218 3.85718 82.6769 3.85718C82.7324 3.85718 82.76 3.88554 82.8151 3.9139C82.8703 3.94226 82.8981 3.97063 82.8981 3.99899C82.8981 4.02735 82.9257 4.05571 82.9257 4.11243L82.8427 6.041C82.8427 6.09773 82.8427 6.12609 82.8151 6.15445C82.7875 6.18281 82.76 6.21117 82.7045 6.23953C82.677 6.23953 82.6494 6.26789 82.5664 6.26789C82.5112 6.26789 82.4561 6.26789 82.4282 6.26789V6.4097L83.8373 6.46642C84.0306 6.46642 84.2242 6.46642 84.3623 6.46642C84.5005 6.43806 84.6386 6.4097 84.7489 6.35298C84.8595 6.29626 84.9425 6.23953 84.9976 6.12609C85.0531 6.041 85.0807 5.92756 85.1082 5.78575C85.1082 5.67231 85.0807 5.55886 85.0531 5.47378C84.9976 5.38869 84.9425 5.30361 84.8595 5.24689C84.8043 5.27525 84.6938 5.21852 84.6111 5.19016ZM84.1412 4.84983C84.0309 4.93491 83.8927 4.99163 83.6716 4.96327H83.561L83.6164 3.94226C83.644 3.94226 83.6716 3.94226 83.7267 3.94226C83.7546 3.94226 83.8097 3.94226 83.8097 3.94226C83.9754 3.94226 84.1136 3.99899 84.1687 4.08407C84.2517 4.16915 84.2793 4.2826 84.2793 4.45277C84.2793 4.62294 84.2242 4.76474 84.1412 4.84983ZM84.1966 6.21117C84.086 6.29626 83.9754 6.35298 83.8097 6.35298C83.7267 6.35298 83.644 6.32462 83.5886 6.29626C83.5334 6.26789 83.5059 6.21117 83.4783 6.18281L83.5334 5.19016C83.561 5.19016 83.5886 5.19016 83.6164 5.19016C83.644 5.19016 83.6992 5.19016 83.6992 5.19016C83.9203 5.19016 84.0585 5.24689 84.1687 5.36033C84.2793 5.47378 84.3348 5.61558 84.3069 5.81411C84.3623 5.98428 84.3069 6.12609 84.1966 6.21117Z" fill="#E3B060"/>
<path d="M90.0532 4.33919C89.8875 4.2541 89.6939 4.19738 89.5006 4.16902C89.3073 4.14066 89.1137 4.14066 88.9204 4.19738C88.7272 4.2541 88.5614 4.31083 88.4233 4.42427C88.2851 4.53772 88.147 4.67952 88.064 4.84969C87.9813 5.01986 87.8983 5.21839 87.8707 5.44528C87.8431 5.67217 87.8707 5.87067 87.9258 6.04084C87.9813 6.21101 88.064 6.38118 88.1745 6.52298C88.2851 6.66479 88.4233 6.77824 88.589 6.86332C88.7547 6.9484 88.9204 7.00513 89.1416 7.03349C89.39 7.06185 89.5836 7.06185 89.7769 7.00513C89.9702 6.9484 90.1362 6.86332 90.2741 6.74987C90.4122 6.63643 90.5228 6.49462 90.6058 6.32445C90.6885 6.15429 90.744 5.95576 90.7715 5.75723C90.7991 5.53034 90.7715 5.33181 90.7164 5.13331C90.661 4.96314 90.5782 4.79297 90.4677 4.65116C90.3571 4.53772 90.2189 4.42427 90.0532 4.33919ZM89.5006 6.8066C89.39 6.86332 89.2797 6.89168 89.1692 6.86332C89.031 6.83496 88.948 6.8066 88.8653 6.72151C88.7823 6.63643 88.7272 6.55134 88.6717 6.4379C88.6166 6.32445 88.6166 6.18265 88.589 6.01251C88.589 5.8707 88.589 5.7005 88.6166 5.53034C88.6717 5.13328 88.7547 4.8213 88.8929 4.6228C89.031 4.42427 89.2243 4.33919 89.4455 4.36755C89.5836 4.39591 89.6939 4.42427 89.7769 4.50936C89.8599 4.59444 89.9151 4.70786 89.9702 4.8213C89.9981 4.93475 90.0256 5.07655 90.0256 5.24672C90.0256 5.38853 90.0256 5.5587 89.9981 5.7005C89.9702 5.89903 89.9426 6.04084 89.8875 6.18265C89.8321 6.32445 89.7769 6.46626 89.7218 6.55134C89.6663 6.66479 89.5836 6.74987 89.5006 6.8066Z" fill="#E3B060"/>
<path d="M99.557 9.04736C99.5295 9.04736 99.4743 9.019 99.4189 8.99064C99.3637 8.96228 99.3362 8.93392 99.3086 8.93392C99.2807 8.90556 99.2532 8.8772 99.2256 8.82047C99.2256 8.79211 99.2256 8.73539 99.2256 8.70703L99.7227 6.83518C99.7227 6.80682 99.7506 6.75009 99.7782 6.72173C99.8058 6.69337 99.8333 6.66501 99.8888 6.66501C99.9439 6.66501 99.9715 6.66501 100.027 6.66501C100.082 6.66501 100.11 6.66501 100.165 6.69337L100.193 6.55157L97.0706 5.67236L97.043 5.81417C97.0706 5.81417 97.0982 5.84253 97.1536 5.87089C97.2088 5.89925 97.2363 5.92762 97.2918 5.95598C97.3469 5.98434 97.3469 6.0127 97.3745 6.06942C97.3745 6.09778 97.3745 6.15451 97.3745 6.18287L96.8773 8.05472C96.8773 8.11144 96.8497 8.1398 96.8219 8.16816C96.7943 8.19652 96.7667 8.22488 96.7116 8.22488C96.6837 8.22488 96.6286 8.22488 96.5734 8.22488C96.518 8.22488 96.4629 8.19652 96.4353 8.19652L96.4077 8.33833L97.7889 8.73539L97.8165 8.59358C97.7889 8.59358 97.7338 8.56522 97.6784 8.53686C97.6232 8.5085 97.5956 8.48014 97.5681 8.48014C97.5402 8.45177 97.5126 8.42341 97.4851 8.36669C97.4851 8.33833 97.4851 8.28161 97.4851 8.25325L98.0377 6.18287L99.0874 6.49484L98.5348 8.56522C98.5348 8.62194 98.5073 8.6503 98.4797 8.67867C98.4521 8.70703 98.4245 8.70703 98.3691 8.73539C98.3415 8.73539 98.314 8.73539 98.2585 8.73539C98.2034 8.73539 98.1482 8.70703 98.1204 8.70703L98.0928 8.84883L99.4743 9.24589L99.557 9.04736Z" fill="#E3B060"/>
<path d="M104.806 8.22474C104.668 8.11129 104.502 7.99785 104.309 7.91276C104.116 7.82768 103.922 7.79932 103.729 7.79932C103.535 7.79932 103.37 7.82768 103.204 7.91276C103.038 7.99785 102.872 8.08293 102.762 8.2531C102.624 8.3949 102.513 8.56507 102.458 8.79196C102.375 8.99049 102.348 9.18902 102.375 9.38755C102.375 9.58608 102.43 9.75625 102.513 9.92642C102.596 10.0966 102.707 10.2384 102.845 10.3518C102.983 10.4653 103.149 10.5787 103.342 10.6355C103.563 10.7205 103.784 10.7773 103.977 10.7489C104.171 10.7489 104.336 10.6922 104.53 10.6071C104.696 10.522 104.834 10.4086 104.944 10.2668C105.055 10.1249 105.165 9.95478 105.248 9.75625C105.331 9.55772 105.359 9.33083 105.359 9.16066C105.359 8.96213 105.304 8.79196 105.221 8.6218C105.055 8.47999 104.945 8.33818 104.806 8.22474ZM103.701 10.4936C103.591 10.522 103.48 10.522 103.37 10.4653C103.259 10.4086 103.149 10.3518 103.093 10.2668C103.038 10.1817 103.01 10.0682 102.983 9.92642C102.983 9.81297 102.983 9.67116 103.01 9.501C103.038 9.35919 103.093 9.18902 103.149 9.01885C103.287 8.65016 103.452 8.36654 103.646 8.19638C103.839 8.02621 104.033 7.99785 104.254 8.08293C104.392 8.13965 104.475 8.19637 104.53 8.30982C104.585 8.3949 104.613 8.53671 104.64 8.65016C104.64 8.79196 104.64 8.90541 104.613 9.07558C104.585 9.21738 104.53 9.38755 104.475 9.52936C104.419 9.69953 104.336 9.86969 104.254 9.98314C104.171 10.1249 104.088 10.21 104.005 10.3235C103.922 10.4086 103.812 10.4653 103.701 10.4936Z" fill="#E3B060"/>
<path d="M108.757 12.7057C108.729 12.7057 108.674 12.7057 108.619 12.6774L107.542 12.1385C107.873 11.94 108.177 11.6564 108.453 11.3444C108.729 11.0041 108.978 10.6637 109.144 10.3234L109.779 10.6354L108.84 12.5923C108.812 12.649 108.785 12.7057 108.757 12.7057ZM108.757 12.9893C108.785 13.0177 108.84 13.0461 108.895 13.0744C108.951 13.1028 109.006 13.1312 109.033 13.1595C109.116 13.2162 109.171 13.3297 109.199 13.5282C109.227 13.6984 109.254 13.8685 109.227 14.0104L109.365 14.0671L109.724 13.273L109.558 13.1879C109.475 13.1595 109.448 13.1028 109.42 13.0744C109.393 13.0177 109.393 12.961 109.42 12.9043L110.249 11.1459C110.277 11.1175 110.304 11.0891 110.332 11.0608C110.359 11.0324 110.415 11.0324 110.442 11.0324C110.498 11.0324 110.525 11.0608 110.581 11.0608C110.636 11.0891 110.663 11.0892 110.719 11.1175L110.774 10.9757L108.564 9.86963L108.508 10.0114C108.536 10.0398 108.591 10.0682 108.646 10.0965C108.702 10.1249 108.729 10.1816 108.757 10.2099C108.785 10.2667 108.812 10.295 108.785 10.3517C108.785 10.4085 108.757 10.4369 108.729 10.5219C108.591 10.7772 108.398 11.0608 108.094 11.3728C107.79 11.6847 107.514 11.9116 107.238 12.0818L106.989 11.9683L106.602 12.7625L106.74 12.8192C106.851 12.7057 106.961 12.6207 107.127 12.5356C107.293 12.4505 107.403 12.4221 107.514 12.4505C107.569 12.4788 107.624 12.4788 107.652 12.5072C107.707 12.5356 107.762 12.5639 107.79 12.5923L108.757 12.9893Z" fill="#E3B060"/>
<path d="M117.322 18.0378C117.294 18.0094 117.266 18.0094 117.239 17.9811C117.211 17.9527 117.183 17.9244 117.156 17.896C117.128 17.8676 117.128 17.8393 117.101 17.8109C117.073 17.7542 117.073 17.6975 117.101 17.6124C117.101 17.5557 117.128 17.4706 117.128 17.3855C117.156 17.3004 117.156 17.2153 117.156 17.1586C117.183 16.9884 117.183 16.8183 117.156 16.6765C117.128 16.5063 117.045 16.3645 116.935 16.2227L116.963 16.1943C117.045 16.1943 117.101 16.166 117.183 16.1376C117.266 16.1092 117.349 16.0525 117.46 15.9674C117.515 15.9391 117.57 15.8823 117.653 15.8256C117.736 15.7689 117.791 15.7405 117.847 15.7405C117.847 15.8823 117.874 15.9674 117.902 16.0242C117.929 16.0809 117.957 16.1376 118.012 16.166C118.095 16.2227 118.178 16.251 118.261 16.2227C118.344 16.1943 118.427 16.1376 118.482 16.0525C118.537 15.9674 118.565 15.8823 118.537 15.7689C118.51 15.6838 118.454 15.5987 118.344 15.5136C118.289 15.4569 118.206 15.4286 118.151 15.4286C118.095 15.4002 118.012 15.4002 117.957 15.4286C117.847 15.4569 117.736 15.4853 117.681 15.542C117.625 15.5987 117.543 15.6555 117.432 15.7122C117.349 15.7689 117.266 15.8256 117.183 15.8823C117.101 15.9391 116.99 15.9674 116.852 15.9958C116.797 15.9958 116.741 15.9958 116.686 15.9958C116.631 15.9674 116.576 15.9391 116.548 15.9107L116.438 15.854L116.935 15.0882C116.963 15.0599 116.99 15.0315 117.018 15.0031C117.045 14.9748 117.101 14.9748 117.156 15.0031C117.183 15.0031 117.211 15.0315 117.266 15.0599C117.322 15.0882 117.349 15.1166 117.405 15.1166L117.487 15.0031L116.272 14.1807L116.189 14.2941C116.217 14.3225 116.244 14.3508 116.272 14.3792C116.327 14.4359 116.355 14.4643 116.355 14.4926C116.382 14.5494 116.382 14.5777 116.382 14.6061C116.382 14.6344 116.355 14.6628 116.327 14.7195L115.25 16.3361C115.222 16.3645 115.194 16.3928 115.167 16.4212C115.139 16.4496 115.084 16.4496 115.056 16.4212C115.028 16.4212 114.973 16.3928 114.918 16.3645C114.863 16.3361 114.835 16.3078 114.808 16.3078L114.725 16.4212L115.94 17.2437L116.023 17.1302C115.996 17.1019 115.968 17.0735 115.913 17.0452C115.857 16.9884 115.83 16.9601 115.83 16.9601C115.802 16.9317 115.802 16.875 115.802 16.8466C115.802 16.8183 115.83 16.7615 115.857 16.7332L116.327 16.0242C116.41 16.0809 116.465 16.1376 116.521 16.1943C116.576 16.251 116.603 16.3078 116.603 16.3645C116.631 16.4212 116.631 16.5063 116.631 16.563C116.631 16.6197 116.631 16.7048 116.603 16.7899C116.576 16.9034 116.548 17.0452 116.521 17.187C116.493 17.3288 116.438 17.4706 116.41 17.584L117.266 18.1796L117.322 18.0378Z" fill="#E3B060"/>
<path d="M121.438 18.2647C121.466 18.3214 121.466 18.3781 121.438 18.4349C121.41 18.4916 121.383 18.5483 121.328 18.605C121.217 18.7468 121.079 18.8886 120.968 19.0021C120.858 19.1155 120.72 19.2006 120.581 19.3141C120.471 19.3991 120.333 19.4842 120.222 19.541C120.112 19.5977 120.002 19.6544 119.919 19.6828C119.919 19.5977 119.891 19.4842 119.891 19.4275C119.891 19.3708 119.836 19.2857 119.78 19.2573C119.697 19.2006 119.615 19.1723 119.532 19.1723C119.421 19.1723 119.338 19.229 119.283 19.3141C119.255 19.3424 119.228 19.3708 119.228 19.4275C119.2 19.4559 119.2 19.5126 119.2 19.5693C119.2 19.626 119.2 19.6544 119.228 19.7111C119.255 19.7678 119.311 19.8246 119.366 19.8813C119.449 19.938 119.559 19.9947 119.725 19.9947C119.863 19.9947 120.057 19.938 120.278 19.8529C120.499 19.7678 120.72 19.5977 120.996 19.3991C121.272 19.2006 121.548 18.917 121.852 18.5483L122.35 18.9737L120.913 20.5903C120.886 20.6187 120.858 20.647 120.83 20.6754C120.803 20.6754 120.747 20.6754 120.72 20.6754C120.692 20.6754 120.664 20.647 120.609 20.6187C120.554 20.5903 120.526 20.562 120.499 20.5336L120.416 20.647L121.548 21.583L121.631 21.4695C121.604 21.4412 121.576 21.4128 121.521 21.3561C121.493 21.2994 121.466 21.271 121.438 21.2426C121.41 21.1859 121.41 21.1576 121.41 21.1292C121.41 21.1008 121.438 21.0441 121.466 21.0157L122.681 19.5126C122.709 19.4842 122.736 19.4559 122.764 19.4275C122.792 19.3991 122.847 19.3991 122.875 19.4275C122.902 19.4559 122.958 19.4559 123.013 19.4842C123.068 19.5126 123.096 19.541 123.123 19.5693L123.206 19.4559L121.328 17.896L121.245 18.0094C121.245 18.0378 121.3 18.0662 121.328 18.1229C121.383 18.1796 121.41 18.208 121.438 18.2647Z" fill="#E3B060"/>
<path d="M127.765 23.9084C127.682 23.7383 127.571 23.5681 127.433 23.4263C127.295 23.2845 127.157 23.171 126.991 23.1143C126.826 23.0292 126.687 23.0009 126.522 23.0009C126.356 23.0009 126.19 23.0292 126.024 23.086C125.859 23.1427 125.693 23.2278 125.527 23.3696L125.196 23.0292L125.776 22.462C125.803 22.4336 125.831 22.4053 125.886 22.4053C125.914 22.3769 125.969 22.4053 126.024 22.4053C126.052 22.4336 126.08 22.4336 126.135 22.462C126.19 22.4904 126.218 22.5187 126.245 22.5471L126.356 22.4336L125.334 21.3843L125.223 21.4977C125.251 21.5261 125.278 21.5544 125.306 21.6112C125.334 21.6679 125.361 21.6963 125.389 21.753C125.416 21.8097 125.416 21.8381 125.389 21.8948C125.389 21.9231 125.361 21.9515 125.334 21.9799L123.98 23.3412C123.952 23.3696 123.925 23.3979 123.869 23.3979C123.842 23.3979 123.787 23.3979 123.759 23.3696C123.731 23.3696 123.704 23.3412 123.648 23.2845C123.593 23.2561 123.565 23.2278 123.538 23.1994L123.427 23.3128L124.449 24.3622L124.56 24.2488C124.532 24.2204 124.505 24.1921 124.477 24.1353C124.449 24.0786 124.422 24.0502 124.422 24.0219C124.394 23.9652 124.394 23.9368 124.422 23.9084C124.422 23.8801 124.449 23.8234 124.477 23.795L125.113 23.1427L125.444 23.483C125.306 23.6532 125.196 23.795 125.113 23.9935C125.03 24.1637 125.002 24.3339 125.002 24.5324C125.002 24.7026 125.057 24.8727 125.113 25.0429C125.196 25.213 125.278 25.3549 125.416 25.4967C125.582 25.6668 125.748 25.7803 125.942 25.8654C126.107 25.9505 126.301 25.9788 126.466 25.9504C126.632 25.9504 126.826 25.8937 126.991 25.8086C127.157 25.7235 127.323 25.6101 127.461 25.4683C127.599 25.3265 127.71 25.1563 127.793 24.9862C127.875 24.816 127.903 24.6175 127.903 24.4473C127.903 24.2488 127.848 24.0786 127.765 23.9084ZM125.859 25.525C125.748 25.4966 125.665 25.4683 125.582 25.3832C125.5 25.2981 125.444 25.1847 125.416 25.0996C125.389 24.9861 125.416 24.8727 125.444 24.7593C125.472 24.6458 125.555 24.5324 125.638 24.3906C125.72 24.2771 125.831 24.1353 125.942 24.0219C126.218 23.7383 126.466 23.5681 126.715 23.483C126.936 23.3979 127.129 23.4547 127.295 23.5965C127.378 23.6815 127.433 23.795 127.461 23.9084C127.461 24.0219 127.461 24.1353 127.406 24.2488C127.35 24.3622 127.295 24.4757 127.185 24.6175C127.102 24.7309 126.991 24.8444 126.881 24.9578C126.743 25.0996 126.632 25.2131 126.522 25.2981C126.411 25.3832 126.273 25.4683 126.162 25.4967C126.08 25.525 125.969 25.525 125.859 25.525Z" fill="#E3B060"/>
<path d="M130.279 28.9286C130.196 28.8719 130.113 28.8152 130.058 28.7017C129.948 28.5599 129.92 28.4465 129.948 28.3331C129.975 28.2196 130.085 28.1062 130.224 27.9644L130.555 27.6808C130.583 27.6524 130.61 27.624 130.666 27.624C130.693 27.624 130.749 27.624 130.776 27.6524C130.804 27.6808 130.832 27.7091 130.887 27.7375C130.914 27.7658 130.97 27.7942 130.997 27.8226L131.108 27.7375L130.196 26.603L130.085 26.6881C130.113 26.7165 130.113 26.7448 130.141 26.8016C130.168 26.8583 130.168 26.8866 130.196 26.9434C130.196 27.0001 130.196 27.0284 130.196 27.0852C130.196 27.1135 130.168 27.1419 130.113 27.1703L129.643 27.5673C129.45 27.7375 129.34 27.9076 129.34 28.0778C129.312 28.248 129.423 28.4748 129.588 28.7017C129.643 28.7868 129.699 28.8435 129.754 28.8719C129.809 28.9003 129.865 28.957 129.948 28.9854C130.003 29.0137 130.058 29.0421 130.141 29.0704C130.196 29.0988 130.279 29.1272 130.334 29.1555L129.671 29.6944C129.643 29.7227 129.588 29.7511 129.561 29.7511C129.533 29.7511 129.478 29.7511 129.45 29.7227C129.423 29.7227 129.395 29.666 129.34 29.6377C129.284 29.5809 129.257 29.5526 129.229 29.5242L129.119 29.6093L130.058 30.7721L130.168 30.687C130.141 30.6587 130.113 30.6019 130.085 30.5736C130.058 30.5169 130.03 30.4885 130.03 30.4601C130.03 30.4034 130.03 30.3751 130.03 30.3183C130.058 30.29 130.058 30.2616 130.113 30.2332L131.578 29.0137C131.605 28.9854 131.633 28.957 131.688 28.957C131.716 28.957 131.771 28.957 131.798 28.9854C131.826 29.0137 131.881 29.0421 131.909 29.0704C131.937 29.0988 131.992 29.1272 132.02 29.1555L132.13 29.0704L131.218 27.936L131.108 28.0211C131.135 28.0495 131.135 28.0778 131.163 28.1345C131.191 28.1913 131.218 28.2196 131.218 28.2763C131.218 28.3331 131.218 28.3614 131.218 28.4181C131.191 28.4465 131.191 28.4748 131.135 28.5032L130.445 29.0704C130.417 29.0137 130.362 28.9854 130.279 28.9286Z" fill="#E3B060"/>
</svg>
