<svg width="22" height="34" viewBox="0 0 22 34" fill="none" xmlns="http://www.w3.org/2000/svg">
<path d="M1.12695 26.0667C0.75299 26.0666 0.403379 26.2532 0.193735 26.5646C-0.0159092 26.8761 -0.0582737 27.2718 0.0806519 27.621L0.756772 29.321C0.926665 29.7523 1.34183 30.0349 1.80307 30.0333H1.98506V32.3C1.98506 33.2389 2.74183 34 3.67536 34C4.60889 34 5.36566 33.2389 5.36566 32.3V32.2309C6.43281 31.9526 6.87341 30.8901 7.00525 30.0333H14.9947C15.1266 30.8901 15.5672 31.9526 16.6343 32.2309V32.3C16.6343 33.2389 17.3911 34 18.3246 34C19.2582 34 20.0149 33.2389 20.0149 32.3V30.0333H20.1969C20.6582 30.0349 21.0733 29.7523 21.2432 29.321L21.9193 27.621C22.0583 27.2718 22.0159 26.8761 21.8063 26.5646C21.5966 26.2532 21.247 26.0666 20.8731 26.0667H20.5784V9.01C20.8653 8.91838 21.1033 8.71402 21.2382 8.44333L21.8016 7.31C21.9778 6.9584 21.9599 6.54005 21.7543 6.20496C21.5488 5.86988 21.1851 5.66609 20.7936 5.66667H20.3631L19.5479 4.02673C19.3584 3.64144 18.9673 3.39827 18.5399 3.4H13.2537V0.566667C13.2537 0.253705 13.0015 0 12.6903 0H9.3097C8.99852 0 8.74626 0.253705 8.74626 0.566667V3.4H3.46013C3.03289 3.3983 2.64191 3.64119 2.45214 4.02617L1.63686 5.66667H1.20639C0.814925 5.66609 0.451208 5.86988 0.245676 6.20496C0.040143 6.54005 0.0222486 6.9584 0.19841 7.31L0.761843 8.44333C0.896634 8.7141 1.13462 8.9185 1.42162 9.01V26.0667H1.12695ZM4.80223 31.1667C4.49105 31.1667 4.23879 31.4204 4.23879 31.7333V32.3C4.23879 32.613 3.98654 32.8667 3.67536 32.8667C3.36418 32.8667 3.11193 32.613 3.11193 32.3V30.0333H5.86374C5.76007 30.5286 5.49243 31.1667 4.80223 31.1667ZM18.8881 32.3C18.8881 32.613 18.6358 32.8667 18.3246 32.8667C18.0135 32.8667 17.7612 32.613 17.7612 32.3V31.7333C17.7612 31.4204 17.5089 31.1667 17.1978 31.1667C16.5076 31.1667 16.2399 30.5286 16.1368 30.0333H18.8881V32.3ZM20.1969 28.9H1.80363L1.12751 27.2H20.8725L20.1969 28.9ZM9.87313 1.13333H12.1269V3.4H9.87313V1.13333ZM3.46013 4.53333H18.5399L19.1033 5.66667H2.89669L3.46013 4.53333ZM20.7936 6.8L20.2302 7.93333H1.76983L1.20639 6.8H20.7936ZM2.54849 9.06667H19.4515V26.0667H2.54849V9.06667Z" fill="white"/>
<path d="M16.0709 10.2H5.9291C4.68439 10.2 3.67536 11.2148 3.67536 12.4666V22.1C3.67536 23.3518 4.68439 24.3666 5.9291 24.3666H16.0709C17.3156 24.3666 18.3246 23.3518 18.3246 22.1V12.4666C18.3246 11.2148 17.3156 10.2 16.0709 10.2ZM7.07061 21.76C7.003 21.3633 7.16865 21.0647 7.46783 20.57C7.5608 20.4158 7.65433 20.2606 7.73828 20.0991C7.97739 19.6316 8.09375 19.1104 8.07634 18.5849C8.61444 19.092 9.02716 19.7186 9.28153 20.4147C9.34634 20.6102 9.51156 20.7549 9.713 20.7926C9.91444 20.8302 10.1203 20.755 10.2507 20.596C10.3811 20.437 10.4153 20.2194 10.3402 20.0277C10.091 19.3417 9.71623 18.7088 9.23533 18.1616C9.33787 18.0653 9.43873 17.9673 9.54296 17.8726C9.96949 17.5133 10.3523 17.1046 10.6833 16.6549C10.8997 16.3369 11.0587 15.9832 11.1533 15.6099C11.6901 16.3457 11.9905 17.2289 12.0142 18.1412C11.867 18.2735 11.7109 18.3954 11.5471 18.5062C11.3736 18.6145 11.272 18.8089 11.2816 19.014C11.2912 19.2192 11.4104 19.4031 11.5932 19.4947C11.776 19.5863 11.9938 19.5712 12.1624 19.4553C12.8656 18.9911 13.4544 18.372 13.8842 17.6448C14.4534 18.6727 14.8048 19.8079 14.9164 20.9791C15.0375 21.7502 14.9102 22.5401 14.553 23.2333H7.96084C7.53297 22.8356 7.22455 22.3251 7.07061 21.76ZM17.1978 22.1C17.1978 22.7259 16.6933 23.2333 16.0709 23.2333H15.8061C16.0566 22.4725 16.135 21.6649 16.0354 20.8697C15.8744 19.1663 15.2642 17.537 14.2679 16.15C14.146 15.9799 13.94 15.8924 13.7338 15.9233C13.5277 15.9524 13.3545 16.0934 13.283 16.2899C13.2017 16.5135 13.103 16.7302 12.9878 16.9382C12.6803 15.6155 11.8892 14.4576 10.7718 13.6946C10.5516 13.551 10.2619 13.5794 10.0733 13.7631C9.88479 13.9467 9.84733 14.237 9.983 14.463C10.1922 14.9818 10.1059 15.5738 9.75763 16.0106C9.47507 16.3869 9.15026 16.7292 8.78965 17.0306C8.66288 17.1439 8.53723 17.2663 8.41159 17.3864C8.07539 17.1265 7.71028 16.9069 7.3236 16.7319C7.09391 16.6289 6.82415 16.6914 6.66249 16.8852C6.50083 17.079 6.48643 17.357 6.62719 17.5666C7.01443 18.1671 7.05728 18.9287 6.73988 19.5692C6.6672 19.7092 6.5855 19.8435 6.50436 19.9772C6.07494 20.5382 5.87989 21.2454 5.96065 21.9487C6.04796 22.4124 6.23592 22.851 6.51112 23.2333H5.9291C5.30675 23.2333 4.80223 22.7259 4.80223 22.1V12.4666C4.80223 11.8407 5.30675 11.3333 5.9291 11.3333H16.0709C16.6933 11.3333 17.1978 11.8407 17.1978 12.4666V22.1Z" fill="white"/>
</svg>
