<svg width="167" height="167" viewBox="0 0 167 167" fill="none" xmlns="http://www.w3.org/2000/svg">
<g opacity="0.4">
<path d="M159 85.924C159 106.209 150.048 121.795 136.941 135.286C123.311 149.315 105.116 156 84 156C52.7355 156 33.4969 142.619 22.2353 115.453C18.7059 99.1459 9 101.79 9 85.924C9 63.9028 27.3885 53.3558 42.5294 39.6474C55.8394 27.5968 64.6222 11 84 11C116.647 11 112.956 22.8184 125.912 33.4772C142.615 47.2189 159 62.6202 159 85.924Z" stroke="#7B4224"/>
<path d="M155 87.7568C155 106.643 146.884 121.154 135 133.714C122.642 146.776 106.145 153 87 153C58.6535 153 41.2105 140.542 31 115.249C27.8 100.067 19 102.529 19 87.7568C19 67.2543 35.6722 57.4347 49.4 44.6717C61.4677 33.4522 69.4308 18 87 18C116.6 18 113.254 29.0034 125 38.9271C140.144 51.721 155 66.0602 155 87.7568Z" stroke="#7B4224"/>
<path d="M162 83.5C162 126.854 126.854 162 83.5 162C56.7799 162 32.6778 142.894 18.5 122.5C9.67382 109.804 5 100.134 5 83.5C5 62.5798 20.1596 47.0709 33.5 33C47.8058 17.9108 61.0659 5 83.5 5C107.014 5 120.613 13.1207 135 29.5C147.139 43.3205 162 63.6595 162 83.5Z" stroke="#7B4224"/>
<path d="M166 83.5C166 129.063 129.063 166 83.5 166C37.9365 166 1 129.063 1 83.5C1 37.9365 37.9365 1 83.5 1C129.063 1 166 37.9365 166 83.5Z" stroke="#7B4224"/>
</g>
<path d="M107.336 55.9844H101.936V54.3984C101.936 52.5245 100.412 51 98.5377 51C96.6638 51 95.1393 52.5245 95.1393 54.3984V55.9844H76.108V54.3984C76.108 52.5245 74.5835 51 72.7096 51C70.8357 51 69.3112 52.5245 69.3112 54.3984V56.0263C69.2149 55.9997 69.1139 55.9844 69.0092 55.9844H64.4956C61.3724 55.9844 58.8315 58.5253 58.8315 61.6484V80.944C58.8315 81.5696 59.3388 82.0768 59.9643 82.0768C60.5899 82.0768 61.0971 81.5696 61.0971 80.944V67.6523H101.936C102.562 67.6523 103.069 67.1452 103.069 66.5195C103.069 65.8939 102.562 65.3867 101.936 65.3867H61.0971V61.6484C61.0971 59.7745 62.6217 58.25 64.4956 58.25H69.0092C69.1139 58.25 69.2149 58.2346 69.3112 58.2081V59.666C69.3112 61.5399 70.8357 63.0645 72.7096 63.0645C74.5835 63.0645 76.108 61.5399 76.108 59.666V58.25H95.1393V59.666C95.1393 61.5399 96.6638 63.0645 98.5377 63.0645C100.412 63.0645 101.936 61.5399 101.936 59.666V58.25H107.336C109.21 58.25 110.734 59.7745 110.734 61.6484V104.695C110.734 105.819 109.819 106.734 108.695 106.734C107.57 106.734 106.655 105.819 106.655 104.695V101.764C106.655 101.139 106.148 100.631 105.522 100.631H92.3451C91.7196 100.631 91.2123 101.139 91.2123 101.764C91.2123 102.39 91.7196 102.897 92.3451 102.897H104.389V104.695C104.389 105.432 104.576 106.127 104.904 106.734H59.3047C58.1804 106.734 57.2656 105.82 57.2656 104.695V102.897H82.6208C83.2463 102.897 83.7536 102.39 83.7536 101.764C83.7536 101.139 83.2463 100.631 82.6208 100.631H71.3022C73.2817 98.9266 74.5386 96.4049 74.5386 93.5938C74.5386 88.4717 70.3716 84.3047 65.2496 84.3047C60.1276 84.3047 55.9605 88.4717 55.9605 93.5938C55.9605 96.4049 57.2175 98.9266 59.197 100.631H56.1328C55.5073 100.631 55 101.139 55 101.764V104.695C55 107.069 56.9311 109 59.3047 109H108.695C111.069 109 113 107.069 113 104.695V61.6484C113 58.5253 110.459 55.9844 107.336 55.9844ZM73.8424 59.666C73.8424 60.2906 73.3342 60.7988 72.7096 60.7988C72.085 60.7988 71.5768 60.2906 71.5768 59.666V54.3984C71.5768 53.7738 72.085 53.2656 72.7096 53.2656C73.3342 53.2656 73.8424 53.7738 73.8424 54.3984V59.666ZM99.6705 59.666C99.6705 60.2906 99.1624 60.7988 98.5377 60.7988C97.9131 60.7988 97.4049 60.2906 97.4049 59.666V54.3984C97.4049 53.7738 97.9131 53.2656 98.5377 53.2656C99.1624 53.2656 99.6705 53.7738 99.6705 54.3984V59.666ZM58.2261 93.5938C58.2261 89.721 61.3768 86.5703 65.2496 86.5703C69.1223 86.5703 72.273 89.721 72.273 93.5938C72.273 97.4665 69.1223 100.617 65.2496 100.617C61.3768 100.617 58.2261 97.4665 58.2261 93.5938Z" fill="#53382A"/>
<path d="M108.051 65.7186C107.84 65.5079 107.548 65.3867 107.25 65.3867C106.952 65.3867 106.66 65.5079 106.449 65.7186C106.238 65.9293 106.117 66.2216 106.117 66.5195C106.117 66.8175 106.238 67.1097 106.449 67.3204C106.66 67.5311 106.952 67.6523 107.25 67.6523C107.548 67.6523 107.84 67.5311 108.051 67.3204C108.261 67.1097 108.383 66.8175 108.383 66.5195C108.383 66.2216 108.261 65.9293 108.051 65.7186Z" fill="#53382A"/>
<path d="M88.8313 100.963C88.6207 100.752 88.3285 100.632 88.0305 100.632C87.7326 100.632 87.4404 100.752 87.2296 100.963C87.0189 101.175 86.8977 101.466 86.8977 101.764C86.8977 102.063 87.0188 102.354 87.2296 102.566C87.4404 102.776 87.7326 102.896 88.0305 102.896C88.3285 102.896 88.6207 102.776 88.8313 102.566C89.042 102.354 89.1634 102.062 89.1634 101.764C89.1634 101.466 89.0421 101.175 88.8313 100.963Z" fill="#53382A"/>
<path d="M80.6293 85.4375C78.2557 85.4375 76.3246 87.3686 76.3246 89.7422C76.3246 92.1158 78.2557 94.0469 80.6293 94.0469C83.0029 94.0469 84.934 92.1158 84.934 89.7422C84.934 87.3686 83.0029 85.4375 80.6293 85.4375ZM80.6293 91.7812C79.505 91.7812 78.5903 90.8665 78.5903 89.7422C78.5903 88.6179 79.505 87.7031 80.6293 87.7031C81.7536 87.7031 82.6684 88.6179 82.6684 89.7422C82.6684 90.8665 81.7536 91.7812 80.6293 91.7812Z" fill="#53382A"/>
<path d="M91.2022 85.4375C88.8286 85.4375 86.8975 87.3686 86.8975 89.7422C86.8975 92.1158 88.8286 94.0469 91.2022 94.0469C93.5758 94.0469 95.5069 92.1158 95.5069 89.7422C95.5069 87.3686 93.5758 85.4375 91.2022 85.4375ZM91.2022 91.7812C90.0779 91.7812 89.1631 90.8665 89.1631 89.7422C89.1631 88.6179 90.0779 87.7031 91.2022 87.7031C92.3265 87.7031 93.2413 88.6179 93.2413 89.7422C93.2413 90.8665 92.3265 91.7812 91.2022 91.7812Z" fill="#53382A"/>
<path d="M101.775 85.4375C99.4016 85.4375 97.4705 87.3686 97.4705 89.7422C97.4705 92.1158 99.4016 94.0469 101.775 94.0469C104.149 94.0469 106.08 92.1158 106.08 89.7422C106.08 87.3686 104.149 85.4375 101.775 85.4375ZM101.775 91.7812C100.651 91.7812 99.7361 90.8665 99.7361 89.7422C99.7361 88.6179 100.651 87.7031 101.775 87.7031C102.9 87.7031 103.814 88.6179 103.814 89.7422C103.814 90.8665 102.9 91.7812 101.775 91.7812Z" fill="#53382A"/>
<path d="M70.0564 73.6562C67.6829 73.6562 65.7517 75.5874 65.7517 77.9609C65.7517 80.3345 67.6829 82.2656 70.0564 82.2656C72.43 82.2656 74.3611 80.3345 74.3611 77.9609C74.3611 75.5874 72.43 73.6562 70.0564 73.6562ZM70.0564 80C68.9321 80 68.0174 79.0853 68.0174 77.9609C68.0174 76.8366 68.9321 75.9219 70.0564 75.9219C71.1808 75.9219 72.0955 76.8366 72.0955 77.9609C72.0955 79.0853 71.1808 80 70.0564 80Z" fill="#53382A"/>
<path d="M91.2022 73.6562C88.8286 73.6562 86.8975 75.5874 86.8975 77.9609C86.8975 80.3345 88.8286 82.2656 91.2022 82.2656C93.5758 82.2656 95.5069 80.3345 95.5069 77.9609C95.5069 75.5874 93.5758 73.6562 91.2022 73.6562ZM91.2022 80C90.0779 80 89.1631 79.0853 89.1631 77.9609C89.1631 76.8366 90.0779 75.9219 91.2022 75.9219C92.3265 75.9219 93.2413 76.8366 93.2413 77.9609C93.2413 79.0853 92.3265 80 91.2022 80Z" fill="#53382A"/>
<path d="M101.775 73.6562C99.4016 73.6562 97.4705 75.5874 97.4705 77.9609C97.4705 80.3345 99.4016 82.2656 101.775 82.2656C104.149 82.2656 106.08 80.3345 106.08 77.9609C106.08 75.5874 104.149 73.6562 101.775 73.6562ZM101.775 80C100.651 80 99.7361 79.0853 99.7361 77.9609C99.7361 76.8366 100.651 75.9219 101.775 75.9219C102.9 75.9219 103.814 76.8366 103.814 77.9609C103.814 79.0853 102.9 80 101.775 80Z" fill="#53382A"/>
<path d="M80.6293 73.6562C78.2557 73.6562 76.3246 75.5874 76.3246 77.9609C76.3246 80.3345 78.2557 82.2656 80.6293 82.2656C83.0029 82.2656 84.934 80.3345 84.934 77.9609C84.934 75.5874 83.0029 73.6562 80.6293 73.6562ZM80.6293 80C79.505 80 78.5903 79.0853 78.5903 77.9609C78.5903 76.8366 79.505 75.9219 80.6293 75.9219C81.7536 75.9219 82.6684 76.8366 82.6684 77.9609C82.6684 79.0853 81.7536 80 80.6293 80Z" fill="#53382A"/>
<path d="M69.2852 90.833C68.8427 90.3906 68.1257 90.3906 67.6831 90.833L63.994 94.5222L62.7333 93.2615C62.2908 92.8191 61.5737 92.8191 61.1311 93.2615C60.6888 93.7039 60.6888 94.4212 61.1311 94.8636L63.193 96.9252C63.4055 97.1376 63.6935 97.257 63.994 97.257C64.2944 97.257 64.5825 97.1376 64.795 96.9252L69.2852 92.435C69.7276 91.9926 69.7276 91.2753 69.2852 90.833Z" fill="#53382A"/>
</svg>
