<svg width="167" height="167" viewBox="0 0 167 167" fill="none" xmlns="http://www.w3.org/2000/svg">
<g opacity="0.4">
<path d="M85.924 8C106.209 8 121.795 16.9518 135.286 30.0588C149.315 43.6889 156 61.8842 156 83C156 114.264 142.619 133.503 115.453 144.765C99.1459 148.294 101.79 158 85.924 158C63.9028 158 53.3558 139.612 39.6474 124.471C27.5968 111.161 11 102.378 11 83C11 50.3529 22.8184 54.0439 33.4772 41.0882C47.2189 24.3852 62.6202 8 85.924 8Z" stroke="#7B4224"/>
<path d="M87.7569 12C106.643 12 121.154 20.1163 133.714 32C146.776 44.3579 153 60.855 153 80C153 108.346 140.542 125.79 115.249 136C100.067 139.2 102.529 148 87.7568 148C67.2543 148 57.4347 131.328 44.6717 117.6C33.4522 105.532 18 97.5692 18 80C18 50.4 29.0034 53.7465 38.9271 42C51.7211 26.856 66.0602 12 87.7569 12Z" stroke="#7B4224"/>
<path d="M83.5 5C126.854 5.00001 162 40.1457 162 83.5C162 110.22 142.894 134.322 122.5 148.5C109.804 157.326 100.134 162 83.5 162C62.5798 162 47.0709 146.84 33 133.5C17.9108 119.194 5 105.934 5 83.5C5 59.9862 13.1207 46.387 29.5 32C43.3205 19.8606 63.6595 5 83.5 5Z" stroke="#7B4224"/>
<path d="M83.5 1C129.063 1.00001 166 37.9365 166 83.5C166 129.063 129.063 166 83.5 166C37.9365 166 1 129.063 1 83.5C1.00001 37.9365 37.9365 1 83.5 1Z" stroke="#7B4224"/>
</g>
<path d="M108.809 97.2228C109.43 96.3637 109.798 95.3094 109.798 94.1704V87.3633C109.798 86.7376 109.291 86.2305 108.665 86.2305H103.603C101.262 86.2305 99.3581 88.1345 99.3581 90.4749V94.1704C99.3581 95.3087 99.7255 96.3622 100.346 97.2211C99.572 97.3468 98.8269 97.5948 98.1321 97.958C96.5582 95.6095 93.9795 93.9898 91.0163 93.7165C91.0048 93.7133 90.993 93.7109 90.9813 93.708C92.0415 92.5241 92.6878 90.9622 92.6878 89.2517V80C92.6878 79.3743 92.1805 78.8672 91.555 78.8672H84.674C81.7175 78.8672 79.3122 81.2725 79.3122 84.229V89.2516C79.3122 90.9621 79.9585 92.524 81.0187 93.7079C81.007 93.7108 80.9952 93.7133 80.9837 93.7164C78.0201 93.9897 75.4414 95.6096 73.8676 97.9585C73.1725 97.5954 72.4273 97.3471 71.6533 97.2215C72.2743 96.3626 72.6419 95.3088 72.6419 94.1704V87.3633C72.6419 86.7376 72.1346 86.2305 71.5091 86.2305H66.4463C64.1059 86.2305 62.2019 88.1345 62.2019 90.4749V94.1704C62.2019 95.3095 62.5697 96.3637 63.1914 97.2228C59.685 97.7959 57 100.845 57 104.511V107.867C57 108.493 57.5073 109 58.1328 109H113.867C114.493 109 115 108.493 115 107.867V104.511C115 100.845 112.315 97.7959 108.809 97.2228ZM64.4675 90.4749C64.4675 89.3838 65.3552 88.4961 66.4463 88.4961H70.3763V89.8757C70.3763 90.5523 69.8259 91.1026 69.1495 91.1026H64.4675V90.4749ZM64.4675 93.3681H69.1495C69.5811 93.3681 69.9944 93.2889 70.3763 93.145V94.1704C70.3763 95.7993 69.051 97.1247 67.4219 97.1247C65.7928 97.1247 64.4675 95.7993 64.4675 94.1704V93.3681ZM68.1522 99.3904L67.4219 100.121L66.6916 99.3904H68.1522ZM72.2422 103.306V106.734H59.2656V104.511C59.2656 101.97 61.126 99.8568 63.5559 99.4588L66.6209 102.524C66.8334 102.736 67.1215 102.856 67.4219 102.856C67.7223 102.856 68.0104 102.736 68.2229 102.524L71.2887 99.4578C71.8302 99.5459 72.351 99.7205 72.8363 99.9758C72.4525 101.014 72.2422 102.136 72.2422 103.306ZM86.0001 93.6738C83.5617 93.6738 81.578 91.6901 81.578 89.2517V87.7544H88.3481C89.0988 87.7544 89.8057 87.5627 90.4223 87.2258V89.2517C90.4223 91.6901 88.4385 93.6738 86.0001 93.6738ZM87.9747 95.9394L86 97.9141L84.0253 95.9394H87.9747ZM81.5777 84.229C81.5777 82.5218 82.9668 81.1328 84.674 81.1328H90.4222V83.4148C90.4222 84.5584 89.4917 85.4889 88.348 85.4889H81.5777V84.229ZM97.492 106.734H74.508V104.469H81.8842C82.5097 104.469 83.017 103.962 83.017 103.336C83.017 102.71 82.5097 102.203 81.8842 102.203H74.5908C75.0763 98.9836 77.6534 96.4421 80.8891 96.0072L85.199 100.317C85.4202 100.538 85.7101 100.649 86 100.649C86.2899 100.649 86.5798 100.538 86.801 100.317L91.1109 96.0072C94.7083 96.4907 97.492 99.5784 97.492 103.306V106.734ZM101.624 90.4749C101.624 89.3838 102.511 88.4961 103.603 88.4961H107.532V89.8757C107.532 90.5523 106.982 91.1026 106.306 91.1026H101.624V90.4749ZM101.624 93.3681H106.306C106.737 93.3681 107.151 93.2889 107.532 93.145V94.1704C107.532 95.7993 106.207 97.1247 104.578 97.1247C102.949 97.1247 101.624 95.7993 101.624 94.1704V93.3681ZM105.308 99.3904L104.578 100.121L103.848 99.3904H105.308ZM99.7577 106.734V103.306C99.7577 102.136 99.5474 101.014 99.1635 99.9756C99.6486 99.72 100.169 99.5455 100.711 99.4575L103.777 102.524C103.99 102.736 104.278 102.856 104.578 102.856C104.878 102.856 105.167 102.736 105.379 102.524L108.444 99.4588C110.874 99.857 112.734 101.97 112.734 104.511V106.734H99.7577Z" fill="#53382A"/>
<path d="M91.583 58.4016C91.1405 57.9592 90.4234 57.9592 89.9808 58.4016L84.4221 63.9604L82.0191 61.5574C81.5766 61.1149 80.8595 61.1149 80.417 61.5572C79.9747 61.9996 79.9747 62.7169 80.417 63.1594L83.6211 66.3634C83.8336 66.5758 84.1217 66.6952 84.4221 66.6952C84.7225 66.6952 85.0106 66.5758 85.2231 66.3634L91.583 60.0036C92.0253 59.5612 92.0253 58.8439 91.583 58.4016Z" fill="#53382A"/>
<path d="M90.6318 51.9824C90.0606 51.7276 89.3907 51.9842 89.1359 52.5556C88.881 53.127 89.1377 53.7968 89.7091 54.0516C92.9941 55.5166 95.1168 58.7867 95.1168 62.3825C95.1168 67.4095 91.027 71.4993 86 71.4993C80.973 71.4993 76.8832 67.4095 76.8832 62.3825C76.8832 58.8053 78.9906 55.542 82.252 54.069C82.8221 53.8115 83.0756 53.1404 82.818 52.5703C82.5606 52 81.8891 51.7466 81.3194 52.0041C77.2483 53.8429 74.6177 57.9166 74.6177 62.3824C74.6176 68.6587 79.7238 73.7649 86 73.7649C92.2762 73.7649 97.3824 68.6587 97.3824 62.3825C97.3824 57.8935 94.7326 53.8112 90.6318 51.9824Z" fill="#53382A"/>
<path d="M86.0406 51H86C85.3745 51 84.8672 51.5072 84.8672 52.1328C84.8672 52.7585 85.3745 53.2656 86 53.2656H86.0299C86.0317 53.2656 86.0334 53.2656 86.0353 53.2656C86.6585 53.2656 87.1651 52.762 87.168 52.1381C87.171 51.5125 86.6662 51.0029 86.0406 51Z" fill="#53382A"/>
<path d="M86.8008 102.535C86.5902 102.324 86.2979 102.203 86 102.203C85.7021 102.203 85.4098 102.324 85.1991 102.535C84.9884 102.746 84.8672 103.038 84.8672 103.336C84.8672 103.634 84.9883 103.926 85.1991 104.137C85.4099 104.348 85.7021 104.469 86 104.469C86.2979 104.469 86.5902 104.348 86.8008 104.137C87.0115 103.926 87.1328 103.634 87.1328 103.336C87.1328 103.038 87.0116 102.746 86.8008 102.535Z" fill="#53382A"/>
</svg>
