<svg width="167" height="167" viewBox="0 0 167 167" fill="none" xmlns="http://www.w3.org/2000/svg">
<g opacity="0.4">
<path d="M159 81.076C159 60.791 150.048 45.2048 136.941 31.7143C123.311 17.6854 105.116 11 84 11C52.7355 11 33.4969 24.3812 22.2353 51.5471C18.7059 67.8541 9 65.2097 9 81.076C9 103.097 27.3885 113.644 42.5294 127.353C55.8394 139.403 64.6222 156 84 156C116.647 156 112.956 144.182 125.912 133.523C142.615 119.781 159 104.38 159 81.076Z" stroke="#7B4224"/>
<path d="M155 79.2432C155 60.3571 146.884 45.8459 135 33.2857C122.642 20.2244 106.145 14 87 14C58.6535 14 41.2105 26.4584 31 51.7508C27.8 66.9331 19 64.4711 19 79.2432C19 99.7457 35.6722 109.565 49.4 122.328C61.4677 133.548 69.4308 149 87 149C116.6 149 113.254 137.997 125 128.073C140.144 115.279 155 100.94 155 79.2432Z" stroke="#7B4224"/>
<path d="M162 83.5C162 40.1456 126.854 5 83.5 5C56.7799 5 32.6778 24.106 18.5 44.5C9.67382 57.196 5 66.8658 5 83.5C5 104.42 20.1596 119.929 33.5 134C47.8058 149.089 61.0659 162 83.5 162C107.014 162 120.613 153.879 135 137.5C147.139 123.68 162 103.341 162 83.5Z" stroke="#7B4224"/>
<path d="M166 83.5C166 37.9365 129.063 1 83.5 1C37.9365 1 1 37.9365 1 83.5C1 129.063 37.9365 166 83.5 166C129.063 166 166 129.063 166 83.5Z" stroke="#7B4224"/>
</g>
<path d="M61.2788 69.2945C61.2092 69.2945 61.1382 69.287 61.0694 69.2732C61.0006 69.259 60.9331 69.239 60.8684 69.2123C60.803 69.1857 60.7409 69.1523 60.6825 69.1139C60.6238 69.0756 60.5688 69.031 60.5193 68.9818C60.3196 68.7833 60.2046 68.5078 60.2046 68.2272C60.2046 68.158 60.2122 68.0875 60.226 68.0179C60.239 67.9508 60.2604 67.8836 60.2873 67.8182C60.3141 67.7544 60.3477 67.6923 60.3863 67.6348C60.4249 67.576 60.4698 67.5218 60.5193 67.4726C60.5688 67.4234 60.6238 67.3788 60.6825 67.3392C60.7409 67.3008 60.803 67.2675 60.8676 67.2408C60.9331 67.2141 61.0006 67.1941 61.0694 67.1803C61.2079 67.1524 61.3497 67.1524 61.4882 67.1803C61.557 67.1941 61.6246 67.2141 61.6892 67.2408C61.7547 67.2675 61.8172 67.3008 61.8751 67.3392C61.9343 67.3788 61.9888 67.4234 62.0383 67.4726C62.0878 67.5218 62.1327 67.576 62.1726 67.6348C62.2112 67.6923 62.2448 67.7544 62.2716 67.8182C62.2985 67.8836 62.3186 67.9508 62.3325 68.0179C62.3467 68.0875 62.353 68.158 62.353 68.2272C62.353 68.5078 62.2381 68.7833 62.0383 68.9818C61.9888 69.031 61.9343 69.0756 61.8751 69.1139C61.8172 69.1523 61.7547 69.1857 61.6892 69.2123C61.6246 69.239 61.557 69.259 61.4882 69.2732C61.4194 69.287 61.3489 69.2945 61.2788 69.2945Z" fill="#53382A"/>
<path d="M101.014 103.203C100.944 103.203 100.873 103.196 100.805 103.182C100.736 103.168 100.668 103.148 100.604 103.121C100.538 103.094 100.476 103.061 100.418 103.023C100.359 102.984 100.304 102.939 100.255 102.891C100.205 102.841 100.16 102.787 100.121 102.728C100.083 102.67 100.05 102.609 100.023 102.544C99.9959 102.48 99.9754 102.412 99.9615 102.344C99.9473 102.276 99.9401 102.205 99.9401 102.136C99.9401 102.067 99.9473 101.996 99.9615 101.928C99.9754 101.86 99.9959 101.792 100.023 101.728C100.05 101.663 100.083 101.601 100.121 101.544C100.16 101.485 100.205 101.431 100.255 101.381C100.304 101.332 100.359 101.288 100.418 101.248C100.476 101.21 100.538 101.176 100.604 101.15C100.668 101.123 100.736 101.103 100.805 101.089C100.943 101.061 101.086 101.061 101.225 101.089C101.293 101.103 101.36 101.123 101.426 101.15C101.49 101.176 101.552 101.21 101.61 101.248C101.669 101.288 101.724 101.332 101.773 101.381C101.823 101.431 101.868 101.485 101.908 101.544C101.947 101.601 101.98 101.663 102.007 101.728C102.034 101.792 102.054 101.86 102.068 101.928C102.082 101.996 102.089 102.067 102.089 102.136C102.089 102.205 102.082 102.276 102.068 102.344C102.054 102.412 102.034 102.48 102.007 102.544C101.98 102.609 101.947 102.67 101.908 102.728C101.868 102.787 101.823 102.841 101.773 102.891C101.724 102.939 101.669 102.984 101.61 103.023C101.552 103.061 101.49 103.094 101.426 103.121C101.36 103.148 101.293 103.168 101.224 103.182C101.155 103.195 101.084 103.203 101.014 103.203Z" fill="#53382A"/>
<path d="M96.3952 103.203H73.2559C72.6626 103.203 72.1817 102.725 72.1817 102.136C72.1817 101.547 72.6626 101.068 73.2559 101.068H96.3952C96.9885 101.068 97.4694 101.547 97.4694 102.136C97.4694 102.725 96.9885 103.203 96.3952 103.203Z" fill="#53382A"/>
<path d="M93.9845 73.0992C93.9136 73.0992 93.8439 73.0929 93.7739 73.0787C93.7051 73.065 93.6375 73.045 93.5729 73.0183C93.5087 72.9916 93.4462 72.9583 93.3874 72.9199C93.3291 72.8815 93.2733 72.8369 93.2238 72.7877C93.1747 72.7386 93.1293 72.6831 93.0907 72.6256C93.0521 72.5668 93.0186 72.5047 92.9917 72.4409C92.9649 72.3767 92.9447 72.3095 92.9309 72.2412C92.9166 72.172 92.9103 72.1023 92.9103 72.0319C92.9103 71.7513 93.024 71.4762 93.2238 71.2773C93.2733 71.2285 93.3291 71.1847 93.3874 71.1451C93.4462 71.1068 93.5087 71.0734 93.5729 71.0467C93.6375 71.0201 93.7051 71 93.7739 70.9863C94.123 70.9167 94.4935 71.0301 94.744 71.2777C94.9438 71.4762 95.0587 71.7513 95.0587 72.0323C95.0587 72.1028 95.0512 72.172 95.0373 72.2412C95.0231 72.3095 95.0029 72.3767 94.9761 72.4409C94.9492 72.5051 94.9156 72.5668 94.877 72.6256C94.8376 72.6831 94.7935 72.739 94.744 72.7877C94.5443 72.9862 94.2669 73.0992 93.9845 73.0992Z" fill="#53382A"/>
<path d="M108.808 64.5496H98.5008L95.5161 58.5916C95.3348 58.2293 94.9622 58 94.5544 58H93.413C93.0056 58 92.6329 58.2293 92.4517 58.5916L89.4669 64.5496H84.8214V52.0673C84.8214 51.4778 84.3405 51 83.7471 51H75.7593C75.166 51 74.6851 51.4778 74.6851 52.0673V64.5496H66.6763C65.6042 62.6335 63.5456 61.3336 61.1869 61.3336C59.5106 61.3336 57.8812 62.0186 56.7176 63.213C55.5632 64.397 54.9548 65.9496 55.0026 67.5856V102.326C54.9993 102.443 54.9997 102.561 55.003 102.68C54.9691 104.315 55.5968 105.872 56.7717 107.066C57.9815 108.295 59.6667 109 61.3942 109H108.926C109.519 109 110 108.522 110 107.933V65.7332C110 65.0808 109.465 64.5496 108.808 64.5496ZM96.762 87.1611H95.0583V76.6216C95.0583 76.0325 94.577 75.5543 93.9841 75.5543C93.3908 75.5543 92.9099 76.0325 92.9099 76.6216V87.1611H91.2058V68.4331H96.762V87.1611ZM91.2058 89.2957H96.762V91.0296H91.2058V89.2957ZM96.762 65.8687V66.2986H91.2058V65.8687L92.3568 63.5711H95.6109L96.762 65.8687ZM91.2058 93.1641H96.762V97.2386H91.2058V93.1641ZM93.9841 60.3234L94.5413 61.4366H93.4264L93.9841 60.3234ZM76.8336 53.1346H82.6729V65.7357H81.6038C81.0104 65.7357 80.5295 66.2135 80.5295 66.803C80.5295 67.3921 81.0104 67.8703 81.6038 67.8703H82.6729V74.0239H81.6038C81.0104 74.0239 80.5295 74.5017 80.5295 75.0912C80.5295 75.6803 81.0104 76.1584 81.6038 76.1584H82.6729V82.312H81.6038C81.0104 82.312 80.5295 82.7898 80.5295 83.3793C80.5295 83.9688 81.0104 84.4466 81.6038 84.4466H82.6729V90.6002H81.6038C81.0104 90.6002 80.5295 91.0779 80.5295 91.6674C80.5295 92.257 81.0104 92.7347 81.6038 92.7347H82.6729V97.2382H76.8336V53.1346ZM58.2605 64.6981C59.0335 63.9051 60.0724 63.4682 61.1869 63.4682C63.4629 63.4682 65.3147 65.308 65.3147 67.5693V97.9757C64.4893 97.2578 63.473 96.7512 62.353 96.5415V72.4663C62.353 71.8768 61.8722 71.399 61.2788 71.399C60.6855 71.399 60.2046 71.8768 60.2046 72.4663V96.5119C59.0817 96.692 58.0192 97.1761 57.1511 97.909V67.5693C57.1511 67.558 57.1511 67.5468 57.1506 67.5351C57.1162 66.4753 57.5107 65.4677 58.2605 64.6981ZM107.852 106.865H61.3942C60.2407 106.865 59.1161 106.394 58.3075 105.573C57.5379 104.791 57.1271 103.777 57.1511 102.718C57.1511 102.706 57.1511 102.695 57.1506 102.683C57.1511 102.679 57.1511 102.674 57.1511 102.669V102.364C57.1863 101.404 57.5744 100.501 58.2605 99.7976C59.0335 99.0046 60.0724 98.5677 61.1869 98.5677C63.4629 98.5677 65.3147 100.408 65.3147 102.669C65.3147 103.258 65.7956 103.736 66.3889 103.736C66.9822 103.736 67.4631 103.258 67.4631 102.669V67.5693C67.4631 67.2691 67.4413 66.9735 67.3993 66.6842H74.6851V98.3055C74.6851 98.895 75.166 99.3727 75.7593 99.3727H83.7471C84.3405 99.3727 84.8214 98.895 84.8214 98.3055V66.6842H89.0574V98.3055C89.0574 98.895 89.5387 99.3727 90.1316 99.3727H97.8362C98.4295 99.3727 98.9104 98.895 98.9104 98.3055V66.6842H107.852V106.865Z" fill="#53382A"/>
</svg>
