<svg width="167" height="167" viewBox="0 0 167 167" fill="none" xmlns="http://www.w3.org/2000/svg">
<g opacity="0.4">
<path d="M81.076 8C60.791 8 45.2048 16.9518 31.7143 30.0588C17.6854 43.6889 11 61.8842 11 83C11 114.264 24.3812 133.503 51.5471 144.765C67.8541 148.294 65.2097 158 81.076 158C103.097 158 113.644 139.612 127.353 124.471C139.403 111.161 156 102.378 156 83C156 50.3529 144.182 54.0439 133.523 41.0882C119.781 24.3852 104.38 8 81.076 8Z" stroke="#7B4224"/>
<path d="M79.2431 12C60.3571 12 45.8459 20.1163 33.2857 32C20.2244 44.3579 14 60.855 14 80C14 108.346 26.4584 125.79 51.7508 136C66.9331 139.2 64.4711 148 79.2432 148C99.7457 148 109.565 131.328 122.328 117.6C133.548 105.532 149 97.5692 149 80C149 50.4 137.997 53.7465 128.073 42C115.279 26.856 100.94 12 79.2431 12Z" stroke="#7B4224"/>
<path d="M83.5 5C40.1456 5.00001 4.99999 40.1457 5 83.5C5 110.22 24.106 134.322 44.5 148.5C57.196 157.326 66.8658 162 83.5 162C104.42 162 119.929 146.84 134 133.5C149.089 119.194 162 105.934 162 83.5C162 59.9862 153.879 46.387 137.5 32C123.68 19.8606 103.34 5 83.5 5Z" stroke="#7B4224"/>
<path d="M83.5 1C37.9365 1.00001 0.999994 37.9365 0.999996 83.5C0.999998 129.063 37.9365 166 83.5 166C129.063 166 166 129.063 166 83.5C166 37.9365 129.063 1 83.5 1Z" stroke="#7B4224"/>
</g>
<path d="M101.751 61.5352C102.376 61.5352 102.884 61.028 102.884 60.4023V54.3984C102.884 52.5245 101.359 51 99.4851 51H54.3985C52.5246 51 51 52.5245 51 54.3984V105.602C51 107.475 52.5246 109 54.3985 109H99.4851C101.359 109 102.884 107.475 102.884 105.602V102.43C102.884 101.804 102.376 101.297 101.751 101.297C101.125 101.297 100.618 101.804 100.618 102.43V105.602C100.618 106.226 100.11 106.734 99.4851 106.734H54.3985C53.7738 106.734 53.2657 106.226 53.2657 105.602V54.3984C53.2657 53.7738 53.7738 53.2656 54.3985 53.2656H99.4851C100.11 53.2656 100.618 53.7738 100.618 54.3984V60.4023C100.618 61.028 101.125 61.5352 101.751 61.5352Z" fill="#53382A"/>
<path d="M96.3139 56.4375H57.5697C56.9441 56.4375 56.4369 56.9447 56.4369 57.5703V81.2461C56.4369 81.8717 56.9441 82.3789 57.5697 82.3789C58.1954 82.3789 58.7026 81.8717 58.7026 81.2461V58.7031H95.181V60.5156C95.181 61.1413 95.6883 61.6484 96.3139 61.6484C96.9395 61.6484 97.4467 61.1413 97.4467 60.5156V57.5703C97.4467 56.9447 96.9395 56.4375 96.3139 56.4375Z" fill="#53382A"/>
<path d="M58.3702 84.6366C58.1595 84.4259 57.8683 84.3047 57.5693 84.3047C57.2713 84.3047 56.9791 84.4259 56.7684 84.6366C56.5577 84.8473 56.4364 85.1396 56.4364 85.4375C56.4364 85.7354 56.5577 86.0277 56.7684 86.2384C56.9791 86.4491 57.2713 86.5703 57.5693 86.5703C57.8683 86.5703 58.1595 86.4491 58.3702 86.2384C58.582 86.0277 58.7021 85.7354 58.7021 85.4375C58.7021 85.1396 58.582 84.8473 58.3702 84.6366Z" fill="#53382A"/>
<path d="M96.3139 98.8047C95.6882 98.8047 95.181 99.3118 95.181 99.9375V101.297H58.7026V89.7988C58.7026 89.1732 58.1954 88.666 57.5697 88.666C56.9441 88.666 56.4369 89.1732 56.4369 89.7988V102.43C56.4369 103.055 56.9441 103.562 57.5697 103.562H96.3139C96.9395 103.562 97.4467 103.055 97.4467 102.43V99.9375C97.4467 99.3118 96.9395 98.8047 96.3139 98.8047Z" fill="#53382A"/>
<path d="M86.1068 91.0263C85.6645 90.5839 84.9473 90.5839 84.5048 91.0262L82.2659 93.2652L80.8742 91.8735C79.9954 90.9949 78.5659 90.9949 77.6872 91.8735L76.7816 92.779C76.3392 93.2214 76.3392 93.9387 76.7816 94.3812C77.224 94.8235 77.9413 94.8235 78.3838 94.3812L79.2807 93.4842L80.6724 94.876C81.1117 95.3153 81.6888 95.5349 82.2659 95.5349C82.8429 95.5349 83.42 95.3153 83.8593 94.876L86.1068 92.6285C86.5492 92.1861 86.5492 91.4688 86.1068 91.0263Z" fill="#53382A"/>
<path d="M108.479 74.7644C108.979 73.9856 109.128 73.0263 108.888 72.1327C108.649 71.2392 108.04 70.483 107.218 70.0582C106.862 69.874 106.644 69.4961 106.662 69.0954C106.705 68.1713 106.355 67.2662 105.701 66.612C105.047 65.9579 104.142 65.6068 103.217 65.6503C102.815 65.6698 102.439 65.4507 102.254 65.0945C101.83 64.2727 101.073 63.6641 100.18 63.4246C99.2859 63.185 98.327 63.3342 97.5483 63.8334C97.2106 64.05 96.7742 64.0499 96.4366 63.8334C95.6578 63.3341 94.6988 63.1851 93.8051 63.4246C92.9115 63.6641 92.1554 64.2727 91.7305 65.0945C91.5463 65.4508 91.1674 65.6684 90.7677 65.6503C89.8432 65.6072 88.9385 65.9579 88.2844 66.612C87.6302 67.2662 87.2797 68.1713 87.3226 69.0953C87.3413 69.4961 87.123 69.874 86.7667 70.0582C85.945 70.483 85.3363 71.2391 85.0968 72.1327C84.9825 72.559 84.9577 73.0002 85.0163 73.4297H65.2484C64.6227 73.4297 64.1156 73.9368 64.1156 74.5625C64.1156 75.1882 64.6227 75.6953 65.2484 75.6953H85.595C85.5707 75.7575 85.5425 75.8186 85.5055 75.8761C85.0063 76.6549 84.8572 77.6142 85.0967 78.5077C85.1295 78.6304 85.17 78.7503 85.2164 78.8672H65.248C64.6224 78.8672 64.1152 79.3743 64.1152 80C64.1152 80.6257 64.6224 81.1328 65.248 81.1328H87.255C87.3042 81.2623 87.3289 81.402 87.3223 81.545C87.2793 82.4692 87.6298 83.3743 88.284 84.0285C88.9381 84.6826 89.8429 85.0338 90.7674 84.9902C91.1676 84.9706 91.546 85.1896 91.7302 85.546C91.8663 85.8093 92.0367 86.0502 92.2344 86.2647V96.8444C92.2344 97.302 92.5098 97.7147 92.9324 97.8904C93.3548 98.0661 93.8417 97.9703 94.1662 97.6474L96.9923 94.8361L99.8184 97.6474C100.035 97.8629 100.324 97.9772 100.618 97.9772C100.764 97.9772 100.912 97.9487 101.052 97.8903C101.475 97.7146 101.75 97.3019 101.75 96.8442V86.2646C101.948 86.0502 102.118 85.8092 102.254 85.5459C102.439 85.1895 102.817 84.9718 103.217 84.99C104.142 85.0338 105.046 84.6826 105.701 84.0284C106.355 83.3742 106.705 82.4691 106.662 81.5449C106.644 81.1443 106.862 80.7663 107.218 80.5822C108.04 80.1573 108.649 79.4013 108.888 78.5076C109.128 77.614 108.979 76.6548 108.479 75.8759C108.263 75.5384 108.263 75.1021 108.479 74.7644ZM99.4845 94.1196L97.7912 92.4351C97.3493 91.9955 96.6352 91.9955 96.1933 92.4351L94.5001 94.1196V87.3236C95.1779 87.3556 95.8571 87.1784 96.4365 86.8071C96.7742 86.5905 97.2106 86.5906 97.5482 86.8071C98.0832 87.1501 98.7033 87.3278 99.329 87.3278C99.3809 87.3278 99.4326 87.3252 99.4845 87.3227V94.1196ZM106.7 77.9214C106.624 78.2047 106.438 78.435 106.178 78.5697C105.038 79.1591 104.339 80.3683 104.399 81.6504C104.413 81.9435 104.306 82.2191 104.099 82.4266C103.891 82.634 103.616 82.7405 103.322 82.7271C102.04 82.6678 100.831 83.3656 100.242 84.5058C100.107 84.7664 99.8767 84.9517 99.5933 85.0276C99.3101 85.1034 99.0178 85.0582 98.771 84.8999C98.2306 84.5535 97.6115 84.3804 96.9922 84.3804C96.3731 84.3804 95.7538 84.5536 95.2135 84.8999C94.9666 85.0581 94.6744 85.1034 94.3911 85.0276C94.1077 84.9517 93.8775 84.7663 93.7427 84.5058C93.1533 83.3657 91.945 82.6672 90.6619 82.7271C90.3696 82.7406 90.0933 82.634 89.8858 82.4266C89.6783 82.2191 89.5716 81.9435 89.5853 81.6503C89.6273 80.7454 89.2905 79.8779 88.6887 79.238C88.671 79.2186 88.653 79.1996 88.634 79.1814C88.3949 78.9391 88.1179 78.7307 87.8066 78.5697C87.5461 78.435 87.3608 78.2048 87.2849 77.9214C87.209 77.638 87.2543 77.3458 87.4126 77.099C88.1054 76.0185 88.1054 74.6222 87.4126 73.5417C87.2544 73.2948 87.209 73.0026 87.2849 72.7192C87.3608 72.4359 87.5462 72.2056 87.8068 72.0709C88.9468 71.4815 89.645 70.2723 89.5854 68.9902C89.5717 68.6971 89.6785 68.4215 89.886 68.214C90.0934 68.0065 90.3696 67.9 90.6621 67.9135C91.945 67.9729 93.1535 67.275 93.7428 66.1348C93.8775 65.8742 94.1078 65.6888 94.3912 65.6129C94.6745 65.5372 94.9667 65.5824 95.2135 65.7407C96.2941 66.4336 97.6906 66.4336 98.7709 65.7407C99.0178 65.5825 99.3099 65.5369 99.5933 65.6129C99.8767 65.6888 100.107 65.8743 100.242 66.1348C100.831 67.2749 102.04 67.9733 103.322 67.9135C103.616 67.9001 103.891 68.0065 104.099 68.214C104.306 68.4215 104.413 68.6971 104.399 68.9902C104.339 70.2722 105.038 71.4815 106.178 72.0709C106.438 72.2056 106.624 72.4358 106.7 72.7192C106.776 73.0026 106.73 73.2948 106.572 73.5416C105.879 74.6221 105.879 76.0184 106.572 77.0989C106.73 77.3458 106.776 77.638 106.7 77.9214Z" fill="#53382A"/>
<path d="M102.38 72.2386C101.937 71.7963 101.22 71.7963 100.778 72.2386L97.0177 75.9987L95.5209 74.5019C95.0785 74.0595 94.3612 74.0595 93.9187 74.5019C93.4763 74.9443 93.4763 75.6616 93.9187 76.104L96.2165 78.4018C96.4378 78.6231 96.7277 78.7336 97.0176 78.7336C97.3075 78.7336 97.5975 78.6231 97.8186 78.4018L102.38 73.8408C102.822 73.3984 102.822 72.6811 102.38 72.2386Z" fill="#53382A"/>
<path d="M64.8284 64.6991C64.6177 64.4884 64.3255 64.3672 64.0275 64.3672C63.7296 64.3672 63.4373 64.4884 63.2266 64.6991C63.0159 64.9098 62.8947 65.2021 62.8947 65.5C62.8947 65.7979 63.0159 66.0902 63.2266 66.3009C63.4373 66.5116 63.7296 66.6328 64.0275 66.6328C64.3255 66.6328 64.6177 66.5116 64.8284 66.3009C65.0392 66.0902 65.1604 65.7979 65.1604 65.5C65.1604 65.2021 65.0392 64.9098 64.8284 64.6991Z" fill="#53382A"/>
<path d="M73.7691 64.3672H68.2559C67.6303 64.3672 67.1231 64.8743 67.1231 65.5C67.1231 66.1257 67.6303 66.6328 68.2559 66.6328H73.7691C74.3947 66.6328 74.9019 66.1257 74.9019 65.5C74.9019 64.8743 74.3947 64.3672 73.7691 64.3672Z" fill="#53382A"/>
<path d="M85.3059 84.3047H72.3552C71.7295 84.3047 71.2224 84.8118 71.2224 85.4375C71.2224 86.0632 71.7295 86.5703 72.3552 86.5703H85.3058C85.9315 86.5703 86.4386 86.0632 86.4386 85.4375C86.4386 84.8118 85.9316 84.3047 85.3059 84.3047Z" fill="#53382A"/>
</svg>
