<svg width="167" height="167" viewBox="0 0 167 167" fill="none" xmlns="http://www.w3.org/2000/svg">
<g opacity="0.4">
<path d="M159 85.924C159 106.209 150.048 121.795 136.941 135.286C123.311 149.315 105.116 156 84 156C52.7355 156 33.4969 142.619 22.2353 115.453C18.7059 99.1459 9 101.79 9 85.924C9 63.9028 27.3885 53.3558 42.5294 39.6474C55.8394 27.5968 64.6222 11 84 11C116.647 11 112.956 22.8184 125.912 33.4772C142.615 47.2189 159 62.6202 159 85.924Z" stroke="#7B4224"/>
<path d="M155 87.7568C155 106.643 146.884 121.154 135 133.714C122.642 146.776 106.145 153 87 153C58.6535 153 41.2105 140.542 31 115.249C27.8 100.067 19 102.529 19 87.7568C19 67.2543 35.6722 57.4347 49.4 44.6717C61.4677 33.4522 69.4308 18 87 18C116.6 18 113.254 29.0034 125 38.9271C140.144 51.721 155 66.0602 155 87.7568Z" stroke="#7B4224"/>
<path d="M162 83.5C162 126.854 126.854 162 83.5 162C56.7799 162 32.6778 142.894 18.5 122.5C9.67382 109.804 5 100.134 5 83.5C5 62.5798 20.1596 47.0709 33.5 33C47.8058 17.9108 61.0659 5 83.5 5C107.014 5 120.613 13.1207 135 29.5C147.139 43.3205 162 63.6595 162 83.5Z" stroke="#7B4224"/>
<path d="M166 83.5C166 129.063 129.063 166 83.5 166C37.9365 166 1 129.063 1 83.5C1 37.9365 37.9365 1 83.5 1C129.063 1 166 37.9365 166 83.5Z" stroke="#7B4224"/>
</g>
<path d="M56.3828 82.2214C56.6806 82.2214 56.9731 82.1015 57.1837 81.8909C57.3944 81.6789 57.5156 81.3877 57.5156 81.0886C57.5156 80.7908 57.3944 80.4983 57.1837 80.2877C56.9731 80.0771 56.6806 79.9558 56.3828 79.9558C56.085 79.9558 55.7925 80.0771 55.5819 80.2877C55.3712 80.4983 55.25 80.7908 55.25 81.0886C55.25 81.3877 55.3712 81.6798 55.5819 81.8909C55.7925 82.1015 56.085 82.2214 56.3828 82.2214Z" fill="#53382A"/>
<path d="M105.415 66.5479L95.0622 60.8241C94.5148 60.521 93.8254 60.7202 93.5227 61.2675C93.22 61.8149 93.4187 62.5043 93.9661 62.807L103.734 68.2073V106.734H98.75V71.1641C98.75 70.5384 98.2429 70.0313 97.6172 70.0313H56.3828C55.7571 70.0313 55.25 70.5384 55.25 71.1641V76.5578C55.25 77.1835 55.7571 77.6906 56.3828 77.6906C57.0085 77.6906 57.5156 77.1835 57.5156 76.5578V72.2969H96.4844V106.734H91.7412V95.4063C91.7412 94.1571 90.7247 93.1407 89.4755 93.1407H84.9443V81.8126C84.9443 80.5634 83.9279 79.5469 82.6787 79.5469H71.3505C70.1009 79.5469 69.0849 80.5634 69.0849 81.8126V93.1407H64.5391C63.2899 93.1407 62.2734 94.1571 62.2734 95.4063V106.734H57.5156V85.6203C57.5156 84.9946 57.0085 84.4875 56.3828 84.4875C55.7571 84.4875 55.25 84.9946 55.25 85.6203V106.734H50.2656V68.2073L77 53.4272L86.0346 58.4222C86.582 58.7249 87.2714 58.5262 87.5741 57.9788C87.8768 57.4315 87.6781 56.742 87.1307 56.4394L77.5483 51.1417C77.2071 50.9528 76.7929 50.9528 76.4517 51.1417L48.5845 66.5479C48.2239 66.7471 48 67.1267 48 67.5391V107.867C48 108.493 48.5071 109 49.1328 109H104.867C105.493 109 106 108.493 106 107.867V67.5391C106 67.1267 105.776 66.7471 105.415 66.5479ZM82.6787 95.4063H84.9443V97.6719H82.6787V95.4063ZM78.1328 81.8126V84.0782H75.8672V81.8126H78.1328ZM71.3505 81.8126H73.6016V85.211C73.6016 85.8367 74.1087 86.3438 74.7344 86.3438H79.2656C79.8913 86.3438 80.3984 85.8367 80.3984 85.211V81.8126H82.6787L82.68 93.1407C82.68 93.1407 82.6796 93.1407 82.6787 93.1407H71.3505V81.8126ZM71.3505 95.4063V97.6719H69.0849V95.4063H71.3505ZM64.5391 106.734V95.4063H66.8193V98.8047C66.8193 99.4304 67.3264 99.9375 67.9521 99.9375H72.4834C73.1086 99.9375 73.6162 99.4304 73.6162 98.8047V95.4063H75.8672L75.8685 106.734C75.8685 106.734 75.8681 106.734 75.8672 106.734H64.5391ZM78.1474 106.734V95.4063H80.413V98.8047C80.413 99.4304 80.9202 99.9375 81.5459 99.9375H86.0771C86.7024 99.9375 87.2099 99.4304 87.2099 98.8047V95.4063H89.4755L89.4769 106.734C89.4769 106.734 89.4764 106.734 89.4755 106.734H78.1474Z" fill="#53382A"/>
<path d="M90.5486 60.756C90.8464 60.756 91.1385 60.6348 91.3495 60.4241C91.5602 60.213 91.6814 59.921 91.6814 59.6232C91.6814 59.3249 91.5602 59.0329 91.3495 58.8223C91.1385 58.6116 90.8464 58.4904 90.5486 58.4904C90.2504 58.4904 89.9583 58.6116 89.7477 58.8223C89.537 59.0329 89.4158 59.3249 89.4158 59.6232C89.4158 59.921 89.537 60.213 89.7477 60.4241C89.9583 60.6348 90.2504 60.756 90.5486 60.756Z" fill="#53382A"/>
<path d="M72.2422 62.5548C72.2422 65.1784 74.3764 67.3126 77 67.3126C79.6236 67.3126 81.7578 65.1784 81.7578 62.5548C81.7578 59.9312 79.6236 57.797 77 57.797C74.3764 57.797 72.2422 59.9312 72.2422 62.5548ZM79.4922 62.5548C79.4922 63.9288 78.3744 65.047 77 65.047C75.6256 65.047 74.5078 63.9288 74.5078 62.5548C74.5078 61.1804 75.6256 60.0626 77 60.0626C78.3744 60.0626 79.4922 61.1804 79.4922 62.5548Z" fill="#53382A"/>
</svg>
