<svg width="167" height="167" viewBox="0 0 167 167" fill="none" xmlns="http://www.w3.org/2000/svg">
<g opacity="0.4">
<path d="M85.924 8C106.209 8 121.795 16.9518 135.286 30.0588C149.315 43.6889 156 61.8842 156 83C156 114.264 142.619 133.503 115.453 144.765C99.1459 148.294 101.79 158 85.924 158C63.9028 158 53.3558 139.612 39.6474 124.471C27.5968 111.161 11 102.378 11 83C11 50.3529 22.8184 54.0439 33.4772 41.0882C47.2189 24.3852 62.6202 8 85.924 8Z" stroke="#7B4224"/>
<path d="M87.7569 12C106.643 12 121.154 20.1163 133.714 32C146.776 44.3579 153 60.855 153 80C153 108.346 140.542 125.79 115.249 136C100.067 139.2 102.529 148 87.7568 148C67.2543 148 57.4347 131.328 44.6717 117.6C33.4522 105.532 18 97.5692 18 80C18 50.4 29.0034 53.7465 38.9271 42C51.7211 26.856 66.0602 12 87.7569 12Z" stroke="#7B4224"/>
<path d="M83.5 5C126.854 5.00001 162 40.1457 162 83.5C162 110.22 142.894 134.322 122.5 148.5C109.804 157.326 100.134 162 83.5 162C62.5798 162 47.0709 146.84 33 133.5C17.9108 119.194 5 105.934 5 83.5C5 59.9862 13.1207 46.387 29.5 32C43.3205 19.8606 63.6595 5 83.5 5Z" stroke="#7B4224"/>
<path d="M83.5 1C129.063 1.00001 166 37.9365 166 83.5C166 129.063 129.063 166 83.5 166C37.9365 166 1 129.063 1 83.5C1.00001 37.9365 37.9365 1 83.5 1Z" stroke="#7B4224"/>
</g>
<path d="M74 106.734H73.9645C73.339 106.734 72.8317 107.242 72.8317 107.867C72.8317 108.493 73.339 109 73.9645 109H74C74.6255 109 75.1328 108.493 75.1328 107.867C75.1328 107.242 74.6255 106.734 74 106.734Z" fill="#53382A"/>
<path d="M94.6803 77.7859H100.642C100.702 78.5162 100.734 79.2544 100.734 80C100.734 80.6255 101.242 81.1328 101.867 81.1328C102.493 81.1328 103 80.6255 103 80C103 72.2538 99.9834 64.9713 94.5062 59.4939C89.0287 54.0166 81.7462 51 74 51C66.2538 51 58.9713 54.0166 53.4938 59.4939C48.0166 64.9713 45 72.2538 45 80C45 85.5708 46.6079 91.0035 49.583 95.6473C49.6037 95.684 49.6266 95.7192 49.6511 95.7532C50.3349 96.8103 51.0892 97.8263 51.9123 98.7928C56.3193 103.968 62.4161 107.445 69.0793 108.584C69.144 108.595 69.2082 108.601 69.2715 108.601C69.8133 108.6 70.2924 108.211 70.3869 107.659C70.4924 107.042 70.0777 106.456 69.4612 106.351C66.2718 105.806 63.2998 104.714 60.6327 103.181V97.8553C60.6327 95.7077 58.8854 93.9606 56.7379 93.9606H51.1716C48.6822 89.8802 47.2656 85.091 47.2656 80C47.2656 77.5038 47.6106 75.0869 48.2534 72.7932H57.8242C60.2202 72.7932 62.1696 70.8438 62.1696 68.4478V68.3159C62.1696 67.1691 63.1026 66.2362 64.2493 66.2362C66.6453 66.2362 68.5947 64.2869 68.5947 61.8909V61.1881C68.5947 58.7921 66.6453 56.8427 64.2493 56.8427H60.6527C64.583 54.5686 69.142 53.2656 74 53.2656C79.0478 53.2656 83.7731 54.6724 87.8052 57.1137H81.9665C77.7538 57.1137 74.3264 60.5411 74.3264 64.7539C74.3264 65.4621 73.7502 66.0381 73.0421 66.0381C70.0595 66.0381 67.633 68.4646 67.633 71.4472C67.633 74.9423 70.4766 77.7859 73.9718 77.7859H77.8257C72.8537 80.6934 69.506 86.0893 69.506 92.253C69.506 95.5693 70.475 98.6634 72.1447 101.267C71.8262 101.26 71.5066 101.385 71.2763 101.64C70.562 102.43 69.6867 102.175 69.4354 102.079C69.1841 101.982 68.3641 101.584 68.3641 100.519V93.365C68.3641 90.5364 66.0629 88.2353 63.2343 88.2353C60.9859 88.2353 59.1569 86.4062 59.1569 84.1578V82.3335C59.1569 79.826 61.1969 77.7859 63.7044 77.7859H65.6172C66.2427 77.7859 66.75 77.2788 66.75 76.6531C66.75 76.0275 66.2427 75.5203 65.6172 75.5203H63.7042C59.9475 75.5203 56.891 78.5766 56.891 82.3335V84.1578C56.891 87.6554 59.7365 90.5009 63.2341 90.5009C64.8133 90.5009 66.0983 91.7858 66.0983 93.365V100.519C66.0983 102.161 67.0886 103.603 68.6213 104.193C69.0883 104.373 69.5709 104.46 70.0476 104.46C71.1352 104.46 72.1913 104.006 72.9569 103.159C73.0721 103.031 73.1516 102.885 73.1986 102.73C76.2708 106.55 80.9808 109 86.2529 109C89.6306 109 92.8587 108.009 95.6327 106.128L101.377 108.888C101.533 108.963 101.701 109 101.867 109C102.153 109 102.435 108.892 102.651 108.685C102.992 108.359 103.094 107.855 102.908 107.421L100.31 101.358C102.072 98.6454 103 95.5113 103 92.253C103 86.0893 99.6523 80.6935 94.6803 77.7859ZM56.738 96.2261C57.6363 96.2261 58.3672 96.9568 58.3672 97.8552V101.72C56.2164 100.174 54.3149 98.3203 52.7202 96.2261H56.738ZM64.2494 59.1081C65.3962 59.1082 66.3292 60.0412 66.3292 61.1879V61.8907C66.3292 63.0376 65.3962 63.9705 64.2494 63.9705C61.8534 63.9705 59.9041 65.9198 59.9041 68.3158V68.4477C59.9041 69.5946 58.9711 70.5274 57.8243 70.5274H49.0009C50.7182 66.0103 53.6257 62.0756 57.3392 59.1081H64.2494ZM73.9717 75.5203C71.7258 75.5203 69.8985 73.6932 69.8985 71.4472C69.8985 69.7138 71.3087 68.3037 73.042 68.3037C74.9994 68.3037 76.5919 66.7112 76.5919 64.7539C76.5919 61.7904 79.0028 59.3793 81.9664 59.3793H90.9972C94.1372 61.9722 96.6772 65.267 98.3747 69.0211H91.3747C90.7492 69.0211 90.2419 69.5283 90.2419 70.1539C90.2419 70.7796 90.7492 71.2867 91.3747 71.2867H99.2751C99.7469 72.6516 100.111 74.0662 100.357 75.5203H73.9717ZM97.9841 101.682L99.6368 105.538L96.0133 103.797C95.635 103.615 95.187 103.658 94.8495 103.907C92.3462 105.757 89.3736 106.734 86.2529 106.734C78.2679 106.734 71.7715 100.238 71.7715 92.253C71.7715 84.4777 77.9312 78.115 85.6268 77.7859H86.879C94.5747 78.115 100.734 84.4777 100.734 92.253C100.734 95.256 99.8231 98.1366 98.0992 100.583C97.8728 100.905 97.8291 101.321 97.9841 101.682Z" fill="#53382A"/>
<path d="M87.3536 69.3527C87.1428 69.142 86.8506 69.0208 86.5527 69.0208C86.2536 69.0208 85.9625 69.142 85.7519 69.3527C85.5401 69.5634 85.4199 69.8557 85.4199 70.1536C85.4199 70.4527 85.5401 70.7438 85.7519 70.9545C85.9625 71.1663 86.2537 71.2864 86.5527 71.2864C86.8505 71.2864 87.1429 71.1663 87.3536 70.9545C87.5643 70.7438 87.6855 70.4527 87.6855 70.1536C87.6855 69.8557 87.5644 69.5634 87.3536 69.3527Z" fill="#53382A"/>
<path fill-rule="evenodd" clip-rule="evenodd" d="M75.1411 87.4969C75.138 87.4466 75.1349 87.3975 75.1319 87.3495C81.1296 87.5807 92.0448 90.7804 87.7241 101.73C76.1561 103.756 75.4029 91.6911 75.1411 87.4969ZM77.1641 89.6856C77.1501 89.5645 77.1368 89.4496 77.124 89.3415C81.4174 89.507 88.8012 92.4647 86.5027 99.9839C78.4878 101.132 77.5518 93.0378 77.1641 89.6856Z" fill="#53382A"/>
<path fill-rule="evenodd" clip-rule="evenodd" d="M97.4724 85.7049C97.4729 85.6545 97.4734 85.6052 97.4739 85.5572C91.4966 86.1029 80.7644 89.8712 85.6539 100.579C97.3124 101.995 97.4311 89.9071 97.4724 85.7049ZM95.5671 87.9967C95.5747 87.8751 95.5819 87.7596 95.5891 87.651C91.3103 88.0417 84.0919 91.3829 86.782 98.7711C94.8462 99.4973 95.3559 91.3647 95.5671 87.9967Z" fill="#53382A"/>
</svg>
