<svg width="72" height="76" viewBox="0 0 72 76" fill="none" xmlns="http://www.w3.org/2000/svg">
<path d="M53.7187 10.9844H54.7438V12.0234C54.7438 12.8433 55.3995 13.5078 56.2081 13.5078C57.0167 13.5078 57.6725 12.8433 57.6725 12.0234V10.9844H58.6975C59.5061 10.9844 60.1619 10.3198 60.1619 9.5C60.1619 8.68018 59.5061 8.01562 58.6975 8.01562H57.6725V6.97656C57.6725 6.15674 57.0167 5.49219 56.2081 5.49219C55.3995 5.49219 54.7438 6.15674 54.7438 6.97656V8.01562H53.7187C52.9101 8.01562 52.2544 8.68018 52.2544 9.5C52.2544 10.3198 52.9101 10.9844 53.7187 10.9844Z" fill="white"/>
<path d="M8.83645 47.6437H7.8114V46.6046C7.8114 45.7848 7.15567 45.1202 6.34705 45.1202C5.53844 45.1202 4.8827 45.7848 4.8827 46.6046V47.6437H3.85766C3.04905 47.6437 2.39331 48.3082 2.39331 49.128C2.39331 49.9479 3.04905 50.6124 3.85766 50.6124H4.8827V51.6515C4.8827 52.4713 5.53844 53.1359 6.34705 53.1359C7.15567 53.1359 7.8114 52.4713 7.8114 51.6515V50.6124H8.83645C9.64506 50.6124 10.3008 49.9479 10.3008 49.128C10.3008 48.3082 9.64506 47.6437 8.83645 47.6437Z" fill="white"/>
<path d="M70.5319 50.1671H69.5068V49.128C69.5068 48.3082 68.8511 47.6437 68.0425 47.6437C67.2339 47.6437 66.5781 48.3082 66.5781 49.128V50.1671H65.5531C64.7445 50.1671 64.0887 50.8317 64.0887 51.6515C64.0887 52.4713 64.7445 53.1359 65.5531 53.1359H66.5781V54.1749C66.5781 54.9947 67.2339 55.6593 68.0425 55.6593C68.8511 55.6593 69.5068 54.9947 69.5068 54.1749V53.1359H70.5319C71.3405 53.1359 71.9962 52.4713 71.9962 51.6515C71.9962 50.8317 71.3406 50.1671 70.5319 50.1671Z" fill="white"/>
<path d="M54.7027 44.1711L69.368 33.42C71.6331 31.7594 72.5404 28.9446 71.6794 26.2486C70.8185 23.5529 68.4559 21.811 65.6606 21.811H47.5591L42.0196 4.44036C41.1594 1.74295 38.7967 0 36.0001 0C33.2035 0 30.8407 1.74295 29.9804 4.44036L24.4412 21.8108H6.3394C3.5441 21.8108 1.18152 23.5527 0.320631 26.2485C-0.540406 28.9444 0.366904 31.7592 2.63196 33.4198L17.2973 44.171L11.6846 61.5529C10.6444 64.774 12.1889 67.6021 14.3694 68.9969V74.5156C14.3694 75.3354 15.0252 76 15.8338 76H29.4105C30.2191 76 30.8749 75.3354 30.8749 74.5156C30.8749 73.6958 30.2191 73.0312 29.4105 73.0312H17.2981V68.4049C17.2981 63.9234 20.895 60.2775 25.3159 60.2775H30.8671L34.6674 68.7381C34.9052 69.2675 35.4262 69.6074 36.0001 69.6074C36.574 69.6074 37.095 69.2675 37.3328 68.7381L41.1331 60.2774H46.6844C51.1053 60.2774 54.7022 63.9234 54.7022 68.4047V73.0312H42.5896C41.781 73.0312 41.1253 73.6958 41.1253 74.5156C41.1253 75.3354 41.781 76 42.5896 76H56.1665C56.9751 76 57.6309 75.3354 57.6309 74.5156V68.9969C59.8113 67.6021 61.3557 64.774 60.3156 61.5529L54.7027 44.1711ZM29.0832 43.6053H39.2268C40.5574 43.6053 41.8122 43.2722 42.9171 42.6869V46.0173C42.9171 50.5502 40.0081 53.8404 36.0002 53.8404C32.1862 53.8404 29.0834 50.695 29.0834 46.8288L29.0832 43.6053ZM44.2941 35.4999C44.2941 38.3324 42.0209 40.6365 39.2268 40.6365H29.0832V38.4242C29.0832 35.5918 31.3563 33.2876 34.1505 33.2876H44.2941V35.4999ZM36.0001 64.5409L33.2738 58.4713V56.4169C34.1402 56.6705 35.0542 56.8093 36.0001 56.8093C36.9538 56.8093 37.8664 56.6724 38.7264 56.4198V58.4713L36.0001 64.5409ZM57.2079 65.3587C55.8984 60.7172 51.678 57.3088 46.6844 57.3088H41.6551V54.9605C44.2225 53.0532 45.8456 49.8259 45.8456 46.0173V40.0422C46.7144 38.7456 47.2227 37.1818 47.2227 35.4997V31.803C47.2227 30.9832 46.567 30.3187 45.7584 30.3187H34.1503C29.7413 30.3187 26.1544 33.9548 26.1544 38.4241V46.8286C26.1544 50.1995 27.8132 53.1831 30.3449 54.9909V57.3085H25.3157C20.322 57.3085 16.1016 60.717 14.7921 65.3585C14.3033 64.5789 14.112 63.5779 14.4679 62.4762L20.4133 44.0647C20.6114 43.4514 20.3957 42.7784 19.8796 42.4001L4.34847 31.0144C2.87197 29.932 2.73915 28.3152 3.10699 27.163C3.47484 26.0109 4.51731 24.7797 6.3394 24.7797H25.5068C26.1421 24.7797 26.7048 24.3645 26.9003 23.7519L32.7672 5.3537C33.3279 3.5953 34.8049 2.96875 36.0001 2.96875C37.1953 2.96875 38.6722 3.5953 39.2329 5.3534L45.0998 23.7518C45.2953 24.3644 45.8581 24.7796 46.4933 24.7796H65.6608C67.4828 24.7796 68.5253 26.0107 68.8932 27.1629C69.261 28.315 69.1282 29.9318 67.6517 31.0142L52.1204 42.4003C51.6045 42.7785 51.3888 43.4515 51.5868 44.0649L57.5322 62.4763C57.8878 63.578 57.6967 64.5791 57.2079 65.3587Z" fill="white"/>
<path d="M36.0001 73.0312C35.615 73.0312 35.2372 73.1901 34.9648 73.4662C34.6924 73.7423 34.5358 74.1252 34.5358 74.5156C34.5358 74.906 34.6923 75.289 34.9648 75.5651C35.2373 75.8412 35.615 76 36.0001 76C36.3852 76 36.763 75.8412 37.0353 75.5651C37.3076 75.289 37.4645 74.906 37.4645 74.5156C37.4645 74.1252 37.3078 73.7423 37.0353 73.4662C36.763 73.1901 36.3852 73.0312 36.0001 73.0312Z" fill="white"/>
</svg>
