<svg width="76" height="76" viewBox="0 0 76 76" fill="none" xmlns="http://www.w3.org/2000/svg">
<path d="M74.293 30.0585H66.58C65.9652 30.0585 65.4667 30.557 65.4667 31.1718C65.4667 31.7866 65.9652 32.2851 66.58 32.2851H73.7734V37.9999C73.7734 40.2275 73.5671 42.4559 73.1601 44.6233C71.9462 51.113 69.0261 56.9096 64.9175 61.5925L55.5702 54.8401C58.1869 52.1018 60.1653 48.7644 61.2735 45.1547C61.3771 44.8171 61.3145 44.4503 61.1044 44.1663C60.8945 43.8822 60.5623 43.7148 60.2092 43.7148H39.1133V32.2851H61.7614C62.3762 32.2851 62.8747 31.7866 62.8747 31.1718C62.8747 30.557 62.3762 30.0585 61.7614 30.0585H38.5937C37.6525 30.0585 36.8867 30.8243 36.8867 31.7656V44.2343C36.8867 45.1755 37.6525 45.9413 38.5937 45.9413H58.6494C55.3853 54.4808 47.2687 60.1171 38 60.1171C33.149 60.1171 28.5446 58.5763 24.6847 55.6611C24.1941 55.2906 23.4958 55.388 23.1253 55.8786C22.7547 56.3693 22.8522 57.0674 23.3428 57.4379C27.5924 60.6473 32.6608 62.3436 38 62.3436C43.3131 62.3436 48.3615 60.6621 52.5996 57.481C53.0567 57.1378 53.5004 56.7775 53.9315 56.4032L63.385 63.2325C56.856 69.7934 47.8295 73.7733 37.9989 73.7733C37.9154 73.7733 37.8312 73.773 37.7476 73.7724C24.2278 73.6792 12.4614 66.0201 6.46025 54.8467L15.9591 48.3374C16.9235 50.3932 18.1775 52.32 19.701 54.055C19.921 54.3056 20.2287 54.4337 20.5381 54.4337C20.7989 54.4337 21.0607 54.3426 21.2722 54.157C21.7342 53.7513 21.7799 53.0479 21.3742 52.586C17.7966 48.5115 15.8467 43.277 15.8835 37.8464C15.9655 25.7356 25.887 15.8828 38 15.8828C43.7025 15.8828 49.1169 18.0474 53.2459 21.9778C53.9211 22.6205 54.9671 22.6071 55.6272 21.947L64.4471 13.1272C64.7729 12.8014 64.9503 12.3682 64.9464 11.9075C64.9426 11.4448 64.757 11.0126 64.4238 10.69C57.2978 3.79643 47.9135 0 38 0C32.2281 0 26.6843 1.26142 21.5225 3.74893C20.9687 4.01582 20.7361 4.68126 21.003 5.23523C21.2699 5.7889 21.9349 6.0215 22.4893 5.75476C27.3471 3.41361 32.5655 2.22656 38 2.22656C47.1577 2.22656 55.8361 5.66822 62.4968 11.9289L54.4083 20.0174C49.9127 15.9111 44.1064 13.6562 38 13.6562C31.5036 13.6562 25.4045 16.1602 20.8257 20.707C19.0611 22.4594 17.5997 24.4405 16.4658 26.5845L7.15523 19.8572C9.91499 15.1682 13.7554 11.0992 18.4788 8.01739C18.9937 7.68133 19.1388 6.99154 18.8028 6.47676C18.4669 5.96168 17.7771 5.81681 17.2622 6.15272C6.48162 13.1866 0.0284477 25.0601 9.6088e-05 37.9143C-0.022318 48.0629 3.87729 57.6008 10.9803 64.7709C18.084 71.9414 27.5847 75.929 37.7323 75.9991C37.8199 75.9997 37.9063 76 37.9939 76C46.8728 75.9997 55.5002 72.8822 62.3117 67.2058C69.1027 61.5467 73.7328 53.6722 75.3487 45.0336C75.7809 42.7315 76 40.3651 76 37.9999V31.7656C76 30.8243 75.2342 30.0585 74.293 30.0585ZM6.07817 21.8261L15.5017 28.6349C14.3132 31.5089 13.6786 34.6193 13.6568 37.8315C13.6372 40.7229 14.1309 43.5634 15.0901 46.2339L5.46052 52.8328C3.37542 48.2851 2.21493 43.2328 2.22666 37.9193C2.23913 32.2241 3.59199 26.7335 6.07817 21.8261Z" fill="#868686"/>
</svg>
