<svg width="76" height="76" viewBox="0 0 76 76" fill="none" xmlns="http://www.w3.org/2000/svg">
<path d="M72.3226 0H3.67742C2.70251 0.00129729 1.76789 0.389155 1.07852 1.07852C0.389155 1.76789 0.00129729 2.70251 0 3.67742V72.3226C0.00129729 73.2975 0.389155 74.2321 1.07852 74.9215C1.76789 75.6108 2.70251 75.9987 3.67742 76H72.3226C73.2975 75.9987 74.2321 75.6108 74.9215 74.9215C75.6108 74.2321 75.9987 73.2975 76 72.3226V3.67742C75.9987 2.70251 75.6108 1.76789 74.9215 1.07852C74.2321 0.389155 73.2975 0.00129729 72.3226 0ZM73.5484 72.3226C73.5479 72.6476 73.4186 72.9591 73.1889 73.1889C72.9591 73.4186 72.6476 73.5479 72.3226 73.5484H3.67742C3.35245 73.5479 3.04092 73.4186 2.81114 73.1889C2.58135 72.9591 2.45206 72.6476 2.45161 72.3226V9.80645H73.5484V72.3226ZM73.5484 7.35484H2.45161V3.67742C2.45206 3.35245 2.58135 3.04092 2.81114 2.81114C3.04092 2.58135 3.35245 2.45206 3.67742 2.45161H72.3226C72.6476 2.45206 72.9591 2.58135 73.1889 2.81114C73.4186 3.04092 73.5479 3.35245 73.5484 3.67742V7.35484Z" fill="white"/>
<path d="M19.6129 13.4839H7.35484C6.37992 13.4852 5.44531 13.873 4.75594 14.5624C4.06657 15.2518 3.67872 16.1864 3.67742 17.1613V26.9677C3.67872 27.9427 4.06657 28.8773 4.75594 29.5666C5.44531 30.256 6.37992 30.6439 7.35484 30.6452H19.6129C20.5878 30.6439 21.5224 30.256 22.2118 29.5666C22.9012 28.8773 23.289 27.9427 23.2903 26.9677V17.1613C23.289 16.1864 22.9012 15.2518 22.2118 14.5624C21.5224 13.873 20.5878 13.4852 19.6129 13.4839ZM20.8387 26.9677C20.8383 27.2927 20.709 27.6042 20.4792 27.834C20.2494 28.0638 19.9379 28.1931 19.6129 28.1935H7.35484C7.02987 28.1931 6.71834 28.0638 6.48855 27.834C6.25877 27.6042 6.12948 27.2927 6.12903 26.9677V17.1613C6.12948 16.8363 6.25877 16.5248 6.48855 16.295C6.71834 16.0652 7.02987 15.9359 7.35484 15.9355H19.6129C19.9379 15.9359 20.2494 16.0652 20.4792 16.295C20.709 16.5248 20.8383 16.8363 20.8387 17.1613V26.9677Z" fill="white"/>
<path d="M16.671 20.9306L11.7677 17.2532C11.5856 17.1166 11.3691 17.0335 11.1423 17.013C10.9156 16.9926 10.6877 17.0357 10.4841 17.1375C10.2804 17.2393 10.1092 17.3958 9.98952 17.5894C9.86984 17.7831 9.80645 18.0062 9.80645 18.2339V25.5887C9.80645 25.8164 9.86984 26.0395 9.98952 26.2332C10.1092 26.4268 10.2804 26.5833 10.4841 26.6851C10.6877 26.7869 10.9156 26.83 11.1423 26.8096C11.3691 26.7891 11.5856 26.7059 11.7677 26.5694L16.671 22.8919C16.8232 22.7778 16.9468 22.6297 17.0319 22.4595C17.117 22.2893 17.1613 22.1016 17.1613 21.9113C17.1613 21.721 17.117 21.5333 17.0319 21.3631C16.9468 21.1929 16.8232 21.0448 16.671 20.9306ZM12.2581 23.1371V20.6855L13.893 21.9113L12.2581 23.1371Z" fill="white"/>
<path d="M71.0968 13.4839H25.7419C25.4168 13.4839 25.105 13.613 24.8752 13.8429C24.6453 14.0728 24.5161 14.3846 24.5161 14.7097V29.4194C24.5161 29.7445 24.6453 30.0562 24.8752 30.2861C25.105 30.516 25.4168 30.6452 25.7419 30.6452H71.0968C71.4219 30.6452 71.7337 30.516 71.9636 30.2861C72.1934 30.0562 72.3226 29.7445 72.3226 29.4194V14.7097C72.3226 14.3846 72.1934 14.0728 71.9636 13.8429C71.7337 13.613 71.4219 13.4839 71.0968 13.4839ZM26.9677 28.1935V15.9355H55.1613V28.0403C55.1618 28.0916 55.1653 28.1427 55.172 28.1935H26.9677ZM69.871 28.1935H57.6022C57.6089 28.1427 57.6124 28.0916 57.6129 28.0403V15.9355H69.871V28.1935Z" fill="white"/>
<path d="M68.2866 24.7215L65.835 22.2698H65.8335C66.0714 21.7756 66.1945 21.234 66.1936 20.6855C66.1936 19.9582 65.9779 19.2472 65.5738 18.6424C65.1697 18.0377 64.5954 17.5663 63.9234 17.288C63.2515 17.0097 62.5121 16.9368 61.7987 17.0787C61.0854 17.2206 60.4301 17.5709 59.9158 18.0852C59.4015 18.5995 59.0513 19.2547 58.9094 19.9681C58.7675 20.6814 58.8403 21.4208 59.1186 22.0928C59.397 22.7647 59.8683 23.3391 60.4731 23.7431C61.0778 24.1472 61.7888 24.3629 62.5161 24.3629C63.0646 24.3639 63.6063 24.2408 64.1005 24.0028V24.0044L66.5521 26.456C66.7821 26.686 67.0941 26.8152 67.4194 26.8152C67.7446 26.8152 68.0566 26.686 68.2866 26.456C68.5166 26.226 68.6458 25.914 68.6458 25.5887C68.6458 25.2634 68.5166 24.9515 68.2866 24.7215ZM62.5161 21.9113C62.2737 21.9113 62.0367 21.8394 61.8351 21.7047C61.6335 21.57 61.4764 21.3786 61.3836 21.1546C61.2909 20.9306 61.2666 20.6841 61.3139 20.4463C61.3612 20.2086 61.4779 19.9901 61.6494 19.8187C61.8208 19.6473 62.0392 19.5305 62.277 19.4832C62.5148 19.4359 62.7612 19.4602 62.9852 19.553C63.2092 19.6458 63.4007 19.8029 63.5354 20.0045C63.67 20.206 63.7419 20.443 63.7419 20.6855C63.7415 21.0105 63.6122 21.322 63.3824 21.5518C63.1526 21.7816 62.8411 21.9108 62.5161 21.9113Z" fill="white"/>
<path d="M4.90323 71.0968H11.0323C11.3574 71.0968 11.6692 70.9676 11.899 70.7377C12.1289 70.5079 12.2581 70.1961 12.2581 69.871C12.2581 69.5459 12.1289 69.2341 11.899 69.0042C11.6692 68.7743 11.3574 68.6452 11.0323 68.6452H4.90323C4.57812 68.6452 4.26633 68.7743 4.03645 69.0042C3.80657 69.2341 3.67742 69.5459 3.67742 69.871C3.67742 70.1961 3.80657 70.5079 4.03645 70.7377C4.26633 70.9676 4.57812 71.0968 4.90323 71.0968Z" fill="white"/>
<path d="M15.9355 68.6452H14.7097C14.3846 68.6452 14.0728 68.7743 13.8429 69.0042C13.613 69.2341 13.4839 69.5459 13.4839 69.871C13.4839 70.1961 13.613 70.5079 13.8429 70.7377C14.0728 70.9676 14.3846 71.0968 14.7097 71.0968H15.9355C16.2606 71.0968 16.5724 70.9676 16.8023 70.7377C17.0321 70.5079 17.1613 70.1961 17.1613 69.871C17.1613 69.5459 17.0321 69.2341 16.8023 69.0042C16.5724 68.7743 16.2606 68.6452 15.9355 68.6452Z" fill="white"/>
<path d="M4.90323 6.12903C5.58022 6.12903 6.12903 5.58022 6.12903 4.90323C6.12903 4.22623 5.58022 3.67742 4.90323 3.67742C4.22623 3.67742 3.67742 4.22623 3.67742 4.90323C3.67742 5.58022 4.22623 6.12903 4.90323 6.12903Z" fill="white"/>
<path d="M8.73387 6.12903C9.41087 6.12903 9.95968 5.58022 9.95968 4.90323C9.95968 4.22623 9.41087 3.67742 8.73387 3.67742C8.05688 3.67742 7.50806 4.22623 7.50806 4.90323C7.50806 5.58022 8.05688 6.12903 8.73387 6.12903Z" fill="white"/>
<path d="M12.4113 6.12903C13.0883 6.12903 13.6371 5.58022 13.6371 4.90323C13.6371 4.22623 13.0883 3.67742 12.4113 3.67742C11.7343 3.67742 11.1855 4.22623 11.1855 4.90323C11.1855 5.58022 11.7343 6.12903 12.4113 6.12903Z" fill="white"/>
<path d="M71.0968 33.0968H4.90323C4.57812 33.0968 4.26633 33.2259 4.03645 33.4558C3.80657 33.6857 3.67742 33.9975 3.67742 34.3226V66.1936C3.67742 66.5187 3.80657 66.8304 4.03645 67.0603C4.26633 67.2902 4.57812 67.4194 4.90323 67.4194H71.0968C71.4219 67.4194 71.7337 67.2902 71.9636 67.0603C72.1934 66.8304 72.3226 66.5187 72.3226 66.1936V34.3226C72.3226 33.9975 72.1934 33.6857 71.9636 33.4558C71.7337 33.2259 71.4219 33.0968 71.0968 33.0968ZM69.871 64.9677H6.12903V35.5484H69.871V64.9677Z" fill="white"/>
<path d="M61.2903 39.2258C60.6692 39.2259 60.0582 39.3833 59.5143 39.6833C58.9705 39.9834 58.5115 40.4163 58.1802 40.9417C57.8488 41.4671 57.656 42.0679 57.6197 42.688C57.5833 43.308 57.7046 43.9272 57.9722 44.4877L46.94 55.52C46.4629 55.2918 45.9422 55.1693 45.4134 55.1611C44.8847 55.1529 44.3604 55.2591 43.8765 55.4723L32.8916 44.4874C32.8569 44.4531 32.8201 44.4209 32.7816 44.3909C33.0315 43.8269 33.1356 43.2092 33.0842 42.5945C33.0328 41.9798 32.8276 41.3878 32.4875 40.8732C32.1474 40.3586 31.6833 39.9378 31.1379 39.6496C30.5925 39.3613 29.9834 39.2149 29.3666 39.2238C28.7498 39.2327 28.1452 39.3966 27.6083 39.7004C27.0715 40.0042 26.6197 40.4382 26.2945 40.9624C25.9694 41.4866 25.7813 42.0842 25.7476 42.7002C25.714 43.3161 25.8358 43.9306 26.1019 44.4871L15.0696 55.5194C14.2866 55.1453 13.3965 55.0601 12.5567 55.2788C11.7169 55.4976 10.9815 56.0061 10.4804 56.7147C9.97932 57.4232 9.74488 58.2861 9.81849 59.1508C9.89211 60.0154 10.269 60.8263 10.8827 61.4399C11.4963 62.0535 12.3071 62.4305 13.1718 62.5041C14.0365 62.5777 14.8994 62.3433 15.6079 61.8422C16.3164 61.3411 16.825 60.6057 17.0438 59.7659C17.2625 58.9261 17.1773 58.036 16.8032 57.253L27.8355 46.2207C28.348 46.466 28.9106 46.5888 29.4787 46.5795C30.0469 46.5703 30.6051 46.4291 31.1094 46.1672C31.1248 46.1853 31.1401 46.2037 31.158 46.221L42.0884 57.1532C41.8009 57.7095 41.6603 58.33 41.6798 58.9559C41.6992 59.5818 41.8782 60.1923 42.1998 60.7296C42.5213 61.2669 42.9747 61.7133 43.517 62.0263C44.0593 62.3394 44.6726 62.5087 45.2987 62.5184C45.9248 62.5281 46.543 62.3777 47.0947 62.0815C47.6464 61.7854 48.1133 61.3532 48.4513 60.8261C48.7892 60.2989 48.987 59.6942 49.0258 59.0692C49.0645 58.4442 48.9431 57.8197 48.6729 57.2548L59.7052 46.2226C60.2033 46.4601 60.7483 46.5824 61.3001 46.5806C61.8519 46.5788 62.3962 46.4529 62.8926 46.2121C63.3891 45.9714 63.8251 45.622 64.1681 45.1898C64.5112 44.7577 64.7527 44.2539 64.8746 43.7158C64.9965 43.1776 64.9958 42.619 64.8724 42.0812C64.7491 41.5433 64.5063 41.0402 64.162 40.609C63.8178 40.1777 63.3809 39.8295 62.8838 39.5901C62.3867 39.3506 61.8421 39.2261 61.2903 39.2258ZM13.4839 60.0645C13.2414 60.0645 13.0044 59.9926 12.8028 59.8579C12.6013 59.7232 12.4442 59.5318 12.3514 59.3078C12.2586 59.0838 12.2343 58.8373 12.2816 58.5996C12.3289 58.3618 12.4457 58.1434 12.6171 57.9719C12.7885 57.8005 13.0069 57.6838 13.2447 57.6365C13.4825 57.5892 13.729 57.6134 13.953 57.7062C14.177 57.799 14.3684 57.9561 14.5031 58.1577C14.6378 58.3593 14.7097 58.5963 14.7097 58.8387C14.7093 59.1637 14.58 59.4753 14.3502 59.7051C14.1204 59.9349 13.8089 60.0642 13.4839 60.0645ZM29.4194 44.129C29.1769 44.129 28.9399 44.0571 28.7383 43.9224C28.5368 43.7878 28.3796 43.5963 28.2869 43.3723C28.1941 43.1483 28.1698 42.9019 28.2171 42.6641C28.2644 42.4263 28.3811 42.2079 28.5526 42.0364C28.724 41.865 28.9424 41.7483 29.1802 41.701C29.418 41.6537 29.6645 41.678 29.8885 41.7707C30.1124 41.8635 30.3039 42.0206 30.4386 42.2222C30.5733 42.4238 30.6452 42.6608 30.6452 42.9032C30.6448 43.2282 30.5155 43.5398 30.2857 43.7696C30.0559 43.9994 29.7443 44.1287 29.4194 44.129ZM45.3548 60.0645C45.1124 60.0645 44.8754 59.9926 44.6738 59.8579C44.4722 59.7232 44.3151 59.5318 44.2223 59.3078C44.1296 59.0838 44.1053 58.8373 44.1526 58.5996C44.1999 58.3618 44.3166 58.1434 44.4881 57.9719C44.6595 57.8005 44.8779 57.6838 45.1157 57.6365C45.3535 57.5892 45.5999 57.6134 45.8239 57.7062C46.0479 57.799 46.2394 57.9561 46.3741 58.1577C46.5088 58.3593 46.5806 58.5963 46.5806 58.8387C46.5803 59.1637 46.451 59.4753 46.2212 59.7051C45.9914 59.9349 45.6798 60.0642 45.3548 60.0645ZM61.2903 44.129C61.0479 44.129 60.8109 44.0571 60.6093 43.9224C60.4077 43.7878 60.2506 43.5963 60.1578 43.3723C60.0651 43.1483 60.0408 42.9019 60.0881 42.6641C60.1354 42.4263 60.2521 42.2079 60.4235 42.0364C60.595 41.865 60.8134 41.7483 61.0512 41.701C61.289 41.6537 61.5354 41.678 61.7594 41.7707C61.9834 41.8635 62.1749 42.0206 62.3096 42.2222C62.4442 42.4238 62.5161 42.6608 62.5161 42.9032C62.5158 43.2282 62.3865 43.5398 62.1567 43.7696C61.9269 43.9994 61.6153 44.1287 61.2903 44.129Z" fill="white"/>
</svg>
