<svg width="88" height="76" viewBox="0 0 88 76" fill="none" xmlns="http://www.w3.org/2000/svg">
<path d="M80.9032 8.60368H37.1339C36.03 6.04662 34.2116 3.87056 31.9016 2.3423C29.5915 0.814035 26.8903 0 24.129 0C21.3678 0 18.6665 0.814035 16.3565 2.3423C14.0465 3.87056 12.228 6.04662 11.1242 8.60368H7.09677C5.21517 8.60558 3.41117 9.36158 2.08067 10.7058C0.750176 12.05 0.00187879 13.8725 0 15.7735V55.9245C0.00187879 57.8255 0.750176 59.648 2.08067 60.9922C3.41117 62.3364 5.21517 63.0924 7.09677 63.0943H34.8948L32.8847 68.8302H26.9677C26.5913 68.8302 26.2303 68.9813 25.9641 69.2502C25.6979 69.5191 25.5484 69.8838 25.5484 70.2641V74.566C25.5484 74.9464 25.6979 75.3111 25.9641 75.58C26.2303 75.8489 26.5913 76 26.9677 76H61.0323C61.4087 76 61.7697 75.8489 62.0359 75.58C62.3021 75.3111 62.4516 74.9464 62.4516 74.566V70.2641C62.4516 69.8838 62.3021 69.5191 62.0359 69.2502C61.7697 68.9813 61.4087 68.8302 61.0323 68.8302H54.9379L52.9277 63.0943H80.9032C82.7848 63.0924 84.5888 62.3364 85.9193 60.9922C87.2498 59.648 87.9981 57.8255 88 55.9245V15.7735C87.9981 13.8725 87.2498 12.05 85.9193 10.7058C84.5888 9.36158 82.7848 8.60558 80.9032 8.60368ZM35.4839 14.3395C35.4858 17.248 34.3893 20.0476 32.4181 22.1672C32.3876 22.1177 32.3538 22.0704 32.3169 22.0256L25.921 14.2714L31.8273 5.91679C32.9803 6.98877 33.9007 8.29084 34.5301 9.74063C35.1595 11.1904 35.4843 12.7564 35.4839 14.3395ZM24.129 2.86782C26.0119 2.86591 27.8654 3.33975 29.5208 4.24622L23.3981 12.9056H12.8665C13.2147 10.135 14.5504 7.58764 16.6234 5.74008C18.6964 3.89253 21.3647 2.87141 24.129 2.86782ZM23.4637 15.7735L30.1347 23.8611C30.1727 23.9066 30.2136 23.9498 30.2571 23.9901C28.6443 25.0381 26.7948 25.6558 24.8815 25.7856C22.9682 25.9154 21.0536 25.553 19.3165 24.7323C17.5795 23.9116 16.0768 22.6593 14.9488 21.0926C13.8208 19.5259 13.1044 17.6959 12.8665 15.7735H23.4637ZM59.6129 71.6981V73.1321H28.3871V71.6981H59.6129ZM35.8955 68.8302L37.9056 63.0943H49.9169L51.9271 68.8302H35.8955ZM85.1613 55.9245C85.1598 57.065 84.7107 58.1583 83.9125 58.9647C83.1143 59.7712 82.0321 60.2249 80.9032 60.2264H7.09677C5.96793 60.2249 4.88574 59.7712 4.08753 58.9647C3.28931 58.1583 2.84021 57.065 2.83871 55.9245V54.4905H85.1613V55.9245ZM85.1613 51.6226H2.83871V15.7735C2.84021 14.633 3.28931 13.5397 4.08753 12.7333C4.88574 11.9268 5.96793 11.4731 7.09677 11.4716H10.2211C9.8011 13.5547 9.84478 15.7061 10.349 17.7701C10.8532 19.834 11.8054 21.7589 13.1365 23.4054C14.4677 25.0518 16.1445 26.3786 18.0457 27.2898C19.9469 28.2009 22.0248 28.6736 24.129 28.6736C26.2333 28.6736 28.3112 28.2009 30.2123 27.2898C32.1135 26.3786 33.7904 25.0518 35.1215 23.4054C36.4527 21.7589 37.4048 19.834 37.9091 17.7701C38.4133 15.7061 38.457 13.5547 38.0369 11.4716H80.9032C82.0321 11.4731 83.1143 11.9268 83.9125 12.7333C84.7107 13.5397 85.1598 14.633 85.1613 15.7735V51.6226Z" fill="#868686"/>
<path d="M17.0323 55.9245H7.09677C6.72034 55.9245 6.35932 56.0756 6.09314 56.3445C5.82696 56.6134 5.67742 56.9782 5.67742 57.3585C5.67742 57.7388 5.82696 58.1035 6.09314 58.3724C6.35932 58.6414 6.72034 58.7924 7.09677 58.7924H17.0323C17.4087 58.7924 17.7697 58.6414 18.0359 58.3724C18.3021 58.1035 18.4516 57.7388 18.4516 57.3585C18.4516 56.9782 18.3021 56.6134 18.0359 56.3445C17.7697 56.0756 17.4087 55.9245 17.0323 55.9245Z" fill="#868686"/>
<path d="M22.7097 55.9245H21.2903C20.9139 55.9245 20.5529 56.0756 20.2867 56.3445C20.0205 56.6134 19.871 56.9782 19.871 57.3585C19.871 57.7388 20.0205 58.1035 20.2867 58.3724C20.5529 58.6414 20.9139 58.7924 21.2903 58.7924H22.7097C23.0861 58.7924 23.4471 58.6414 23.7133 58.3724C23.9795 58.1035 24.129 57.7388 24.129 57.3585C24.129 56.9782 23.9795 56.6134 23.7133 56.3445C23.4471 56.0756 23.0861 55.9245 22.7097 55.9245Z" fill="#868686"/>
<path d="M73.8064 17.2075C72.6776 17.209 71.5954 17.6627 70.7972 18.4691C69.999 19.2756 69.5499 20.3689 69.5484 21.5094C69.5473 22.151 69.6898 22.7846 69.9653 23.3628H69.9635L64.2861 29.0986V29.1004C63.7135 28.8231 63.0866 28.6792 62.4516 28.6792C61.8166 28.6792 61.1897 28.8231 60.6171 29.1004V29.0986L54.9397 23.3628H54.9379C55.2134 22.7846 55.356 22.151 55.3548 21.5094C55.3548 20.3684 54.9062 19.2742 54.1077 18.4675C53.3091 17.6607 52.2261 17.2075 51.0968 17.2075C49.9675 17.2075 48.8844 17.6607 48.0859 18.4675C47.2873 19.2742 46.8387 20.3684 46.8387 21.5094C46.8376 22.151 46.9801 22.7846 47.2556 23.3628H47.2539L41.5765 29.0986V29.1004C41.0042 28.822 40.3771 28.678 39.7419 28.6792C38.8998 28.6792 38.0765 28.9315 37.3763 29.4042C36.676 29.8769 36.1303 30.5487 35.808 31.3348C35.4857 32.1209 35.4014 32.9858 35.5657 33.8203C35.73 34.6548 36.1355 35.4213 36.731 36.023C37.3265 36.6246 38.0852 37.0343 38.9112 37.2003C39.7372 37.3663 40.5934 37.2811 41.3714 36.9555C42.1495 36.6299 42.8145 36.0785 43.2824 35.3711C43.7503 34.6636 44 33.8319 44 32.9811C44.0011 32.3394 43.8586 31.7058 43.5831 31.1277H43.5848L49.2623 25.3918V25.39C49.8349 25.6673 50.4618 25.8113 51.0968 25.8113C51.7318 25.8113 52.3587 25.6673 52.9313 25.39V25.3918L58.6087 31.1277H58.6105C58.3349 31.7058 58.1924 32.3394 58.1935 32.9811C58.1935 34.122 58.6422 35.2162 59.4407 36.023C60.2393 36.8297 61.3223 37.283 62.4516 37.283C63.5809 37.283 64.664 36.8297 65.4625 36.023C66.2611 35.2162 66.7097 34.122 66.7097 32.9811C66.7108 32.3394 66.5683 31.7058 66.2927 31.1277H66.2945L71.9719 25.3918V25.39C72.5442 25.6684 73.1713 25.8124 73.8064 25.8113C74.9358 25.8113 76.0188 25.358 76.8174 24.5513C77.6159 23.7445 78.0645 22.6503 78.0645 21.5094C78.0645 20.3684 77.6159 19.2742 76.8174 18.4675C76.0188 17.6607 74.9358 17.2075 73.8064 17.2075ZM39.7419 34.415C39.4612 34.415 39.1868 34.3309 38.9534 34.1734C38.72 34.0158 38.538 33.7919 38.4306 33.5298C38.3232 33.2678 38.2951 32.9795 38.3499 32.7013C38.4046 32.4232 38.5398 32.1677 38.7383 31.9671C38.9368 31.7666 39.1897 31.63 39.465 31.5747C39.7404 31.5193 40.0257 31.5477 40.2851 31.6563C40.5444 31.7648 40.7661 31.9486 40.9221 32.1844C41.078 32.4202 41.1613 32.6975 41.1613 32.9811C41.1608 33.3612 41.0111 33.7257 40.745 33.9945C40.4789 34.2633 40.1182 34.4145 39.7419 34.415ZM51.0968 22.9433C50.8161 22.9433 50.5416 22.8592 50.3082 22.7017C50.0748 22.5441 49.8929 22.3201 49.7855 22.0581C49.678 21.7961 49.6499 21.5078 49.7047 21.2296C49.7595 20.9514 49.8946 20.6959 50.0931 20.4954C50.2916 20.2948 50.5445 20.1583 50.8199 20.1029C51.0952 20.0476 51.3806 20.076 51.6399 20.1845C51.8993 20.2931 52.121 20.4769 52.2769 20.7127C52.4329 20.9485 52.5161 21.2257 52.5161 21.5094C52.5156 21.8895 52.3659 22.2539 52.0998 22.5227C51.8338 22.7916 51.473 22.9428 51.0968 22.9433ZM62.4516 34.415C62.1709 34.415 61.8965 34.3309 61.6631 34.1734C61.4296 34.0158 61.2477 33.7919 61.1403 33.5298C61.0329 33.2678 61.0048 32.9795 61.0595 32.7013C61.1143 32.4232 61.2495 32.1677 61.448 31.9671C61.6465 31.7666 61.8994 31.63 62.1747 31.5747C62.45 31.5193 62.7354 31.5477 62.9948 31.6563C63.2541 31.7648 63.4758 31.9486 63.6318 32.1844C63.7877 32.4202 63.871 32.6975 63.871 32.9811C63.8704 33.3612 63.7207 33.7257 63.4547 33.9945C63.1886 34.2633 62.8279 34.4145 62.4516 34.415ZM73.8064 22.9433C73.5257 22.9433 73.2513 22.8592 73.0179 22.7017C72.7845 22.5441 72.6026 22.3201 72.4951 22.0581C72.3877 21.7961 72.3596 21.5078 72.4144 21.2296C72.4691 20.9514 72.6043 20.6959 72.8028 20.4954C73.0013 20.2948 73.2542 20.1583 73.5295 20.1029C73.8049 20.0476 74.0903 20.076 74.3496 20.1845C74.609 20.2931 74.8306 20.4769 74.9866 20.7127C75.1426 20.9485 75.2258 21.2257 75.2258 21.5094C75.2253 21.8895 75.0756 22.2539 74.8095 22.5227C74.5434 22.7916 74.1827 22.9428 73.8064 22.9433Z" fill="#868686"/>
<path d="M17.0323 35.849H31.2258C31.6022 35.849 31.9633 35.6979 32.2294 35.429C32.4956 35.1601 32.6452 34.7953 32.6452 34.415C32.6452 34.0347 32.4956 33.67 32.2294 33.4011C31.9633 33.1322 31.6022 32.9811 31.2258 32.9811H17.0323C16.6558 32.9811 16.2948 33.1322 16.0286 33.4011C15.7624 33.67 15.6129 34.0347 15.6129 34.415C15.6129 34.7953 15.7624 35.1601 16.0286 35.429C16.2948 35.6979 16.6558 35.849 17.0323 35.849Z" fill="#868686"/>
<path d="M17.0323 40.1509H31.2258C31.6022 40.1509 31.9633 39.9998 32.2294 39.7309C32.4956 39.462 32.6452 39.0972 32.6452 38.7169C32.6452 38.3366 32.4956 37.9719 32.2294 37.703C31.9633 37.434 31.6022 37.283 31.2258 37.283H17.0323C16.6558 37.283 16.2948 37.434 16.0286 37.703C15.7624 37.9719 15.6129 38.3366 15.6129 38.7169C15.6129 39.0972 15.7624 39.462 16.0286 39.7309C16.2948 39.9998 16.6558 40.1509 17.0323 40.1509Z" fill="#868686"/>
<path d="M17.0323 44.4528H21.2903C21.6668 44.4528 22.0278 44.3017 22.294 44.0328C22.5601 43.7639 22.7097 43.3991 22.7097 43.0188C22.7097 42.6385 22.5601 42.2738 22.294 42.0049C22.0278 41.7359 21.6668 41.5849 21.2903 41.5849H17.0323C16.6558 41.5849 16.2948 41.7359 16.0286 42.0049C15.7624 42.2738 15.6129 42.6385 15.6129 43.0188C15.6129 43.3991 15.7624 43.7639 16.0286 44.0328C16.2948 44.3017 16.6558 44.4528 17.0323 44.4528Z" fill="#868686"/>
</svg>
