<svg width="76" height="76" viewBox="0 0 76 76" fill="none" xmlns="http://www.w3.org/2000/svg">
<path d="M60.8168 22.8709V6.33333C60.813 2.83733 57.9787 0.0038 54.4817 0H6.33508C2.83812 0.0038 0.00380105 2.83733 0 6.33333V69.6667C0.00380105 73.1627 2.83812 75.9962 6.33508 76H54.4817C57.9787 75.9962 60.813 73.1627 60.8168 69.6667V43.2073C61.7835 42.3333 62.7452 41.42 63.6904 40.4751C71.9944 32.1733 78.5525 21.9235 75.0239 18.3958C72.5658 15.9385 66.8579 18.3717 60.8168 22.8709ZM6.33508 2.53333H14.6797L2.53403 14.6756V6.33333C2.53657 4.23573 4.2369 2.53587 6.33508 2.53333ZM16.4712 4.3244V12.6667C16.4687 14.7643 14.7683 16.4641 12.6702 16.4667H4.32559L16.4712 4.3244ZM58.2828 69.6667C58.2802 71.7643 56.5799 73.4641 54.4817 73.4667H6.33508C4.2369 73.4641 2.53657 71.7643 2.53403 69.6667V19H12.6702C16.1671 18.9962 19.0014 16.1627 19.0052 12.6667V2.53333H54.4817C56.5799 2.53587 58.2802 4.23573 58.2828 6.33333V24.8659C56.4697 26.3644 54.6616 28.0035 52.9385 29.7274C49.4377 33.1639 46.3323 36.9803 43.6804 41.1071C43.3383 41.2313 43.0279 41.4276 42.7707 41.6835L40.9791 43.4745C40.3063 44.1509 40.0719 45.1478 40.3735 46.0522L35.6665 52.3273L32.3495 53.9853C32.2278 54.0461 32.1163 54.1259 32.02 54.2235L30.2285 56.0145C30.1068 56.1361 30.0118 56.2805 29.9472 56.4401L26.6821 64.6H7.6021C6.90271 64.6 6.33508 65.1675 6.33508 65.8667C6.33508 66.5659 6.90271 67.1333 7.6021 67.1333H38.0105C38.7099 67.1333 39.2775 66.5659 39.2775 65.8667C39.2775 65.1675 38.7099 64.6 38.0105 64.6H34.1195L36.969 63.4613C37.1287 63.3967 37.2731 63.3017 37.3947 63.1801L39.1863 61.389C39.2826 61.2927 39.3624 61.1813 39.4245 61.0597L41.0843 57.7423L47.3598 53.0366C48.2645 53.3495 49.2667 53.1139 49.9382 52.4311L51.7323 50.6388C51.9882 50.3804 52.1846 50.0701 52.3075 49.7293C54.3943 48.4196 56.3911 46.9693 58.2828 45.391V69.6667ZM48.1454 50.6413L42.7707 45.2669L44.5622 43.4758L49.9382 48.8503L48.1454 50.6413ZM45.3199 51.4001L40.2012 55.2381L38.1714 53.2089L42.0117 48.0903L45.3199 51.4001ZM36.2481 54.8695L38.5401 57.1596L37.2478 59.7423L35.7869 61.2041L29.8142 63.5917L32.2038 57.6194L33.6659 56.1589L36.2481 54.8695ZM61.8988 38.684C58.8086 41.819 55.4079 44.631 51.7488 47.0795L51.731 47.0579L46.3551 41.6847L46.3335 41.667C48.7827 38.0089 51.5967 34.6091 54.7326 31.5197C64.3822 21.8728 72.0185 18.9721 73.2348 20.1894C74.4512 21.4067 71.5497 29.0333 61.8988 38.684Z" fill="#868686"/>
<path d="M62.4804 29.1447L61.5846 30.0403C61.259 30.3595 61.131 30.8281 61.2476 31.2689C61.3642 31.7097 61.7075 32.053 62.1484 32.1695C62.5894 32.2861 63.0582 32.1569 63.3774 31.8326L64.2732 30.9371C64.7547 30.4405 64.7496 29.6489 64.2593 29.1599C63.7702 28.6685 62.9783 28.6634 62.4804 29.1447Z" fill="#868686"/>
<path d="M58.0002 33.6224L50.834 40.7879C50.5058 41.1059 50.374 41.5771 50.4906 42.0191C50.6072 42.4612 50.9518 42.807 51.394 42.9223C51.8362 43.0388 52.3062 42.9071 52.6255 42.579L59.7918 35.4135C60.1187 35.0943 60.2492 34.6256 60.1326 34.1835C60.016 33.7427 59.6714 33.3982 59.2305 33.2817C58.7896 33.1651 58.3195 33.2956 58.0002 33.6224Z" fill="#868686"/>
<path d="M50.6807 64.6H43.0786C42.3792 64.6 41.8116 65.1675 41.8116 65.8667C41.8116 66.5659 42.3792 67.1333 43.0786 67.1333H50.6807C51.3801 67.1333 51.9477 66.5659 51.9477 65.8667C51.9477 65.1675 51.3801 64.6 50.6807 64.6Z" fill="#868686"/>
<path d="M8.86911 27.8667H13.9372C14.6366 27.8667 15.2042 27.2992 15.2042 26.6C15.2042 25.9008 14.6366 25.3333 13.9372 25.3333H8.86911C8.16972 25.3333 7.6021 25.9008 7.6021 26.6C7.6021 27.2992 8.16972 27.8667 8.86911 27.8667Z" fill="#868686"/>
<path d="M20.2723 27.8667H32.9424C33.6418 27.8667 34.2094 27.2992 34.2094 26.6C34.2094 25.9008 33.6418 25.3333 32.9424 25.3333H20.2723C19.5729 25.3333 19.0052 25.9008 19.0052 26.6C19.0052 27.2992 19.5729 27.8667 20.2723 27.8667Z" fill="#868686"/>
<path d="M8.86911 46.8667H13.9372C14.6366 46.8667 15.2042 46.2992 15.2042 45.6C15.2042 44.9008 14.6366 44.3333 13.9372 44.3333H8.86911C8.16972 44.3333 7.6021 44.9008 7.6021 45.6C7.6021 46.2992 8.16972 46.8667 8.86911 46.8667Z" fill="#868686"/>
<path d="M27.8744 44.3333H20.2723C19.5729 44.3333 19.0052 44.9008 19.0052 45.6C19.0052 46.2992 19.5729 46.8667 20.2723 46.8667H27.8744C28.5738 46.8667 29.1414 46.2992 29.1414 45.6C29.1414 44.9008 28.5738 44.3333 27.8744 44.3333Z" fill="#868686"/>
<path d="M8.86911 34.2H39.2775C39.9769 34.2 40.5445 33.6325 40.5445 32.9333C40.5445 32.2341 39.9769 31.6667 39.2775 31.6667H8.86911C8.16972 31.6667 7.6021 32.2341 7.6021 32.9333C7.6021 33.6325 8.16972 34.2 8.86911 34.2Z" fill="#868686"/>
<path d="M8.86911 40.5333H39.2775C39.9769 40.5333 40.5445 39.9659 40.5445 39.2667C40.5445 38.5675 39.9769 38 39.2775 38H8.86911C8.16972 38 7.6021 38.5675 7.6021 39.2667C7.6021 39.9659 8.16972 40.5333 8.86911 40.5333Z" fill="#868686"/>
<path d="M34.7036 59.964C35.3991 59.964 35.963 59.4003 35.963 58.7049C35.963 58.0096 35.3991 57.4459 34.7036 57.4459C34.008 57.4459 33.4442 58.0096 33.4442 58.7049C33.4442 59.4003 34.008 59.964 34.7036 59.964Z" fill="#868686"/>
</svg>
