<svg width="10" height="9" viewBox="0 0 10 9" fill="none" xmlns="http://www.w3.org/2000/svg">
<path fill-rule="evenodd" clip-rule="evenodd" d="M0.810791 4.75202C0.810791 5.04529 1.04853 5.28303 1.34181 5.28303L8.776 5.28303C9.06927 5.28303 9.30701 5.04529 9.30701 4.75202C9.30701 4.45875 9.06927 4.221 8.776 4.221L1.34181 4.221C1.04853 4.221 0.810791 4.45875 0.810791 4.75202Z" fill="#5E5E5E"/>
<path fill-rule="evenodd" clip-rule="evenodd" d="M4.68339 0.659436C4.47602 0.86681 4.47602 1.20303 4.68339 1.4104L8.02505 4.75202L4.68339 8.09363C4.47602 8.30101 4.47602 8.63723 4.68339 8.8446C4.89077 9.05197 5.22704 9.05197 5.43441 8.8446L9.15151 5.1275C9.35888 4.92013 9.35888 4.58391 9.15151 4.37653L5.43441 0.659436C5.22704 0.452063 4.89077 0.452063 4.68339 0.659436Z" fill="#5E5E5E"/>
</svg>
