<svg width="12" height="12" viewBox="0 0 12 12" fill="none" xmlns="http://www.w3.org/2000/svg">
<path d="M9.69692 11.8005C9.64561 11.8005 9.5943 11.8005 9.543 11.8005C7.90119 11.5953 6.25939 11.0309 4.87411 10.1587C3.59145 9.33777 2.46271 8.20903 1.64181 6.92637C0.718289 5.5411 0.153919 3.89927 0 2.25747C0 1.84701 0.102611 1.43656 0.359144 1.12872C0.615676 0.820878 0.974821 0.615665 1.38527 0.564359C1.43658 0.564359 1.48789 0.564359 1.53919 0.564359H3.07839C3.84798 0.564359 4.51497 1.12872 4.61758 1.89831C4.66889 2.36007 4.7715 2.82185 4.92542 3.2323C5.13064 3.79667 4.97672 4.41236 4.56627 4.87411L4.20713 5.23323C4.82281 6.15675 5.59241 6.97767 6.56723 7.59335L6.92637 7.2342C7.33682 6.82375 8.00381 6.66982 8.56818 6.87505C8.97863 7.02897 9.44039 7.1316 9.90215 7.1829C10.6717 7.28552 11.2361 7.9525 11.2361 8.7221V10.2613C11.2361 10.6717 11.0822 11.0822 10.7744 11.3387C10.4665 11.5952 10.1074 11.8005 9.69692 11.8005ZM3.07839 1.59049H1.53919C1.38527 1.59049 1.23135 1.69311 1.12874 1.79573C1.07743 1.89834 1.02613 2.00093 1.02613 2.15485C1.18005 3.64273 1.69311 5.07932 2.51401 6.36198C3.28361 7.54203 4.25843 8.56817 5.43848 9.28646C6.72114 10.1074 8.15773 10.6204 9.64562 10.7744C9.85084 10.7744 9.95345 10.723 10.0561 10.6204C10.1587 10.5178 10.21 10.4152 10.21 10.2613V8.7221C10.21 8.46557 10.0048 8.26034 9.74823 8.20903C9.23516 8.15773 8.7221 8.00378 8.20903 7.79856C8.00381 7.74725 7.79858 7.74726 7.64466 7.90118L6.97767 8.56815C6.82375 8.72207 6.56722 8.77339 6.362 8.67077C4.97672 7.90118 3.84798 6.77245 3.07839 5.38718C3.02708 5.18195 3.07839 4.92541 3.23231 4.77149L3.89929 4.10452C4.0019 4.0019 4.05321 3.74537 4.00191 3.59145C3.79668 3.07839 3.69407 2.56532 3.59145 2.05226C3.59145 1.79573 3.33492 1.59049 3.07839 1.59049ZM9.18385 5.18194C8.92732 5.18194 8.7221 5.02803 8.67079 4.77149C8.51687 3.95059 7.84989 3.33491 7.02898 3.12968C6.77245 3.07838 6.56722 2.82184 6.61853 2.514C6.66984 2.25747 6.92637 2.05225 7.23421 2.10355C8.46556 2.36008 9.44039 3.28361 9.64562 4.51496C9.69692 4.77149 9.543 5.07934 9.23516 5.13065C9.23516 5.13065 9.23516 5.18194 9.18385 5.18194ZM11.2361 5.13065C10.9796 5.13065 10.7744 4.92541 10.723 4.66888C10.5178 2.77054 9.02994 1.28266 7.08029 1.02613C6.82376 0.974823 6.61853 0.718272 6.61853 0.461739C6.61853 0.205207 6.92637 0 7.1829 0C9.59431 0.256532 11.4413 2.10356 11.6979 4.51496C11.7492 4.77149 11.544 5.02801 11.2361 5.07932C11.2874 5.13063 11.2361 5.13065 11.2361 5.13065Z" fill="#292929"/>
</svg>
